<svg xmlns="http://www.w3.org/2000/svg" width="65" height="64" fill="none"><path fill="#00DDB3" d="M48.307 0H16.693C7.75 0 .5 7.25.5 16.193v31.614C.5 56.75 7.75 64 16.694 64h31.613C57.25 64 64.5 56.75 64.5 47.807V16.193C64.5 7.25 57.25 0 48.307 0z"/><path fill="#fff" d="M49.142 14.334c-11.017 0-15.1 7.866-18.382 14.186l-2.145 4.042c-3.475 6.702-6.072 10.775-12.765 10.775a3.165 3.165 0 0 0-3.164 3.164 3.169 3.169 0 0 0 3.164 3.164c11.021 0 15.103-7.866 18.386-14.185l2.14-4.043c3.48-6.701 6.078-10.775 12.766-10.775a3.165 3.165 0 0 0 3.168-3.164 3.169 3.169 0 0 0-3.168-3.164z"/></svg>