<svg xmlns="http://www.w3.org/2000/svg" viewBox="0 0 64 64" id="Lightbulb"><path fill="#008080" d="M32 0C19.663 0 10 8.785 10 20c0 .123.022.245.066.359L20 46.186V55c0 2.757 2.243 5 5 5h1v1c0 1.654 1.346 3 3 3h6c1.654 0 3-1.346 3-3v-1h1c2.757 0 5-2.243 5-5v-8.814l9.934-25.827A1.02 1.02 0 0 0 54 20C54 8.785 44.337 0 32 0z" class="color009698 svgShape"></path><path fill="#0a0a0a" d="M20 46v9c0 2.757 2.243 5 5 5h1v1c0 1.654 1.346 3 3 3h6c1.654 0 3-1.346 3-3v-1h1c2.757 0 5-2.243 5-5v-9H20z" class="color005457 svgShape"></path><path fill="#e6e6e6" d="M20 55c0 2.757 2.243 5 5 5h14c2.757 0 5-2.243 5-5v-9H20v9z" class="colorffdaaa svgShape"></path><path fill="#dab600" d="M32 0C19.663 0 10 8.785 10 20a1 1 0 0 0 1 1h42a1 1 0 0 0 1-1C54 8.785 44.337 0 32 0z" class="colorffb655 svgShape"></path><path fill="#008080" d="M38 51H21a1 1 0 1 1 0-2h17a1 1 0 1 1 0 2zm5 4H26a1 1 0 1 1 0-2h17a1 1 0 1 1 0 2z" class="color009698 svgShape"></path><path fill="#0a0a0a" d="M32 42a1 1 0 0 1-1-1V25a1 1 0 1 1 2 0v16a1 1 0 0 1-1 1zm6 0a1.001 1.001 0 0 1-.937-1.352l6-16a1.001 1.001 0 0 1 1.873.703l-6 16A1 1 0 0 1 38 42zm-12 0c-.404 0-.786-.248-.937-.649l-6-16a1.002 1.002 0 0 1 1.873-.703l6 16A1.002 1.002 0 0 1 26 42z" class="color005457 svgShape"></path></svg>