<svg xmlns="http://www.w3.org/2000/svg" viewBox="0 0 48 48" id="Recent"><defs><linearGradient id="a" x1="8.271" x2="37.383" y1="42.244" y2="8.475" gradientUnits="userSpaceOnUse"><stop offset="0" stop-color="#0a0a0a" class="stopColorfff33b svgShape"></stop><stop offset=".01" stop-color="#0a0a0a" class="stopColorfff33b svgShape"></stop><stop offset=".01" stop-color="#008080" class="stopColorfee72e svgShape"></stop><stop offset=".04" stop-color="#848484" class="stopColorfed51b svgShape"></stop><stop offset=".07" stop-color="#e6e6e6" class="stopColorfdca10 svgShape"></stop><stop offset=".1" stop-color="#dab600" class="stopColorfdc70c svgShape"></stop><stop offset=".4" stop-color="#cce5e5" class="stopColorf3903f svgShape"></stop><stop offset=".8" stop-color="#222222" class="stopColored683c svgShape"></stop><stop offset="1" stop-color="#e9cc3a" class="stopColore93e3a svgShape"></stop></linearGradient></defs><path fill="url(#a)" fill-rule="evenodd" d="m12.758 37.408 1.78-.045a1.498 1.498 0 1 0-.076-2.996l-5.5.133a1.499 1.499 0 0 0-1.458 1.538l.121 5a1.5 1.5 0 0 0 3-.075l-.038-1.463A20.498 20.498 0 1 0 3.5 24a1.5 1.5 0 0 0 3 0 17.506 17.506 0 1 1 6.258 13.408ZM22.5 14.5V24a1.499 1.499 0 0 0 1.5 1.5h10.058a1.5 1.5 0 0 0 0-3H25.5v-8a1.5 1.5 0 1 0-3 0Z"></path></svg>