<svg xmlns="http://www.w3.org/2000/svg" viewBox="0 0 256 256" id="apiinterface"><path fill="#f9f3d8" d="M243.15 191.318H12.85a8.85 8.85 0 0 1-8.85-8.85V40.672a8.85 8.85 0 0 1 8.85-8.85h230.3a8.85 8.85 0 0 1 8.85 8.85v141.796a8.85 8.85 0 0 1-8.85 8.85z" class="colorf4efed svgShape"></path><path fill="#66b2b2" d="M243.15 31.822h-10a8.85 8.85 0 0 1 8.85 8.85v141.796a8.85 8.85 0 0 1-8.85 8.85h10a8.85 8.85 0 0 0 8.85-8.85V40.672a8.85 8.85 0 0 0-8.85-8.85z" class="colord6d1cf svgShape"></path><path fill="#cce5e5" d="M12.85 191.318h10a8.85 8.85 0 0 1-8.85-8.85V40.672a8.85 8.85 0 0 1 8.85-8.85h-10A8.85 8.85 0 0 0 4 40.672v141.796a8.85 8.85 0 0 0 8.85 8.85z" class="colorffffff svgShape"></path><path fill="#66b2b2" d="M208.901 224.178H47.099v-11.854a8.85 8.85 0 0 1 8.85-8.85h144.102a8.85 8.85 0 0 1 8.85 8.85v11.854z" class="color7bac51 svgShape"></path><path fill="#008080" d="M200.051 203.474h-10a8.85 8.85 0 0 1 8.85 8.85v11.855h10v-11.855a8.85 8.85 0 0 0-8.85-8.85z" class="color5d8e33 svgShape"></path><path fill="#66b2b2" d="M55.949 203.474h10a8.85 8.85 0 0 0-8.85 8.85v11.855h-10v-11.855a8.85 8.85 0 0 1 8.85-8.85z" class="color99ca6f svgShape"></path><path fill="#008080" d="M80.503 191.318h94.993v12.156H80.503z" class="color5d8e33 svgShape"></path><path fill="#0a0a0a" d="M12 69.026a2 2 0 0 1-2-2v-12a2 2 0 0 1 4 0v12a2 2 0 0 1-2 2zm196.901 157.152H47.099a2 2 0 0 1-2-2v-11.854c0-5.983 4.867-10.85 10.851-10.85h144.102c5.983 0 10.851 4.867 10.851 10.85v11.854a2.002 2.002 0 0 1-2.002 2zm-159.802-4h157.803v-9.854a6.858 6.858 0 0 0-6.851-6.85H55.949c-3.777 0-6.851 3.073-6.851 6.85v9.854z" class="color690589 svgShape"></path><path fill="#0a0a0a" d="M175.497 205.474H80.503a2 2 0 0 1-2-2v-12.155a2 2 0 0 1 2-2h94.994a2 2 0 0 1 2 2v12.155a2 2 0 0 1-2 2zm-92.994-4h90.994v-8.155H82.503v8.155z" class="color690589 svgShape"></path><path fill="#0a0a0a" d="M243.15 193.318H12.85c-5.982 0-10.85-4.867-10.85-10.85V40.672c0-5.983 4.867-10.85 10.85-10.85h230.3c5.982 0 10.85 4.867 10.85 10.85v141.796c0 5.983-4.867 10.85-10.85 10.85zM12.85 33.822A6.858 6.858 0 0 0 6 40.672v141.796a6.857 6.857 0 0 0 6.85 6.85h230.3a6.858 6.858 0 0 0 6.85-6.85V40.672a6.857 6.857 0 0 0-6.85-6.85H12.85z" class="color690589 svgShape"></path><path fill="#dab600" d="M193.063 122.728v-21.795h-12.061a53.769 53.769 0 0 0-7.829-18.863l8.54-8.54-15.412-15.412-8.54 8.54a53.776 53.776 0 0 0-18.863-7.829V46.767h-21.795v12.061a53.792 53.792 0 0 0-18.864 7.829l-8.54-8.54-15.412 15.412 8.54 8.54a53.769 53.769 0 0 0-7.829 18.863H62.937v21.795h12.061a53.781 53.781 0 0 0 7.829 18.864l-8.54 8.54 15.412 15.412 8.539-8.54a53.773 53.773 0 0 0 18.864 7.829v12.061h21.795v-12.061a53.792 53.792 0 0 0 18.864-7.829l8.54 8.54 15.412-15.412-8.54-8.54a53.773 53.773 0 0 0 7.829-18.864h12.061zM128 147.118c-19.489 0-35.288-15.799-35.288-35.288 0-19.489 15.799-35.288 35.288-35.288 19.489 0 35.288 15.799 35.288 35.288 0 19.489-15.799 35.288-35.288 35.288z" class="colorfcc24c svgShape"></path><path fill="#0a0a0a" d="M138.897 178.893h-21.795a2 2 0 0 1-2-2V166.44a55.491 55.491 0 0 1-16.587-6.886l-7.402 7.402c-.75.75-2.078.75-2.828 0l-15.412-15.412a2 2 0 0 1 0-2.828l7.402-7.403a55.51 55.51 0 0 1-6.885-16.586H62.937a2 2 0 0 1-2-2v-21.795a2 2 0 0 1 2-2h10.454a55.498 55.498 0 0 1 6.885-16.586l-7.402-7.403a2 2 0 0 1 0-2.828l15.412-15.412a2 2 0 0 1 2.828 0l7.403 7.403a55.475 55.475 0 0 1 16.586-6.886V46.767a2 2 0 0 1 2-2h21.795a2 2 0 0 1 2 2V57.22a55.481 55.481 0 0 1 16.586 6.886l7.403-7.403c.75-.75 2.078-.75 2.828 0l15.411 15.412a2 2 0 0 1 0 2.828l-7.401 7.403a55.535 55.535 0 0 1 6.885 16.586h10.454a2 2 0 0 1 2 2v21.795a2 2 0 0 1-2 2H182.61a55.472 55.472 0 0 1-6.885 16.586l7.401 7.403a2 2 0 0 1 0 2.828l-15.411 15.412a2 2 0 0 1-2.828 0l-7.403-7.402a55.516 55.516 0 0 1-16.586 6.886v10.453a2 2 0 0 1-2.001 2zm-19.794-4h17.795v-10.061c0-.95.668-1.769 1.6-1.959a51.59 51.59 0 0 0 18.162-7.539 1.999 1.999 0 0 1 2.516.255l7.126 7.125 12.583-12.583-7.125-7.126a2 2 0 0 1-.255-2.516 51.616 51.616 0 0 0 7.539-18.162 1.999 1.999 0 0 1 1.959-1.599h10.062v-17.795h-10.062c-.95 0-1.769-.668-1.959-1.599a51.608 51.608 0 0 0-7.539-18.162 2 2 0 0 1 .255-2.516l7.125-7.126-12.583-12.583-7.126 7.125a1.996 1.996 0 0 1-2.516.255 51.61 51.61 0 0 0-18.162-7.539 1.999 1.999 0 0 1-1.6-1.959V48.767h-17.795v10.062c0 .95-.668 1.769-1.6 1.959a51.587 51.587 0 0 0-18.162 7.539 2.001 2.001 0 0 1-2.516-.255l-7.126-7.125-12.584 12.582 7.126 7.126a2 2 0 0 1 .255 2.516 51.608 51.608 0 0 0-7.539 18.162 1.999 1.999 0 0 1-1.959 1.599H64.937v17.795h10.062c.95 0 1.769.668 1.959 1.599a51.616 51.616 0 0 0 7.539 18.162 2 2 0 0 1-.255 2.516l-7.126 7.126L89.7 162.713l7.125-7.125a1.999 1.999 0 0 1 2.516-.255 51.621 51.621 0 0 0 18.163 7.539c.932.19 1.6 1.009 1.6 1.959v10.062zM128 149.118c-20.561 0-37.288-16.728-37.288-37.288S107.439 74.542 128 74.542s37.288 16.727 37.288 37.288-16.727 37.288-37.288 37.288zm0-70.576c-18.355 0-33.288 14.933-33.288 33.288s14.933 33.288 33.288 33.288 33.288-14.933 33.288-33.288S146.355 78.542 128 78.542z" class="color690589 svgShape"></path><path fill="#0a0a0a" d="M117.656 118.048h-8.51l-1.716 4.553a1.963 1.963 0 0 1-1.82 1.226c-.245 0-.456-.035-.666-.105-1.016-.385-1.506-1.506-1.155-2.521l7.739-20.626c.315-.771 1.085-1.261 1.855-1.226.806-.035 1.541.455 1.856 1.226l7.739 20.626c.35 1.016-.141 2.136-1.156 2.521-.175.07-.42.105-.665.105-.771 0-1.506-.455-1.786-1.226l-1.715-4.553zm-1.436-3.852-2.837-7.529-2.836 7.529h5.673zm19.75.105h-4.307v7.599c0 1.051-.876 1.926-1.961 1.926a1.943 1.943 0 0 1-1.927-1.926v-20.661c0-1.085.876-1.926 1.927-1.926H135.969a7.517 7.517 0 0 1 7.529 7.529c.002 4.098-3.36 7.459-7.528 7.459zm-4.306-3.887h4.307a3.627 3.627 0 0 0 3.643-3.572c-.035-2.031-1.611-3.642-3.643-3.642h-4.307v7.214zm16.772-9.175a1.9 1.9 0 0 1 1.927-1.926c1.05 0 1.961.84 1.961 1.926V121.9c0 1.086-.911 1.926-1.961 1.926a1.899 1.899 0 0 1-1.927-1.926v-20.661zm76.815 52.879h-15.954c-3.859 0-7-3.14-7-7V76.542c0-3.86 3.141-7 7-7h15.954a2 2 0 0 1 0 4h-15.954c-1.654 0-3 1.346-3 3v70.576c0 1.654 1.346 3 3 3h15.954a2 2 0 0 1 0 4z" class="color690589 svgShape"></path><path fill="#0a0a0a" d="M225.251 113.83h-32.188a2 2 0 0 1 0-4h32.188a2 2 0 0 1 0 4z" class="color690589 svgShape"></path><circle cx="225.251" cy="71.542" r="10.144" fill="#008080" class="color5d8e33 svgShape"></circle><path fill="#0a0a0a" d="M225.251 83.686a12.065 12.065 0 0 1-8.587-3.557c-4.734-4.735-4.734-12.439 0-17.174a12.065 12.065 0 0 1 8.587-3.557c3.244 0 6.294 1.263 8.587 3.557 2.294 2.293 3.558 5.343 3.558 8.587s-1.264 6.293-3.558 8.587a12.062 12.062 0 0 1-8.587 3.557zm0-20.288a8.092 8.092 0 0 0-5.759 2.385c-3.175 3.175-3.175 8.342 0 11.518a8.092 8.092 0 0 0 5.759 2.385 8.09 8.09 0 0 0 5.759-2.385c1.538-1.539 2.386-3.583 2.386-5.759s-.848-4.22-2.386-5.759a8.09 8.09 0 0 0-5.759-2.385z" class="color690589 svgShape"></path><circle cx="225.251" cy="111.83" r="10.144" fill="#ecda7f" class="colore12579 svgShape"></circle><path fill="#0a0a0a" d="M225.251 123.974a12.065 12.065 0 0 1-8.587-3.557c-4.734-4.735-4.734-12.438 0-17.173a12.065 12.065 0 0 1 8.587-3.557c3.244 0 6.294 1.263 8.587 3.557a12.062 12.062 0 0 1 3.558 8.587 12.06 12.06 0 0 1-3.558 8.586 12.066 12.066 0 0 1-8.587 3.557zm0-20.288a8.092 8.092 0 0 0-5.759 2.385c-3.175 3.175-3.175 8.342 0 11.517a8.092 8.092 0 0 0 5.759 2.385 8.09 8.09 0 0 0 5.759-2.385 8.093 8.093 0 0 0 2.386-5.758c0-2.175-.848-4.22-2.386-5.759a8.09 8.09 0 0 0-5.759-2.385z" class="color690589 svgShape"></path><circle cx="225.251" cy="152.118" r="10.144" fill="#008080" class="color5d8e33 svgShape"></circle><path fill="#0a0a0a" d="M225.251 164.262a12.065 12.065 0 0 1-8.587-3.557c-4.734-4.735-4.734-12.439 0-17.174a12.065 12.065 0 0 1 8.587-3.557c3.244 0 6.294 1.263 8.587 3.557 2.294 2.293 3.558 5.343 3.558 8.587s-1.264 6.293-3.558 8.587a12.062 12.062 0 0 1-8.587 3.557zm0-20.288a8.092 8.092 0 0 0-5.759 2.385c-3.175 3.175-3.175 8.342 0 11.518a8.092 8.092 0 0 0 5.759 2.385 8.09 8.09 0 0 0 5.759-2.385c1.538-1.539 2.386-3.583 2.386-5.759s-.848-4.22-2.386-5.759a8.09 8.09 0 0 0-5.759-2.385zM46.703 154.118H30.749a2 2 0 0 1 0-4h15.954c1.654 0 3-1.346 3-3V76.542c0-1.654-1.346-3-3-3H30.749a2 2 0 0 1 0-4h15.954c3.859 0 7 3.14 7 7v70.576c0 3.86-3.141 7-7 7z" class="color690589 svgShape"></path><path fill="#0a0a0a" d="M62.937 113.83H30.749a2 2 0 0 1 0-4h32.188a2 2 0 0 1 0 4z" class="color690589 svgShape"></path><circle cx="30.749" cy="71.542" r="10.144" fill="#66b2b2" class="color99ca6f svgShape"></circle><path fill="#0a0a0a" d="M30.749 83.686a12.062 12.062 0 0 1-8.587-3.557c-2.294-2.293-3.558-5.343-3.558-8.587s1.264-6.293 3.558-8.587a12.062 12.062 0 0 1 8.587-3.557c3.243 0 6.293 1.263 8.587 3.557 4.734 4.735 4.734 12.439 0 17.174a12.065 12.065 0 0 1-8.587 3.557zm0-20.288a8.09 8.09 0 0 0-5.759 2.385c-1.538 1.539-2.386 3.583-2.386 5.759s.848 4.22 2.386 5.759a8.09 8.09 0 0 0 5.759 2.385 8.092 8.092 0 0 0 5.759-2.385c3.175-3.175 3.175-8.342 0-11.518a8.092 8.092 0 0 0-5.759-2.385zm-7.173.971h.01-.01z" class="color690589 svgShape"></path><circle cx="30.749" cy="111.83" r="10.144" fill="#dab600" class="colorff61b5 svgShape"></circle><path fill="#0a0a0a" d="M30.749 123.974a12.062 12.062 0 0 1-8.587-3.557 12.062 12.062 0 0 1-3.558-8.586c0-3.244 1.264-6.293 3.558-8.587a12.062 12.062 0 0 1 8.587-3.557c3.243 0 6.293 1.263 8.587 3.557 4.734 4.735 4.734 12.438 0 17.173a12.07 12.07 0 0 1-8.587 3.557zm0-20.288a8.09 8.09 0 0 0-5.759 2.385 8.093 8.093 0 0 0-2.386 5.759 8.09 8.09 0 0 0 2.386 5.758 8.09 8.09 0 0 0 5.759 2.385 8.092 8.092 0 0 0 5.759-2.385c3.175-3.175 3.175-8.342 0-11.517a8.092 8.092 0 0 0-5.759-2.385zm-7.173.971h.01-.01z" class="color690589 svgShape"></path><circle cx="30.749" cy="152.118" r="10.144" fill="#66b2b2" class="color99ca6f svgShape"></circle><path fill="#0a0a0a" d="M30.749 164.262a12.062 12.062 0 0 1-8.587-3.557c-2.294-2.293-3.558-5.343-3.558-8.587s1.264-6.293 3.558-8.587a12.062 12.062 0 0 1 8.587-3.557c3.243 0 6.293 1.263 8.587 3.557 4.734 4.735 4.734 12.439 0 17.174a12.065 12.065 0 0 1-8.587 3.557zm0-20.288a8.09 8.09 0 0 0-5.759 2.385c-1.538 1.539-2.386 3.583-2.386 5.759s.848 4.22 2.386 5.759a8.09 8.09 0 0 0 5.759 2.385 8.092 8.092 0 0 0 5.759-2.385c3.175-3.175 3.175-8.342 0-11.518a8.092 8.092 0 0 0-5.759-2.385zm-7.173.971h.01-.01z" class="color690589 svgShape"></path></svg>