<svg xmlns="http://www.w3.org/2000/svg" viewBox="0 0 64 64" id="Bullhorn"><circle cx="44" cy="28.5" r="5" fill="#66b2b2" class="color494949 svgShape"></circle><rect width="5" height="31" x="39" y="13" fill="#f4d536" rx="2.5" class="colorf44336 svgShape"></rect><polygon fill="#008080" points="16 37 9 37 12.214 46 17.929 46 16 37" class="color616161 svgShape"></polygon><path fill="#66b2b2" d="M17.9286,46H12.2143l1.3116,3.6727A2,2,0,0,0,15.4094,51H16.526a2,2,0,0,0,1.9556-2.4191Z" class="color494949 svgShape"></path><polygon fill="#f4d536" points="18 21 18 35 22 36.333 22 19.857 18 21" class="colorf44336 svgShape"></polygon><polygon fill="#dab600" points="39 15 22 19.857 22 36.333 39 42 39 15" class="colorf9a825 svgShape"></polygon><rect width="11" height="18" x="7" y="19" fill="#dab600" rx="2" class="colorf9a825 svgShape"></rect><path fill="#f4d536" d="M5,22H7a0,0,0,0,1,0,0V34a0,0,0,0,1,0,0H5a2,2,0,0,1-2-2V24A2,2,0,0,1,5,22Z" class="colorf44336 svgShape"></path><g fill="#0a0a0a" class="color000000 svgShape"><path d="M61.9873,28.3579a16.6546,16.6546,0,0,1-4.91,11.854,1,1,0,0,1-1.414-1.414,14.7412,14.7412,0,0,0,.2422-20.6128,1,1,0,0,1,1.4472-1.38A16.6814,16.6814,0,0,1,61.9873,28.3579Zm-3.5039.04a12.1778,12.1778,0,0,1-3.5918,8.67,1,1,0,0,1-1.4141-1.4141,10.2424,10.2424,0,0,0,.168-14.3252A1.0006,1.0006,0,0,1,55.0947,19.95,12.2055,12.2055,0,0,1,58.4834,28.3984Zm-3.5049.0406a7.7049,7.7049,0,0,1-2.2715,5.4843,1,1,0,0,1-1.414-1.414,5.7464,5.7464,0,0,0,.0937-8.0357,1,1,0,0,1,1.4473-1.38A7.716,7.716,0,0,1,54.9785,28.439ZM45,22.59V15.5a3.498,3.498,0,0,0-6.7341-1.33l-19.545,5.5843A2.9981,2.9981,0,0,0,16,18H9a3.0033,3.0033,0,0,0-3,3H5a3,3,0,0,0-3,3v8a3,3,0,0,0,3,3H6a2.9971,2.9971,0,0,0,2.2585,2.8961L12.585,50.0093A3,3,0,0,0,15.41,52h1.1165a3.0176,3.0176,0,0,0,2.9326-3.6284L17.1841,37.7544a3.01,3.01,0,0,0,1.5144-1.4674l19.56,6.52A3.4967,3.4967,0,0,0,45,41.5V34.41A5.9925,5.9925,0,0,0,45,22.59ZM6,33H5a1,1,0,0,1-1-1V24a1,1,0,0,1,1-1H6Zm2,2V21a1.0009,1.0009,0,0,1,1-1h7a1.0009,1.0009,0,0,1,1,1V35a1.0009,1.0009,0,0,1-1,1H9A1.0009,1.0009,0,0,1,8,35Zm4.919,10-2.5-7h4.7725l1.5,7Zm4.5849,3.7905A1.0061,1.0061,0,0,1,16.5264,50H15.4092a1,1,0,0,1-.9414-.6634L13.6333,47H17.12ZM21,34.946l-2-.6667V21.7544l2-.5715Zm17,5.6668-15-5V20.6115l15-4.2858ZM43,41.5a1.5,1.5,0,0,1-3,0v-26a1.5,1.5,0,0,1,3,0Zm2-9.142V24.642a3.9807,3.9807,0,0,1,0,7.716ZM9,28a1,1,0,0,1,1-1h5a1,1,0,0,1,0,2H10A1,1,0,0,1,9,28Zm0-4a1,1,0,0,1,1-1h5a1,1,0,0,1,0,2H10A1,1,0,0,1,9,24Zm0,8a1,1,0,0,1,1-1h5a1,1,0,0,1,0,2H10A1,1,0,0,1,9,32Z" fill="#0a0a0a" class="color000000 svgShape"></path></g></svg>