<svg xmlns="http://www.w3.org/2000/svg" viewBox="0 0 512 512" id="BusinessCard"><path fill="#008080" d="M400.283 278.01v149.482a5.243 5.243 0 0 1-5.238 5.236H116.954a5.243 5.243 0 0 1-5.238-5.236V278.01c0-2.863 2.35-5.212 5.238-5.212h278.091c2.888 0 5.238 2.348 5.238 5.212zM255.62 416.627c33.818 0 61.32-27.503 61.32-61.32 0-33.814-27.502-61.317-61.32-61.317-33.816 0-61.344 27.503-61.344 61.317 0 33.817 27.527 61.32 61.344 61.32z" class="colorf4451c svgShape"></path><path fill="#ecda7f" d="M400.283 84.483V233.99c0 2.863-2.35 5.212-5.238 5.212h-94.082v-9.251c0-6.704-4.407-10.399-7.588-11.769-.194-.097-.415-.172-.612-.245l-25.299-7.513v-.929c14.41-4.797 24.861-18.376 24.861-34.379v-18.719h3.082v-26.574c0-5.408-2.201-8.712-4.6-10.571 4.136-9.372 4.576-18.522 4.6-19.184l.367-9.983-6.755 7.365c-3.595 3.915-6.458 5.53-13.188 6.166-4.381.416-10.398.416-19.303.392-2.523-.025-5.264-.025-8.225-.025-9.787 0-17.592 2.936-23.244 8.711-9.201 9.47-8.98 23.026-8.957 23.516 0 15.048 2.764 23.979 3.695 26.548v12.357c0 16.003 10.424 29.583 24.836 34.379v.955l-25.447 7.536c-2.962 1.077-7.979 4.82-7.979 11.964v9.251h-94.254c-2.889 0-5.238-2.349-5.238-5.212V84.483c0-2.863 2.35-5.212 5.238-5.212h278.091c2.889 0 5.239 2.349 5.239 5.212zm-30.515 97.754v-7.341h-48.939v7.341h48.939zm0-19.6v-7.341h-48.939v7.341h48.939zm0-20.285v-7.34h-48.939v7.34h48.939zM191.561 182.58v-7.341h-48.938v7.341h48.938zm0-19.6v-7.341h-48.938v7.341h48.938zm0-20.285v-7.34h-48.938v7.34h48.938z" class="colorffdb33 svgShape"></path><path fill="#0a0a0a" d="M320.829 174.896h48.939v7.341h-48.939zM320.829 155.296h48.939v7.341h-48.939zM320.829 135.012h48.939v7.34h-48.939z" class="color1d1d1b svgShape"></path><path fill="#66b2b2" d="M293.622 229.951v9.251H218.55v-9.251c0-3.449 2.422-4.747 3.108-5.039l23.587-7c1.47 4.576 5.752 7.929 10.814 7.929 5.066 0 9.326-3.353 10.816-7.953l23.613 6.998c.024.027 3.134 1.201 3.134 5.065zm-5.555-100.127v18.523c-9.689-.147-16.639-4.135-20.529-7.17 3.375-1.762 5.7-3.425 6.631-4.135 5.725-2.544 9.909-6.607 12.969-11.109.513.808.929 2.006.929 3.891z" class="color99b8e0 svgShape"></path><path fill="#0a0a0a" d="M279.942 383.57h5.629v7.341h-5.629z" class="color1d1d1b svgShape"></path><path fill="#66b2b2" d="M286.721 108.413c-1.836 7.537-6.07 17.912-15.883 22.072l-.49.196-.388.317c-.099.074-8.886 7.072-20.652 8.272-1.593.17-3.183.318-4.722.465-3.844.341-7.734.709-11.258 1.345-3.793.686-7.145 1.688-9.568 3.375a106.676 106.676 0 0 1-.318-8.342c0-.124-.195-11.011 6.877-18.279 4.209-4.331 10.252-6.509 17.984-6.509 2.961 0 5.678 0 8.174.025 8.662.024 15.023.049 20.041-.465 4.133-.366 7.363-1.102 10.203-2.472z" class="color99b8e0 svgShape"></path><path fill="#dab600" d="M274.756 390.911v-7.341h-15.072v7.341h15.072zm15.294-7.341v7.341h6.091c-9.912 11.255-24.395 18.376-40.521 18.376-16.15 0-30.635-7.121-40.521-18.376h30.146v-7.341h-5.139l36.729-58.066 29.854 47.226a52.441 52.441 0 0 1-5.113 10.841H290.05zm-10.108 7.341h5.629v-7.341h-5.629v7.341zm-4.135-227.442c0-3.694-3.01-6.704-6.703-6.704-3.672 0-6.68 3.01-6.68 6.704 0 3.67 3.008 6.68 6.68 6.68 3.693 0 6.703-3.01 6.703-6.68zm-15.76-19.085c3.551 3.376 12.014 10.081 24.936 11.182v19.551c0 14.927-11.426 27.258-25.963 28.751-.977.098-1.955.147-2.961.147-15.953 0-28.92-12.969-28.92-28.898v-23.075c0-1.884 3.18-2.985 7.389-3.743 3.277-.563 7.193-.931 10.717-1.249 1.592-.147 3.207-.293 4.797-.464 3.646-.368 7.023-1.199 10.005-2.202zm5.852 44.852-5.436-4.943c-2.297 2.52-6.533 2.52-8.83 0l-5.408 4.966a13.382 13.382 0 0 0 9.834 4.332c3.723 0 7.316-1.591 9.84-4.355zm-14.779-25.767c0-3.694-3.012-6.704-6.707-6.704-3.694 0-6.681 3.01-6.681 6.704 0 3.67 2.986 6.68 6.681 6.68s6.707-3.01 6.707-6.68z" class="colorff9d00 svgShape"></path><path fill="#0a0a0a" d="M259.684 383.57h15.072v7.341h-15.072z" class="color1d1d1b svgShape"></path><path fill="#ecda7f" d="M269.104 162.809c.367 0 .66.293.66.66 0 .71-1.297.71-1.297 0 0-.367.293-.66.637-.66z" class="colorffdb33 svgShape"></path><path fill="#0a0a0a" d="M269.104 162.809a.652.652 0 0 0-.637.66c0 .71 1.297.71 1.297 0a.657.657 0 0 0-.66-.66zm0-6.044c3.693 0 6.703 3.01 6.703 6.704 0 3.67-3.01 6.68-6.703 6.68-3.672 0-6.68-3.01-6.68-6.68 0-3.694 3.008-6.704 6.68-6.704zm-8.641 27.528 5.436 4.943a13.37 13.37 0 0 1-9.84 4.355 13.382 13.382 0 0 1-9.834-4.332l5.408-4.966c2.297 2.52 6.534 2.52 8.83 0z" class="color1d1d1b svgShape"></path><path fill="#dab600" d="M260.122 211.111v3.327a4.067 4.067 0 0 1-4.063 4.062 4.127 4.127 0 0 1-3.768-2.472 4.301 4.301 0 0 1-.317-1.59v-3.327a37.34 37.34 0 0 0 4.085.245c1.201 0 2.398-.074 3.573-.196.173-.025.318-.025.49-.049z" class="colorffdb33 svgShape"></path><path fill="#008080" d="M249.526 326.85c1.127 0 2.033.931 2.033 2.031 0 1.126-.906 2.055-2.033 2.055-1.125 0-2.03-.929-2.03-2.055 0-1.101.905-2.031 2.03-2.031z" class="colorf4451c svgShape"></path><path fill="#0a0a0a" d="M249.526 338.276c-5.162 0-9.371-4.208-9.371-9.396 0-5.162 4.209-9.372 9.371-9.372 5.164 0 9.373 4.21 9.373 9.372 0 5.188-4.209 9.396-9.373 9.396zm2.033-9.395a2.043 2.043 0 0 0-2.033-2.031c-1.125 0-2.03.931-2.03 2.031 0 1.126.905 2.055 2.03 2.055 1.127 0 2.033-.929 2.033-2.055z" class="color1d1d1b svgShape"></path><path fill="#0a0a0a" d="m231.445 383.57 13.726-21.729-12.576-19.895-24.545 38.858c.492.93 1.029 1.859 1.594 2.765h21.801zm24.175-89.581c33.818 0 61.32 27.503 61.32 61.317 0 33.817-27.502 61.32-61.32 61.32-33.816 0-61.344-27.503-61.344-61.32 0-33.814 27.527-61.317 61.344-61.317zm21.214 31.515-36.729 58.066h5.139v7.341h-30.146c9.887 11.255 24.371 18.376 40.521 18.376 16.127 0 30.609-7.121 40.521-18.376h-6.091v-7.341h11.524a52.366 52.366 0 0 0 5.113-10.841l-29.852-47.225zm32.764 29.803c0-29.779-24.223-53.977-53.979-53.977-29.779 0-54.004 24.197-54.004 53.977a53.6 53.6 0 0 0 2.889 17.35l28.09-44.46 16.932 26.77 27.309-43.188 32.227 50.968c.341-2.423.536-4.919.536-7.44z" class="color1d1d1b svgShape"></path><path fill="#dab600" d="m232.594 341.947 12.576 19.895-13.726 21.729h-21.802a45.368 45.368 0 0 1-1.594-2.765l24.546-38.859z" class="colorff9d00 svgShape"></path><path fill="#dab600" d="M245.073 163.469c0 .71-1.295.71-1.295 0 0-.367.295-.66.635-.66.368 0 .66.293.66.66z" class="colorffdb33 svgShape"></path><path fill="#0a0a0a" d="M243.778 163.469c0 .71 1.295.71 1.295 0a.656.656 0 0 0-.66-.66.653.653 0 0 0-.635.66zm7.342 0c0 3.67-3.012 6.68-6.707 6.68-3.694 0-6.681-3.01-6.681-6.68 0-3.694 2.986-6.704 6.681-6.704s6.707 3.01 6.707 6.704z" class="color1d1d1b svgShape"></path><path fill="#dab600" d="m276.834 311.777-27.309 43.188-16.932-26.77-28.09 44.46a53.623 53.623 0 0 1-2.889-17.35c0-29.779 24.225-53.977 54.004-53.977 29.756 0 53.979 24.197 53.979 53.977 0 2.521-.195 5.018-.537 7.438l-32.226-50.966zm-27.308 26.499c5.164 0 9.373-4.208 9.373-9.396 0-5.162-4.209-9.372-9.373-9.372-5.162 0-9.371 4.21-9.371 9.372 0 5.188 4.209 9.396 9.371 9.396z" class="colorff9d00 svgShape"></path><path fill="#0a0a0a" d="M142.624 175.239h48.938v7.341h-48.938zM142.624 155.64h48.938v7.341h-48.938zM142.624 135.354h48.938v7.34h-48.938z" class="color1d1d1b svgShape"></path><path fill="#0a0a0a" d="M395.044 71.931h-278.09c-6.926 0-12.578 5.627-12.578 12.552V233.99c0 6.9 5.652 12.553 12.578 12.553h278.091c6.926 0 12.58-5.653 12.58-12.553V84.483c0-6.925-5.655-12.552-12.581-12.552zM293.622 239.202H218.55v-9.251c0-3.449 2.422-4.747 3.108-5.039l23.587-7c1.47 4.576 5.752 7.929 10.814 7.929 5.066 0 9.326-3.353 10.816-7.953l23.613 6.998c.023.025 3.133 1.2 3.133 5.064v9.252zm-22.784-108.717-.49.196-.388.317c-.099.074-8.886 7.072-20.652 8.272-1.593.17-3.183.318-4.722.465-3.844.341-7.734.709-11.258 1.345-3.793.686-7.145 1.688-9.568 3.375a106.676 106.676 0 0 1-.318-8.342c0-.124-.195-11.011 6.877-18.279 4.209-4.331 10.252-6.509 17.984-6.509 2.961 0 5.678 0 8.174.025 8.662.024 15.023.049 20.041-.465 4.133-.367 7.363-1.102 10.203-2.472-1.836 7.537-6.07 17.912-15.883 22.072zm16.299-4.551c.514.808.93 2.006.93 3.891v18.523c-9.689-.147-16.639-4.135-20.529-7.17 3.375-1.762 5.7-3.425 6.631-4.135 5.724-2.545 9.909-6.607 12.968-11.109zm-59.998 26.108c0-1.884 3.18-2.985 7.389-3.743 3.277-.563 7.193-.931 10.717-1.249 1.592-.147 3.207-.293 4.797-.464 3.646-.367 7.023-1.199 10.006-2.202 3.551 3.376 12.014 10.081 24.936 11.182v19.551c0 14.927-11.426 27.258-25.963 28.751-.977.098-1.955.147-2.961.147-15.953 0-28.92-12.969-28.92-28.898v-23.075zm24.835 62.396v-3.327a37.34 37.34 0 0 0 4.085.245c1.201 0 2.398-.074 3.573-.196.173-.025.317-.025.489-.049v3.327a4.067 4.067 0 0 1-4.063 4.062 4.127 4.127 0 0 1-3.768-2.472 4.312 4.312 0 0 1-.316-1.59zm148.309 19.552c0 2.863-2.35 5.212-5.238 5.212h-94.082v-9.251c0-6.704-4.407-10.399-7.588-11.769-.194-.097-.415-.172-.612-.245l-25.299-7.513v-.929c14.41-4.797 24.861-18.376 24.861-34.379v-18.719h3.082v-26.574c0-5.408-2.201-8.712-4.6-10.571 4.136-9.372 4.576-18.522 4.6-19.184l.367-9.983-6.755 7.365c-3.595 3.915-6.458 5.53-13.188 6.166-4.381.416-10.398.416-19.303.392-2.523-.025-5.264-.025-8.225-.025-9.787 0-17.592 2.936-23.244 8.711-9.201 9.47-8.98 23.026-8.957 23.516 0 15.048 2.764 23.979 3.695 26.548v12.357c0 16.003 10.424 29.583 24.836 34.379v.955l-25.447 7.536c-2.962 1.077-7.979 4.82-7.979 11.964v9.251h-94.254c-2.889 0-5.238-2.349-5.238-5.212V84.483c0-2.863 2.35-5.212 5.238-5.212h278.091c2.889 0 5.238 2.349 5.238 5.212V233.99zM111.715 427.492a5.243 5.243 0 0 0 5.238 5.236h278.091a5.243 5.243 0 0 0 5.238-5.236V278.01c0-2.863-2.35-5.212-5.238-5.212h-278.09c-2.889 0-5.238 2.349-5.238 5.212v149.482zm5.239 12.577c-6.926 0-12.578-5.652-12.578-12.577V278.01c0-6.926 5.652-12.553 12.578-12.553h278.091c6.926 0 12.58 5.627 12.58 12.553v149.482c0 6.925-5.654 12.577-12.58 12.577H116.954z" class="color1d1d1b svgShape"></path></svg>