<svg xmlns="http://www.w3.org/2000/svg" viewBox="0 0 512 512" id="encryption"><path fill="#cce5e5" d="M504 136v304c0 17.68-14.32 32-32 32H40c-17.68 0-32-14.32-32-32V136h496z" class="colorced6f8 svgShape"></path><path fill="#66b2b2" d="M115.44 396.8c-17.68 0-32-14.32-32-32V136H8v304c0 17.68 14.32 32 32 32h432c17.68 0 32-14.32 32-32v-43.2H115.44z" class="colora7b7ea svgShape"></path><path fill="#008080" d="M504 72v64H8V72c0-17.68 14.32-32 32-32h432c17.68 0 32 14.32 32 32z" class="color344477 svgShape"></path><path fill="#ecda7f" d="M472 272v136c0 17.68-14.32 32-32 32H312c-17.68 0-32-14.32-32-32V272c0-8.8 7.2-16 16-16h160c8.8 0 16 7.2 16 16z" class="colorf8e009 svgShape"></path><path fill="#dab600" d="M356.96 384c-17.68 0-32-14.32-32-32v-96H296c-8.8 0-16 7.2-16 16v136c0 17.68 14.32 32 32 32h128c17.68 0 32-14.32 32-32v-24H356.96z" class="colorfbbb04 svgShape"></path><path fill="#66b2b2" d="M444.88 289.28c5.2 5.2 5.36 13.6.32 18.96l-15.2 16v.08l-45.6 48.16c-7.44 7.92-20 8.08-27.68.4L341.92 358c-5.36-5.28-5.36-13.92 0-19.28 5.28-5.28 13.92-5.28 19.2 0l9.36 9.36 43.92-46.8 10.96-11.68c2.72-2.88 6.32-4.32 9.92-4.32 3.44 0 6.96 1.36 9.6 4z" class="color7ab82d svgShape"></path><path fill="#008080" d="M440 234v22h-32v-22.72c0-15.36-10.24-29.52-25.28-32.56C362.16 196.48 344 212.16 344 232v24h-32v-24c0-38.48 33.92-69.04 73.52-63.28C417.28 173.28 440 201.92 440 234z" class="color344477 svgShape"></path><path fill="#f9f3d8" d="M430 324.32c3.04 7.28 4.64 15.28 4.64 23.68 0 35.28-28.64 64-64 64-35.28 0-63.92-28.72-63.92-64s28.64-64 63.92-64c16.88 0 32.32 6.64 43.68 17.28h.08l-43.92 46.8-9.36-9.36c-5.28-5.28-13.92-5.28-19.2 0-5.36 5.36-5.36 14 0 19.28l14.8 14.88c7.68 7.68 20.24 7.52 27.68-.4l45.6-48.16z" class="colorf2f2f2 svgShape"></path><path fill="#e6e6e6" d="M425.04 381.76C413.68 399.92 393.6 412 370.64 412c-35.28 0-63.92-28.72-63.92-64 0-20.16 9.36-38.16 23.92-49.84-6.16 9.76-9.68 21.36-9.68 33.76 0 35.28 28.64 64 63.92 64 15.2 0 29.2-5.36 40.16-14.16z" class="colordddddd svgShape"></path><path fill="#ecda7f" d="M232 272v136c0 17.68-14.32 32-32 32H72c-17.68 0-32-14.32-32-32V272c0-8.8 7.2-16 16-16h160c8.8 0 16 7.2 16 16z" class="colorf8e009 svgShape"></path><path fill="#dab600" d="M115.44 387.6c-17.68 0-32-14.32-32-32V256H56c-8.8 0-16 7.2-16 16v136c0 17.68 14.32 32 32 32h128c17.68 0 32-14.32 32-32v-20.4H115.44z" class="colorfbbb04 svgShape"></path><circle cx="192" cy="88" r="16" fill="#dab600" class="colorf8e009 svgShape"></circle><path fill="#f9f3d8" d="M203.68 387.84c3.36 5.36-.48 12.32-6.8 12.32H73.36c-6.32 0-10.16-6.96-6.8-12.32l61.76-97.52a8.006 8.006 0 0 1 13.6 0l61.76 97.52z" class="colorf7664f svgShape"></path><path fill="#ecda7f" d="M196.88 400.16H73.36c-6.32 0-10.16-6.96-6.8-12.32l61.76-97.52a8.006 8.006 0 0 1 13.6 0l3.6 5.68-44.24 69.84c-3.36 5.36.48 12.32 6.8 12.32h89.44l6.16 9.68c3.36 5.36-.48 12.32-6.8 12.32z" class="colorac4038 svgShape"></path><path fill="#008080" d="M200 234.4V256h-32v-22.72c0-15.92-11.04-30.4-26.8-32.88-11.52-1.84-22.24 2.56-29.12 10.4-3.2 3.52-7.52 5.84-12.32 5.92-9.52 0-16.32-8-16.32-16.24 0-3.36 1.04-6.72 3.52-9.6 12.16-14.48 30.64-23.52 51.2-22.88 34.88 1.2 61.84 31.52 61.84 66.4z" class="color344477 svgShape"></path><circle cx="136" cy="88" r="16" fill="#ecda7f" class="colora9d51a svgShape"></circle><circle cx="80" cy="88" r="16" fill="#f9f3d8" class="colorf7664f svgShape"></circle><path d="M456 248h-8v-14c0-36.719-26.383-68.203-61.367-73.242-20.898-3.008-41.977 3.133-57.766 16.812A71.993 71.993 0 0 0 304 232v16h-8c-13.234 0-24 10.766-24 24v136c0 22.055 17.945 40 40 40h128c22.055 0 40-17.945 40-40V272c0-13.234-10.766-24-24-24zm-136-16c0-16.25 7.055-31.68 19.344-42.336 12.461-10.805 28.453-15.484 45.008-13.062C411.516 180.508 432 205.188 432 234v14h-16v-14.75c0-19.664-13.336-36.656-31.703-40.398-12.008-2.445-24.219.523-33.562 8.156C341.367 208.656 336 219.953 336 232v16h-16v-16zm80 16h-48v-16c0-7.227 3.227-14 8.852-18.594 5.688-4.641 12.914-6.367 20.242-4.883C392.047 210.758 400 221.156 400 233.25V248zm64 160c0 13.234-10.766 24-24 24H312c-13.234 0-24-10.766-24-24V272c0-4.414 3.586-8 8-8h160c4.414 0 8 3.586 8 8v136z" fill="#0a0a0a" class="color000000 svgShape"></path><path d="M434.953 277.305c-5.898.094-11.367 2.516-15.398 6.812l-5.872 6.247c-12.375-9.269-27.366-14.34-43.019-14.34-39.688 0-71.977 32.289-71.977 71.977s32.289 71.977 71.977 71.977 71.977-32.289 71.977-71.977c0-7.539-1.19-14.842-3.437-21.818l11.772-12.44c8.094-8.555 7.906-21.781-.414-30.109-4.171-4.173-9.851-6.486-15.609-6.329zM426.641 348c0 30.867-25.109 55.977-55.977 55.977s-55.976-25.11-55.976-55.977 25.109-55.977 55.977-55.977c11.557 0 22.631 3.58 31.961 10.104l-32.36 34.427-3.461-3.461c-8.422-8.438-22.156-8.438-30.578 0-8.43 8.43-8.43 22.148 0 30.578l14.859 14.859c5.164 5.164 11.984 7.992 19.266 7.992.141 0 .289-.008.43-.008 7.438-.109 14.344-3.156 19.43-8.562l35.818-37.85c.365 2.594.611 5.218.611 7.898zm12.711-45.258-60.781 64.227a11.172 11.172 0 0 1-8.031 3.547c-2.883-.016-5.961-1.117-8.141-3.297L347.54 352.36a5.626 5.626 0 0 1 3.977-9.601c1.5 0 2.914.586 3.977 1.648l9.297 9.297c1.523 1.531 3.492 2.297 5.781 2.344a7.988 7.988 0 0 0 5.703-2.523l54.945-58.453a5.52 5.52 0 0 1 3.984-1.766h.086a5.54 5.54 0 0 1 3.953 1.641 5.565 5.565 0 0 1 .109 7.795zM216 248h-8v-13.578c0-39.766-31.227-73.133-69.609-74.383-22.117-.875-43.211 8.633-57.531 25.656-5.875 6.992-7.078 16.539-3.156 24.93 4.062 8.68 12.477 14.062 21.969 14.062h.086c6.891-.023 13.391-3.078 18.305-8.602 5.477-6.172 13.703-9.055 21.898-7.773 11.422 1.82 20.039 12.555 20.039 24.969V248H56c-13.234 0-24 10.766-24 24v136c0 22.055 17.945 40 40 40h128c22.055 0 40-17.945 40-40V272c0-13.234-10.766-24-24-24zm-73.523-55.484c-13.719-2.18-27.266 2.68-36.375 12.945-1.07 1.195-3.32 3.219-6.398 3.227h-.031c-3.836 0-6.375-2.5-7.477-4.844-.609-1.312-1.742-4.688.914-7.852 11.133-13.25 27.258-20.383 44.766-19.969C167.719 177 192 203.195 192 234.422V248h-16v-14.719c0-20.203-14.414-37.726-33.523-40.765zM224 408c0 13.234-10.766 24-24 24H72c-13.234 0-24-10.766-24-24V272c0-4.414 3.586-8 8-8h160c4.414 0 8 3.586 8 8v136z" fill="#0a0a0a" class="color000000 svgShape"></path><path d="M210.438 383.523 148.672 286c-2.953-4.672-8.023-7.453-13.555-7.453-5.523 0-10.594 2.781-13.547 7.453l-61.766 97.531a16.037 16.037 0 0 0-.5 16.32 16.04 16.04 0 0 0 14.047 8.297h123.531c5.852 0 11.234-3.18 14.055-8.305s2.633-11.375-.5-16.312l.001-.008zm-13.555 8.625-123.563-.062 61.836-97.523 61.766 97.523 6.758-4.281-6.797 4.343z" fill="#0a0a0a" class="color000000 svgShape"></path><path d="M135.117 313.359c-4.422 0-8 3.578-8 8v26.273c0 4.422 3.578 8 8 8s8-3.578 8-8v-26.273c0-4.421-3.578-8-8-8zm0 49.485c-4.422 0-8 3.578-8 8v6.5c0 4.422 3.578 8 8 8s8-3.578 8-8v-6.5c0-4.422-3.578-8-8-8z" fill="#0a0a0a" class="color000000 svgShape"></path><path d="M472 32H40C17.945 32 0 49.945 0 72v368c0 22.055 17.945 40 40 40h432c22.055 0 40-17.945 40-40V72c0-22.055-17.945-40-40-40zM40 48h432c13.234 0 24 10.766 24 24v56H16V72c0-13.234 10.766-24 24-24zm432 416H40c-13.234 0-24-10.766-24-24V144h480v296c0 13.234-10.766 24-24 24z" fill="#0a0a0a" class="color000000 svgShape"></path><path d="M80 112c13.234 0 24-10.766 24-24S93.234 64 80 64 56 74.766 56 88s10.766 24 24 24zm0-32c4.414 0 8 3.586 8 8s-3.586 8-8 8-8-3.586-8-8 3.586-8 8-8zm56 32c13.234 0 24-10.766 24-24s-10.766-24-24-24-24 10.766-24 24 10.766 24 24 24zm0-32c4.414 0 8 3.586 8 8s-3.586 8-8 8-8-3.586-8-8 3.586-8 8-8zm56 32c13.234 0 24-10.766 24-24s-10.766-24-24-24-24 10.766-24 24 10.766 24 24 24zm0-32c4.414 0 8 3.586 8 8s-3.586 8-8 8-8-3.586-8-8 3.586-8 8-8zm242.344 29.656c1.562 1.562 3.609 2.344 5.656 2.344s4.094-.781 5.656-2.344L456 99.312l10.344 10.344c1.562 1.562 3.609 2.344 5.656 2.344s4.094-.781 5.656-2.344a7.996 7.996 0 0 0 0-11.312L467.312 88l10.344-10.344c3.125-3.125 3.125-8.188 0-11.312s-8.188-3.125-11.312 0L456 76.688l-10.344-10.344c-3.125-3.125-8.188-3.125-11.312 0s-3.125 8.188 0 11.312L444.688 88l-10.344 10.344a7.996 7.996 0 0 0 0 11.312z" fill="#0a0a0a" class="color000000 svgShape"></path></svg>