<svg xmlns="http://www.w3.org/2000/svg" viewBox="0 0 64 64" id="OnlineFillForm"><path fill="#008080" d="M60,40.37H4v4.08a4.72,4.72,0,0,0,4.73,4.73H55.27A4.72,4.72,0,0,0,60,44.45Z" class="colorbebebe svgShape"></path><path fill="#dab600" d="M8.73,4A4.72,4.72,0,0,0,4,8.73V40.37H8.92V8.92H55.08V40.37H60V8.73A4.72,4.72,0,0,0,55.27,4Z" class="colordfdfdf svgShape"></path><path fill="#848484" d="M24.78,49.18H38.06V55H24.78Z" class="coloraaaaaa svgShape"></path><path fill="#008080" d="M20.31,55H42.53a2.52,2.52,0,0,1,0,5H20.31a2.52,2.52,0,1,1,0-5Z" class="colorbebebe svgShape"></path><path fill="#e6e6e6" d="M8.92,8.92V40.37H55.08V8.92Zm5,4.12H50.11a.89.89,0,0,1,.89.9v7.52a.9.9,0,0,1-.89.9H13.89a.9.9,0,0,1-.89-.9V13.94A.89.89,0,0,1,13.89,13Zm0,14.18H34.5a.9.9,0,0,1,.9.9v7.52a.9.9,0,0,1-.9.9H13.89a.9.9,0,0,1-.89-.9V28.12A.89.89,0,0,1,13.89,27.22Zm27.76,0h8.46a.89.89,0,0,1,.89.9v7.52a.9.9,0,0,1-.89.9H41.65a.9.9,0,0,1-.9-.9V28.12A.9.9,0,0,1,41.65,27.22Z" class="colorf2f2f2 svgShape"></path><path fill="#848484" d="M37.61 55a2.52 2.52 0 0 1 0 5h4.92a2.52 2.52 0 0 0 0-5zM55.08 40.37v4.08a4.72 4.72 0 0 1-4.73 4.73h4.92A4.72 4.72 0 0 0 60 44.45V40.37z" class="coloraaaaaa svgShape"></path><path fill="#cce5e5" d="M13.89 13H50.11a.89.89 0 0 1 .89.9v7.52a.89.89 0 0 1-.89.9H13.89a.89.89 0 0 1-.89-.9V13.94A.89.89 0 0 1 13.89 13zM13.89 27.22H34.5a.9.9 0 0 1 .9.9v7.52a.9.9 0 0 1-.9.9H13.89a.89.89 0 0 1-.89-.9V28.12a.89.89 0 0 1 .89-.9zM41.65 27.22h8.46a.89.89 0 0 1 .89.9v7.52a.89.89 0 0 1-.89.9H41.65a.9.9 0 0 1-.9-.9V28.12a.9.9 0 0 1 .9-.9z" class="color93d8e4 svgShape"></path><path fill="#66b2b2" d="M46.12,13a.9.9,0,0,1,.9.9v7.52a.9.9,0,0,1-.9.9h4a.9.9,0,0,0,.89-.9V13.94a.89.89,0,0,0-.89-.9ZM30.51,27.22a.9.9,0,0,1,.9.9v7.52a.9.9,0,0,1-.9.9h4a.9.9,0,0,0,.9-.9V28.12a.9.9,0,0,0-.9-.9Zm15.61,0a.9.9,0,0,1,.9.9v7.52a.9.9,0,0,1-.9.9h4a.9.9,0,0,0,.89-.9V28.12a.89.89,0,0,0-.89-.9Z" class="color7ad0df svgShape"></path><circle cx="20.29" cy="17.7" r="1" fill="#0a0a0a" class="color282b3b svgShape"></circle><circle cx="24.2" cy="17.7" r="1" fill="#0a0a0a" class="color282b3b svgShape"></circle><circle cx="28.1" cy="17.7" r="1" fill="#0a0a0a" class="color282b3b svgShape"></circle><circle cx="32" cy="17.7" r="1" fill="#0a0a0a" class="color282b3b svgShape"></circle><circle cx="16.39" cy="17.7" r="1" fill="#0a0a0a" class="color282b3b svgShape"></circle><path fill="#0a0a0a" d="M8.73,50.18H23.78V54H20.31a3.52,3.52,0,0,0,0,7H42.52a3.52,3.52,0,0,0,0-7H39.06V50.18H55.27A5.74,5.74,0,0,0,61,44.45V8.73A5.74,5.74,0,0,0,55.27,3H8.73A5.74,5.74,0,0,0,3,8.73V44.45A5.74,5.74,0,0,0,8.73,50.18ZM44,57.48A1.52,1.52,0,0,1,42.52,59H20.31a1.52,1.52,0,1,1,0-3H42.52A1.53,1.53,0,0,1,44,57.48Zm-7-3.52H25.78V50.18H37.06Zm18.21-5.78H8.73A3.74,3.74,0,0,1,5,44.45V41.37H59v3.08A3.74,3.74,0,0,1,55.27,48.18Zm-1.19-8.81H9.92V9.92H54.08ZM8.73,5H55.27A3.73,3.73,0,0,1,59,8.73V39.37H56.08V8.92a1,1,0,0,0-1-1H8.92a1,1,0,0,0-1,1V39.37H5V8.73A3.73,3.73,0,0,1,8.73,5Z" class="color282b3b svgShape"></path><path fill="#0a0a0a" d="M35.06 43.78H28.94a1 1 0 1 0 0 2h6.12a1 1 0 0 0 0-2zM13.9 23.36H50.1a1.91 1.91 0 0 0 1.9-1.9V13.94A1.9 1.9 0 0 0 50.1 12H13.9a1.9 1.9 0 0 0-1.9 1.9v7.52A1.91 1.91 0 0 0 13.9 23.36zM14 14H50v7.32H14z" class="color282b3b svgShape"></path><path fill="#0a0a0a" d="M36.78 14.67a1 1 0 0 0-1 1v4a1 1 0 0 0 2 0v-4A1 1 0 0 0 36.78 14.67zM13.9 37.54H34.5a1.91 1.91 0 0 0 1.9-1.9V28.12a1.91 1.91 0 0 0-1.9-1.9H13.9a1.9 1.9 0 0 0-1.9 1.9v7.52A1.91 1.91 0 0 0 13.9 37.54zm.1-9.32H34.4v7.32H14zM50.1 26.22H41.65a1.9 1.9 0 0 0-1.9 1.9v7.52a1.91 1.91 0 0 0 1.9 1.9H50.1a1.91 1.91 0 0 0 1.9-1.9V28.12A1.9 1.9 0 0 0 50.1 26.22zM50 35.54H41.75V28.22H50z" class="color282b3b svgShape"></path></svg>