<svg xmlns="http://www.w3.org/2000/svg" viewBox="0 0 64 64" id="Develop"><path fill="#008080" d="M61,35.178v-6.356c0-1.105-.895-2-2-2h-5.106c-.561-2.383-1.498-4.62-2.75-6.643l3.609-3.609c.781-.781,.781-2.047,0-2.828l-4.495-4.495c-.781-.781-2.047-.781-2.828,0l-3.609,3.609c-2.023-1.252-4.26-2.189-6.643-2.75V5c0-1.105-.895-2-2-2h-6.356c-1.105,0-2,.895-2,2v5.106c-2.383,.561-4.619,1.498-6.643,2.75l-3.609-3.609c-.781-.781-2.047-.781-2.828,0l-4.495,4.495c-.781,.781-.781,2.047,0,2.828l3.609,3.609c-1.252,2.023-2.189,4.26-2.75,6.643H5c-1.105,0-2,.895-2,2v6.356c0,1.105,.895,2,2,2h5.106c.561,2.383,1.498,4.619,2.75,6.643l-3.609,3.609c-.781,.781-.781,2.047,0,2.828l4.495,4.495c.781,.781,2.047,.781,2.828,0l3.609-3.609c2.023,1.252,4.26,2.189,6.643,2.75v5.106c0,1.105,.895,2,2,2h6.356c1.105,0,2-.895,2-2v-5.106c2.383-.561,4.619-1.498,6.643-2.75l3.609,3.609c.781,.781,2.047,.781,2.828,0l4.495-4.495c.781-.781,.781-2.047,0-2.828l-3.609-3.609c1.252-2.023,2.189-4.26,2.75-6.643h5.106c1.105,0,2-.895,2-2Z" class="color78909c svgShape"></path><circle cx="32" cy="32" r="16.5" fill="#66b2b2" class="color455b64 svgShape"></circle><path d="M59,25.822h-4.327c-.522-1.922-1.283-3.762-2.271-5.486l3.061-3.06c1.168-1.169,1.168-3.072,0-4.242l-4.495-4.495c-1.134-1.134-3.112-1.132-4.242,0l-3.06,3.059c-1.725-.988-3.564-1.749-5.486-2.271V5c0-1.654-1.346-3-3-3h-6.355c-1.654,0-3,1.346-3,3v4.328c-1.922,.522-3.762,1.283-5.486,2.271l-3.059-3.059c-1.132-1.133-3.109-1.135-4.243,0l-4.496,4.495c-1.168,1.169-1.168,3.072,0,4.242l3.06,3.059c-.988,1.724-1.749,3.563-2.271,5.486H5c-1.654,0-3,1.346-3,3v6.356c0,1.654,1.346,3,3,3h4.327c.522,1.921,1.284,3.761,2.271,5.485l-3.061,3.06c-1.168,1.169-1.168,3.072,0,4.242l4.495,4.495c1.134,1.134,3.112,1.132,4.242,0l3.06-3.059c1.725,.988,3.564,1.749,5.486,2.271v4.328c0,1.654,1.346,3,3,3h6.355c1.654,0,3-1.346,3-3v-4.328c1.922-.522,3.762-1.283,5.486-2.271l3.059,3.059c1.132,1.133,3.109,1.135,4.243,0l4.496-4.495c1.168-1.169,1.168-3.072,0-4.242l-3.06-3.06c.987-1.725,1.749-3.564,2.271-5.485h4.327c1.654,0,3-1.346,3-3v-6.356c0-1.654-1.346-3-3-3Zm1,9.356c0,.551-.448,1-1,1h-5.105c-.464,0-.867,.319-.974,.771-.53,2.25-1.414,4.385-2.628,6.346-.244,.395-.185,.905,.144,1.233l3.609,3.609c.391,.39,.391,1.025,0,1.415l-4.495,4.495c-.379,.379-1.038,.378-1.414,0l-3.609-3.609c-.327-.328-.838-.386-1.233-.144-1.96,1.213-4.096,2.097-6.347,2.628-.451,.106-.771,.509-.771,.973v5.105c0,.551-.448,1-1,1h-6.355c-.552,0-1-.449-1-1v-5.105c0-.464-.319-.867-.771-.973-2.251-.531-4.387-1.415-6.347-2.628-.163-.101-.345-.149-.526-.149-.258,0-.515,.1-.707,.293l-3.61,3.61c-.375,.376-1.034,.378-1.413,0l-4.494-4.494c-.391-.39-.391-1.025,0-1.415l3.61-3.609c.328-.328,.388-.839,.144-1.233-1.214-1.961-2.098-4.096-2.628-6.346-.106-.452-.51-.771-.974-.771H5c-.552,0-1-.449-1-1v-6.356c0-.551,.448-1,1-1h5.105c.464,0,.867-.319,.974-.771,.53-2.251,1.414-4.386,2.627-6.346,.244-.395,.185-.905-.144-1.233l-3.608-3.609c-.391-.39-.391-1.025,0-1.415l4.495-4.495c.38-.378,1.038-.377,1.414,0l3.609,3.609c.328,.33,.839,.388,1.233,.144,1.96-1.213,4.096-2.097,6.347-2.628,.451-.106,.771-.509,.771-.973V5c0-.551,.448-1,1-1h6.355c.552,0,1,.449,1,1v5.105c0,.464,.319,.867,.771,.973,2.251,.531,4.387,1.415,6.347,2.628,.396,.245,.906,.186,1.233-.144l3.61-3.61c.374-.376,1.034-.378,1.413,0l4.494,4.494c.391,.39,.391,1.025,0,1.415l-3.609,3.609c-.328,.328-.388,.839-.144,1.233,1.213,1.959,2.097,4.094,2.627,6.346,.106,.452,.51,.771,.974,.771h5.105c.552,0,1,.449,1,1v6.356Z" fill="#0a0a0ad" class="color000000 svgShape"></path><path d="M32,14.5c-9.649,0-17.5,7.851-17.5,17.5s7.851,17.5,17.5,17.5,17.5-7.851,17.5-17.5-7.851-17.5-17.5-17.5Zm0,33c-8.547,0-15.5-6.953-15.5-15.5s6.953-15.5,15.5-15.5,15.5,6.953,15.5,15.5-6.953,15.5-15.5,15.5Z" fill="#0a0a0a" class="color000000 svgShape"></path><path d="M24.253 31.962l3.54-3.541c.391-.391.391-1.023 0-1.414s-1.023-.391-1.414 0l-4.247 4.248c-.391.391-.391 1.023 0 1.414l4.322 4.323c.391.391 1.023.391 1.414 0s.391-1.023 0-1.414l-3.615-3.616zM37.546 27.008c-.391-.391-1.023-.391-1.414 0s-.391 1.023 0 1.414l3.615 3.616-3.54 3.541c-.391.391-.391 1.023 0 1.414s1.023.391 1.414 0l4.247-4.248c.391-.391.391-1.023 0-1.414l-4.322-4.323zM34.2 21.218c-.539-.109-1.069.239-1.18.78l-4 19.604c-.11.541.238 1.069.779 1.18.528.111 1.072-.235 1.18-.78l4-19.604c.11-.541-.238-1.069-.779-1.18z" fill="#dab600" class="color000000 svgShape"></path></svg>