<svg xmlns="http://www.w3.org/2000/svg" viewBox="0 0 32 32" id="Bulb"><path fill="#008080" d="M15.993 18.473v5.964m-3.4 0h6.8V28.5h-6.8zm11.9-13.5c0 5.063-5.1 6.75-5.1 13.5h-6.8c0-6.75-5.1-8.437-5.1-13.5 0-4.66 3.806-8.437 8.5-8.437 4.695 0 8.5 3.778 8.5 8.437z" class="colorf6ec54 svgShape"></path><path style="line-height:normal;text-indent:0;text-align:start;text-decoration-line:none;text-decoration-style:solid;text-decoration-color:#000;text-transform:none;block-progression:tb;isolation:auto;mix-blend-mode:normal" d="M15.033 1020.496h-.043l-.709.094.131.992.688-.092.263-.012-.045-1zm2.238 1.047.428.055h.004l.51.111.213-.976-.514-.114-.04-.01-.472-.062zm-5.86-.088-.038.018-.11.057.458.889.095-.05.786-.321-.38-.926zm8.616.85.125.05.735.374.453-.893-.752-.38-.04-.019-.144-.06zm-10.963.609-.03.025-.36.318.662.748.328-.29h.002l.414-.311-.598-.801zm13.36.88.502.442.008.01.193.203.72-.693-.222-.232-.031-.027-.51-.45zm-15.27 1.114-.025.035-.467.693.828.559.444-.658.01-.014.093-.115-.78-.627zm17.178 1.024.17.252.32.568.873-.49-.328-.584-.023-.035-.186-.274zm-18.861 2.324-.012.04-.06.237.968.246.057-.222.24-.686-.943-.33zm20.177.226-.087.024.002.01.222.858.004.025h.004l.049-.014.934-.155-.006-.039-.01-.043-.23-.894-.012-.041-.014-.035zM5 1031.098l-.002.043.006.486 1-.012-.006-.469.037-.486-.996-.076zm20.994.87-.027.284.996.094.027-.303.002-.043.006-.695-1-.01zm-20.764 1.727.036.194.01.04.21.776.965-.264-.205-.751-.033-.176zm20.32.746-.003.014-.213.588.94.34.218-.602.012-.04.094-.346-.965-.262zm-19.241 2.221.355.625.023.035.159.23.824-.566-.15-.219-.008-.012-.334-.59zm17.73.754-.01.012-.066.082.775.63.076-.093.026-.033.496-.729-.828-.562zm-15.88 1.752.257.266.031.029.475.412.656-.754-.443-.385h-.002l-.258-.265Zm14.128.074-.012.01-.355.262.592.804.367-.27.033-.026.41-.358-.66-.752zm-11.654 1.82.066.04.037.02.83.407.44-.899-.815-.398-.04-.027zm9.396-.447.444.897.252-.125-.446-.895z" color="#000" font-family="sans-serif" font-weight="400" overflow="visible" transform="translate(0 -1020.362)" fill="#0a0a0a" class="color000000 svgShape"></path><path fill-rule="evenodd" style="line-height:normal;text-indent:0;text-align:start;text-decoration-line:none;text-decoration-style:solid;text-decoration-color:#000;text-transform:none;block-progression:tb;isolation:auto;mix-blend-mode:normal" d="M13.494 1050.361a.5.5 0 1 0 0 1h5a.5.5 0 1 0 0-1h-5z" color="#000" font-family="sans-serif" font-weight="400" overflow="visible" transform="translate(0 -1020.362)" fill="#0a0a0a" class="color000000 svgShape"></path><path fill="#f4dc60" d="M14.993 1025.862v1.12a4.5 4.5 0 0 0-1.394.571l-.787-.787-1.414 1.414.789.79a4.5 4.5 0 0 0-.576 1.392h-1.118v2h1.12a4.5 4.5 0 0 0 .572 1.395l-.787.787 1.414 1.414.789-.79a4.5 4.5 0 0 0 1.392.577v1.117h2v-1.119a4.5 4.5 0 0 0 1.395-.572l.787.787 1.414-1.414-.789-.79a4.5 4.5 0 0 0 .576-1.392h1.117v-2h-1.119a4.5 4.5 0 0 0-.572-1.394l.787-.788-1.414-1.414-.789.79a4.5 4.5 0 0 0-1.393-.577v-1.117h-2z" color="#000" overflow="visible" style="isolation:auto;mix-blend-mode:normal" transform="translate(0 -1020.362)" class="colorf4606e svgShape"></path><path fill-rule="evenodd" style="line-height:normal;text-indent:0;text-align:start;text-decoration-line:none;text-decoration-style:solid;text-decoration-color:#000;text-transform:none;block-progression:tb;isolation:auto;mix-blend-mode:normal" d="M12.994 1046.361v1h5v-1h-5z" color="#000" font-family="sans-serif" font-weight="400" overflow="visible" transform="translate(0 -1020.362)" fill="#0a0a0a" class="color000000 svgShape"></path><path fill="#dab600" d="M12.593 24.437h6.8V28.5h-6.8zm6.8 0h-6.8" class="colorf5a623 svgShape"></path><path fill="#66b2b2" d="M15.994 2.5c-4.694 0-8.5 3.779-8.5 8.438 0 5.063 5.1 6.75 5.1 13.5v4.063h1.5v-4.063c0-6.75-5.102-8.437-5.102-13.5 0-4.408 3.408-8.023 7.75-8.4a8.803 8.803 0 0 0-.748-.037z" class="colorffffff svgShape"></path><path fill="#66b2b2" d="M12.594 24.438v4.063h1.5v-4.063h-1.5z" class="colorffffff svgShape"></path><path fill="#f8de59" d="M15.993 2.5c4.695 0 8.5 3.779 8.5 8.438 0 5.063-5.1 6.75-5.1 13.5v4.063h-1.5v-4.063c0-6.75 5.102-8.437 5.102-13.5 0-4.408-3.407-8.023-7.75-8.4.247-.021.496-.037.748-.037z" class="colorf8d459 svgShape"></path><path fill="#edc600" d="M19.394 24.438v4.063h-1.5v-4.063h1.5z" class="colored6d00 svgShape"></path><path style="line-height:normal;text-indent:0;text-align:start;text-decoration-line:none;text-decoration-style:solid;text-decoration-color:#000;text-transform:none;block-progression:tb;isolation:auto;mix-blend-mode:normal" d="M12.594 1044.299a.5.5 0 0 0-.1.01.5.5 0 0 0-.4.574v3.978a.5.5 0 0 0 .5.5h6.799a.5.5 0 0 0 .5-.5v-3.97a.5.5 0 0 0-.465-.59.5.5 0 0 0-.035 0h-6.8zm.5 1h5.799v3.062h-5.8v-3.062z" color="#000" font-family="sans-serif" font-weight="400" overflow="visible" transform="translate(0 -1020.362)" fill="#0a0a0a" class="color000000 svgShape"></path><path style="line-height:normal;text-indent:0;text-align:start;text-decoration-line:none;text-decoration-style:solid;text-decoration-color:#000;text-transform:none;block-progression:tb;isolation:auto;mix-blend-mode:normal" d="M15.994 1022.361c-4.963 0-9 4.006-9 8.938 0 2.699 1.37 4.512 2.635 6.396 1.265 1.885 2.465 3.855 2.465 7.104v4.062a.5.5 0 0 0 .5.5h6.799a.5.5 0 0 0 .5-.5v-4.027a.5.5 0 0 0 0-.035c0-1.625.304-2.924.761-4.059.457-1.134 1.073-2.102 1.705-3.045.241-.358.484-.714.721-1.072a.5.5 0 1 0-.834-.55c-.23.348-.472.702-.717 1.066-.642.956-1.303 1.99-1.802 3.228-.443 1.1-.676 2.44-.74 3.932h-2.493v-5.465a.5.5 0 1 0-1 0v5.465H13c-.14-3.172-1.329-5.356-2.541-7.16-1.285-1.913-2.465-3.477-2.465-5.84 0-4.387 3.574-7.938 8-7.938s8 3.55 8 7.938c0 1.182-.292 2.15-.746 3.076a.5.5 0 0 0 .898.442c.503-1.025.848-2.168.848-3.518 0-4.932-4.037-8.938-9-8.938zm-2.9 22.938h2.808a.5.5 0 0 0 .172 0h2.819v3.062h-5.8v-3.062z" color="#000" font-family="sans-serif" font-weight="400" overflow="visible" transform="translate(0 -1020.362)" fill="#0a0a0a" class="color000000 svgShape"></path><path fill="#66b2b2" style="line-height:normal;text-indent:0;text-align:start;text-decoration-line:none;text-decoration-style:solid;text-decoration-color:#000;text-transform:none;block-progression:tb;isolation:auto;mix-blend-mode:normal" d="M15.5 1029.363c-1.099 0-2 .901-2 2 0 1.098.901 2 2 2 .174 0 .34-.03.502-.072a2.002 2.002 0 0 1-1.49-1.867c-.002-.021-.012-.04-.012-.061 0-.021.01-.04.012-.061a2.004 2.004 0 0 1 1.49-1.87 1.983 1.983 0 0 0-.502-.07z" color="#000" font-family="sans-serif" font-weight="400" overflow="visible" transform="translate(0 -1020.362)" class="colorffffff svgShape"></path><path style="line-height:normal;text-indent:0;text-align:start;text-decoration-line:none;text-decoration-style:solid;text-decoration-color:#000;text-transform:none;block-progression:tb;isolation:auto;mix-blend-mode:normal" d="M15.994 1029.361c-1.099 0-2 .902-2 2 0 1.099.901 2 2 2s2-.901 2-2c0-1.098-.901-2-2-2zm0 1c.558 0 1 .442 1 1s-.442 1-1 1-1-.442-1-1 .442-1 1-1z" color="#000" font-family="sans-serif" font-weight="400" overflow="visible" transform="translate(0 -1020.362)" fill="#0a0a0a" class="color000000 svgShape"></path></svg>