<svg xmlns="http://www.w3.org/2000/svg" enable-background="new 0 0 105 105" viewBox="0 0 105 105" id="LogoDesign"><g fill="#0a0a0a" class="color000000 svgShape"><g fill="#0a0a0a" class="color000000 svgShape"><g fill="#0a0a0a" class="color000000 svgShape"><g fill="#0a0a0a" class="color000000 svgShape"><path fill="#cce5e5" d="M98.6494446,16.6641464v52.1621857c0,5.0691223-4.1200027,9.1894073-9.2009888,9.1894073H24.3930779
					c-5.080986,0-9.2009869-4.120285-9.2009869-9.2012711V16.6522789c0-5.0691175,4.1200008-9.1894007,9.2009869-9.1894007
					h65.0553741C94.5294418,7.4628782,98.6494446,11.5831614,98.6494446,16.6641464z" class="coloraff2b6 svgShape"></path></g></g><g fill="#0a0a0a" class="color000000 svgShape"><g fill="#0a0a0a" class="color000000 svgShape"><path fill="#66b2b2" d="M98.6514969,16.6643028v52.1591377c0,5.0740051-4.1182861,9.1922989-9.2026596,9.1922989H24.3927002
					c-3.7363148,0-6.941906-2.2182617-8.3853283-5.4134903c1.2418098,0.6369781,2.6536179,0.9873352,4.1395397,0.9873352h65.0561371
					c5.0843735,0,9.2026596-4.1182861,9.2026596-9.1814117V12.2381506c0-1.3485765-0.2866135-2.6328869-0.817337-3.7896976
					C96.5923538,9.9556246,98.6514969,13.0658512,98.6514969,16.6643028z" class="color7fd685 svgShape"></path></g></g><g fill="#0a0a0a" class="color000000 svgShape"><g fill="#0a0a0a" class="color000000 svgShape"><path fill="#cce5e5" d="M24.3930569,66.8758087c-1.3875961,0-2.516819-1.1292191-2.516819-2.5173569V16.652319
					c0-1.3816118,1.1292229-2.5053949,2.516819-2.5053949h65.0554199c1.3875961,0,2.5168152,1.1292229,2.5168152,2.5170889
					v47.7064018c0,1.3816147-1.1292191,2.505394-2.5168152,2.505394H24.3930569z" class="colorffffff svgShape"></path></g></g><g fill="#0a0a0a" class="color000000 svgShape"><g fill="#0a0a0a" class="color000000 svgShape"><path fill="#e6e6e6" d="M91.964592,45.8540955v18.5115738c0,1.390564-1.1251984,2.5048752-2.5157547,2.5048752H24.3927002
					c-1.3905582,0-2.5157547-1.1251984-2.5157547-2.5157547V42.807621
					c7.6426277,9.6271362,21.0910797,16.0170708,36.4079475,16.0170708
					C71.9243317,58.8246918,84.0778503,53.7615662,91.964592,45.8540955z" class="colordddddd svgShape"></path></g></g><g fill="#0a0a0a" class="color000000 svgShape"><g fill="#0a0a0a" class="color000000 svgShape"><path fill="#002626" d="M72.2853165,100.3164902H41.5562172c-2.9189796,0-4.9781265-2.8764801-4.0439148-5.6358261
					l2.4942436-5.2756195c0.594471-1.7300339,2.2185173-2.897728,4.0441742-2.897728h25.7400894
					c1.8256607,0,3.449707,1.1676941,4.0441818,2.897728l2.4944992,5.2756195
					C77.263443,97.4400101,75.2042999,100.3164902,72.2853165,100.3164902z" class="color5b5476 svgShape"></path></g></g><g fill="#0a0a0a" class="color000000 svgShape"><g fill="#0a0a0a" class="color000000 svgShape"><path fill="#008080" d="M72.2853165,100.3164902H41.5562172c-2.9189796,0-4.9781265-2.8764801-4.0439148-5.6358261
					l2.4942436-5.2756195c0.594471-1.7300339,2.2185173-2.897728,4.0441742-2.897728h0.2016144
					c-0.7642097,0.9023285-1.1780624,1.867897-1.1780624,2.8764801c0,4.6598969,8.8310547,8.4490738,19.7321358,8.4490738
					c5.3178596,0,10.158123-0.9023361,13.7034492-2.3773727C76.8705826,97.9500046,74.9283142,100.3164902,72.2853165,100.3164902z" class="color3f3b5b svgShape"></path></g></g><g fill="#0a0a0a" class="color000000 svgShape"><g fill="#0a0a0a" class="color000000 svgShape"><path fill="#0a0a0a" d="M89.4484863,78.7658081H24.3933105c-5.4873047,0-9.9511719-4.4641113-9.9511719-9.951416V16.6522789
					c0-5.4807129,4.4638672-9.9394531,9.9511719-9.9394531h65.0551758c5.4873047,0,9.9511719,4.4641113,9.9511719,9.951416
					V68.826355C99.3996582,74.3070679,94.935791,78.7658081,89.4484863,78.7658081z M24.3933105,8.2128258
					c-4.6601563,0-8.4511719,3.7858887-8.4511719,8.4394531v52.1621132c0,4.6601563,3.7910156,8.451416,8.4511719,8.451416
					h65.0551758c4.6601563,0,8.4511719-3.7858887,8.4511719-8.4394531V16.6642418
					c0-4.6601563-3.7910156-8.451416-8.4511719-8.451416H24.3933105z" class="color0f0f0f svgShape"></path></g></g><g fill="#0a0a0a" class="color000000 svgShape"><g fill="#0a0a0a" class="color000000 svgShape"><path fill="#0a0a0a" d="M89.4484863,67.6259155H24.3928223c-1.8012695,0-3.2666016-1.4658203-3.2666016-3.2675781V16.6522789
					c0-1.7949219,1.465332-3.2553711,3.2666016-3.2553711h65.0556641c1.8012695,0,3.2666016,1.4655762,3.2666016,3.2670898
					v47.7063026C92.7150879,66.1654663,91.2497559,67.6259155,89.4484863,67.6259155z M24.3928223,14.8969078
					c-0.9741211,0-1.7666016,0.7873535-1.7666016,1.7553711v47.7060585c0,0.9746094,0.7924805,1.7675781,1.7666016,1.7675781
					h65.0556641c0.9741211,0,1.7666016-0.7875977,1.7666016-1.7556152V16.6639977
					c0-0.9743652-0.7924805-1.7670898-1.7666016-1.7670898H24.3928223z" class="color0f0f0f svgShape"></path></g></g><g fill="#0a0a0a" class="color000000 svgShape"><g fill="#0a0a0a" class="color000000 svgShape"><path fill="#0a0a0a" d="M72.2854004,101.0665894H41.5563965c-1.6352539,0-3.1210938-0.763916-4.0761719-2.0959473
					c-0.9550781-1.331543-1.2021484-2.9829102-0.6782227-4.5305176l2.5263672-5.3557129
					c0.668457-1.9592285,2.5786133-3.3271484,4.722168-3.3271484h25.7402344c2.1435547,0,4.0537109,1.3679199,4.7539063,3.4038086
					l2.4628906,5.1989746c0.5561523,1.6279297,0.3085938,3.279541-0.6464844,4.611084
					C75.4060059,100.3029175,73.9206543,101.0665894,72.2854004,101.0665894z M44.0505371,87.2572632
					c-1.503418,0-2.8432617,0.9609375-3.3344727,2.3913574l-2.5253906,5.3525391
					c-0.3349609,1.0041504-0.1616211,2.161377,0.5083008,3.095459s1.7114258,1.4699707,2.8574219,1.4699707h30.7290039
					c1.1455078,0,2.1870117-0.5356445,2.8569336-1.4697266c0.6699219-0.9338379,0.84375-2.0915527,0.4765625-3.1757813
					l-2.4619141-5.1955566c-0.5229492-1.5070801-1.8632813-2.4682617-3.3662109-2.4682617H44.0505371z" class="color0f0f0f svgShape"></path></g></g><g fill="#0a0a0a" class="color000000 svgShape"><g fill="#0a0a0a" class="color000000 svgShape"><g fill="#0a0a0a" class="color000000 svgShape"><circle cx="86.766" cy="72.585" r="1.949" fill="#002626" class="colorff84a0 svgShape"></circle></g><g fill="#0a0a0a" class="color000000 svgShape"><path fill="#0a0a0a" d="M86.7663574,75.2846069c-1.4882813,0-2.6992188-1.2109375-2.6992188-2.6994629
						s1.2109375-2.699707,2.6992188-2.699707c1.4887695,0,2.699707,1.2111816,2.699707,2.699707
						S88.255127,75.2846069,86.7663574,75.2846069z M86.7663574,71.385437c-0.6611328,0-1.1992188,0.5380859-1.1992188,1.199707
						c0,0.661377,0.5380859,1.1994629,1.1992188,1.1994629c0.6616211,0,1.199707-0.5380859,1.199707-1.1994629
						C87.9660645,71.9235229,87.4279785,71.385437,86.7663574,71.385437z" class="color0f0f0f svgShape"></path></g></g><g fill="#0a0a0a" class="color000000 svgShape"><g fill="#0a0a0a" class="color000000 svgShape"><circle cx="78.574" cy="72.585" r="1.949" fill="#008080" class="color5b5476 svgShape"></circle></g><g fill="#0a0a0a" class="color000000 svgShape"><path fill="#0a0a0a" d="M78.5744629,75.2846069c-1.4887695,0-2.699707-1.2109375-2.699707-2.6994629
						s1.2109375-2.699707,2.699707-2.699707c1.4882813,0,2.6992188,1.2111816,2.6992188,2.699707
						S80.0627441,75.2846069,78.5744629,75.2846069z M78.5744629,71.385437c-0.6616211,0-1.199707,0.5380859-1.199707,1.199707
						c0,0.661377,0.5380859,1.1994629,1.199707,1.1994629c0.6611328,0,1.1992188-0.5380859,1.1992188-1.1994629
						C79.7736816,71.9235229,79.2355957,71.385437,78.5744629,71.385437z" class="color0f0f0f svgShape"></path></g></g><g fill="#0a0a0a" class="color000000 svgShape"><g fill="#0a0a0a" class="color000000 svgShape"><g fill="#0a0a0a" class="color000000 svgShape"><circle cx="70.382" cy="72.585" r="1.949" fill="#66b2b2" class="colorffd9b0 svgShape"></circle></g></g><g fill="#0a0a0a" class="color000000 svgShape"><g fill="#0a0a0a" class="color000000 svgShape"><path fill="#0a0a0a" d="M70.3820801,75.2846069c-1.4882813,0-2.6992188-1.2109375-2.6992188-2.6994629
							s1.2109375-2.699707,2.6992188-2.699707c1.4887695,0,2.699707,1.2111816,2.699707,2.699707
							S71.8708496,75.2846069,70.3820801,75.2846069z M70.3820801,71.385437c-0.6611328,0-1.1992188,0.5380859-1.1992188,1.199707
							c0,0.661377,0.5380859,1.1994629,1.1992188,1.1994629c0.6616211,0,1.199707-0.5380859,1.199707-1.1994629
							C71.5817871,71.9235229,71.0437012,71.385437,70.3820801,71.385437z" class="color0f0f0f svgShape"></path></g></g></g></g><g fill="#0a0a0a" class="color000000 svgShape"><g fill="#0a0a0a" class="color000000 svgShape"><path fill="#cce5e5" d="M61.5371704,94.4722595h-9.2328072c-1.1631622,0-2.1060944-0.9429321-2.1060944-2.1060944V78.0157394
					h13.4449959v14.3504257C63.6432648,93.5293274,62.7003365,94.4722595,61.5371704,94.4722595z" class="colorffffff svgShape"></path></g></g><g fill="#0a0a0a" class="color000000 svgShape"><g fill="#0a0a0a" class="color000000 svgShape"><path fill="#e6e6e6" d="M63.6449928,78.0157394v2.4732513h-0.0000114c-5.6217613,0-10.1791,4.5573425-10.1791,10.1791v3.8000793
					h-1.0298309c-1.2368469,0-2.2395096-1.0026627-2.2395096-2.2395096V78.0157394H63.6449928z" class="colordddddd svgShape"></path></g></g><g fill="#0a0a0a" class="color000000 svgShape"><g fill="#0a0a0a" class="color000000 svgShape"><path fill="#0a0a0a" d="M61.5373535,95.2223511h-9.2329102c-1.574707,0-2.855957-1.28125-2.855957-2.8562012V78.0158081
					c0-0.4143066,0.3359375-0.75,0.75-0.75h13.4448242c0.4140625,0,0.75,0.3356934,0.75,0.75v14.3503418
					C64.3933105,93.9411011,63.1120605,95.2223511,61.5373535,95.2223511z M50.9484863,78.7658081v13.6003418
					c0,0.7478027,0.6083984,1.3562012,1.355957,1.3562012h9.2329102c0.7475586,0,1.355957-0.6083984,1.355957-1.3562012V78.7658081
					H50.9484863z" class="color0f0f0f svgShape"></path></g></g></g><g fill="#0a0a0a" class="color000000 svgShape"><g fill="#0a0a0a" class="color000000 svgShape"><path fill="#0a0a0a" d="M10.1525879,45.1596031c-0.4140625,0-0.75-0.3356934-0.75-0.75V25.8908043
				c0-0.4143066,0.3359375-0.75,0.75-0.75s0.75,0.3356934,0.75,0.75v18.5187988
				C10.9025879,44.8239098,10.5666504,45.1596031,10.1525879,45.1596031z" class="color0f0f0f svgShape"></path></g></g><g fill="#0a0a0a" class="color000000 svgShape"><g fill="#0a0a0a" class="color000000 svgShape"><path fill="#0a0a0a" d="M10.1525879,23.0370445c-0.4140625,0-0.75-0.3356934-0.75-0.75v-1.0913086
				c0-0.4143066,0.3359375-0.75,0.75-0.75s0.75,0.3356934,0.75,0.75v1.0913086
				C10.9025879,22.7013512,10.5666504,23.0370445,10.1525879,23.0370445z" class="color0f0f0f svgShape"></path></g></g><g fill="#0a0a0a" class="color000000 svgShape"><g fill="#0a0a0a" class="color000000 svgShape"><path fill="#0a0a0a" d="M87.7023926,83.0458374h-8.7670898c-0.4140625,0-0.75-0.3356934-0.75-0.75s0.3359375-0.75,0.75-0.75
				h8.7670898c0.4140625,0,0.75,0.3356934,0.75,0.75S88.1164551,83.0458374,87.7023926,83.0458374z" class="color0f0f0f svgShape"></path></g></g><g fill="#0a0a0a" class="color000000 svgShape"><g fill="#0a0a0a" class="color000000 svgShape"><path fill="#0a0a0a" d="M76.1130371,83.0458374h-0.5493164c-0.4140625,0-0.75-0.3356934-0.75-0.75s0.3359375-0.75,0.75-0.75
				h0.5493164c0.4140625,0,0.75,0.3356934,0.75,0.75S76.5270996,83.0458374,76.1130371,83.0458374z" class="color0f0f0f svgShape"></path></g></g><g fill="#0a0a0a" class="color000000 svgShape"><g fill="#0a0a0a" class="color000000 svgShape"><g fill="#0a0a0a" class="color000000 svgShape"><path fill="#cce5e5" d="M99.8691864,85.9441528c0,1.8924866-1.5307541,3.4232407-3.416748,3.4232407
					c-1.8923874,0-3.4231415-1.5307541-3.4231415-3.4232407c0-1.8858948,1.5307541-3.4166489,3.4231415-3.4166489
					C98.3384323,82.527504,99.8691864,84.0582581,99.8691864,85.9441528z" class="colorc3c9fb svgShape"></path></g></g><g fill="#0a0a0a" class="color000000 svgShape"><g fill="#0a0a0a" class="color000000 svgShape"><path fill="#66b2b2" d="M99.8694916,85.9430313c0,1.8898544-1.5344086,3.4243622-3.416214,3.4243622
					c-1.4780197,0-2.7459641-0.9449768-3.2224655-2.2613297c0.5168839,0.3149643,1.1306686,0.5006485,1.7848358,0.5006485
					c1.8898468,0,3.4243851-1.5345078,3.4243851-3.4243622c0-0.3957214-0.0645599-0.7833328-0.1938095-1.1387787
					C99.2153244,83.6413193,99.8694916,84.7153702,99.8694916,85.9430313z" class="color8693e2 svgShape"></path></g></g><g fill="#0a0a0a" class="color000000 svgShape"><g fill="#0a0a0a" class="color000000 svgShape"><path fill="#0a0a0a" d="M96.4523926,90.1173706c-2.3007813,0-4.1728516-1.8720703-4.1728516-4.1730957
					c0-2.2976074,1.8720703-4.166748,4.1728516-4.166748c2.2978516,0,4.1669922,1.8691406,4.1669922,4.166748
					C100.6193848,88.2453003,98.7502441,90.1173706,96.4523926,90.1173706z M96.4523926,83.2775269
					c-1.4736328,0-2.6728516,1.1962891-2.6728516,2.666748c0,1.473877,1.1992188,2.6730957,2.6728516,2.6730957
					c1.4707031,0,2.6669922-1.1992188,2.6669922-2.6730957C99.1193848,84.4738159,97.9230957,83.2775269,96.4523926,83.2775269z" class="color0f0f0f svgShape"></path></g></g></g><g fill="#0a0a0a" class="color000000 svgShape"><g fill="#0a0a0a" class="color000000 svgShape"><g fill="#0a0a0a" class="color000000 svgShape"><path fill="#cce5e5" d="M14.6037865,9.3527689c-2.1770639,0.4483976-3.8894415,2.1662054-4.3378401,4.3432684
					c-0.0270348,0.1296339-0.1998787,0.1296339-0.2269135,0c-0.2213736-1.0912457-0.7616234-2.0636063-1.5233574-2.819911
					C7.7647996,10.1199322,6.792439,9.5743637,5.7013035,9.3527689c-0.1296334-0.0269241-0.1296334-0.1998796,0-0.2268028
					C6.792439,8.9044809,7.7647996,8.3589134,8.5211048,7.6026082s1.2965546-1.7286654,1.5179281-2.8198009
					c0.0270348-0.1296334,0.1998787-0.1296334,0.2269135,0c0.2214851,1.0911355,0.761734,2.0634961,1.5179281,2.8198009
					c0.7563047,0.7563052,1.7286654,1.3018727,2.819912,1.5233579C14.7334194,9.1528893,14.7334194,9.3258448,14.6037865,9.3527689z
					" class="colorff84a0 svgShape"></path></g></g><g fill="#0a0a0a" class="color000000 svgShape"><g fill="#0a0a0a" class="color000000 svgShape"><path fill="#dab600" d="M14.6060028,9.3499985c-2.1816063,0.4480658-3.8929873,2.1668701-4.3411646,4.3483658
					c-0.0293608,0.1248693-0.1982164,0.1248693-0.2276888,0c-0.2129536-1.0429382-0.7051163-1.9758549-1.4102335-2.7103329
					c1.689333-0.3085718,2.9748077-1.7482767,3.0482664-3.5110674c0.0293617,0.0440974,0.0734587,0.0880842,0.1101332,0.1248689
					c0.7566366,0.7565265,1.7262278,1.3000998,2.8206873,1.5204768C14.7307606,9.1516705,14.7307606,9.3279495,14.6060028,9.3499985
					z" class="colorf76189 svgShape"></path></g></g><g fill="#0a0a0a" class="color000000 svgShape"><g fill="#0a0a0a" class="color000000 svgShape"><path fill="#0a0a0a" d="M10.1525879,14.543148c-0.4130859,0-0.7617188-0.2844238-0.8476563-0.6923828
					c-0.1884766-0.9309082-0.644043-1.7734375-1.3173828-2.4423828c-0.6738281-0.6782227-1.5146484-1.1335449-2.4355469-1.3208008
					C5.1403809,10.0026207,4.854248,9.654232,4.854248,9.2401695C4.8537598,8.826107,5.138916,8.4769859,5.5480957,8.3917809
					c0.9233398-0.1875,1.7666016-0.6435547,2.4428711-1.3195801c0.6713867-0.6713867,1.1254883-1.5146484,1.3129883-2.4382324
					C9.3908691,4.22015,9.739502,3.9357262,10.1525879,3.9357262c0.3901367-0.0327148,0.7631836,0.2858887,0.8476563,0.6950684
					c0.1884766,0.9267578,0.6425781,1.7700195,1.3139648,2.4416504c0.6762695,0.6760254,1.5195313,1.1320801,2.4384766,1.3183594
					c0.4135742,0.0861816,0.6987305,0.4353027,0.6982422,0.8493652c0,0.4140625-0.2861328,0.7624512-0.6953125,0.8469238
					c0,0.0002441-0.0004883,0.0002441-0.0004883,0.0002441c-1.890625,0.3894043-3.3647461,1.8652344-3.7548828,3.7600098
					c-0.0844727,0.4091797-0.4326172,0.6950684-0.8461914,0.6958008
					C10.1535645,14.543148,10.1530762,14.543148,10.1525879,14.543148z M7.567627,9.2394371
					C8.107666,9.530941,8.6066895,9.9030113,9.0480957,10.3475914c0.4423828,0.4394531,0.8134766,0.9375,1.1044922,1.4787598
					c0.5883789-1.0979004,1.487793-1.9985352,2.5844727-2.5869141c-0.5395508-0.2910156-1.0395508-0.6623535-1.4833984-1.1062012
					c-0.4414063-0.4414063-0.8110352-0.939209-1.1010742-1.479248c-0.2900391,0.5393066-0.659668,1.0375977-1.1010742,1.4790039
					C8.607666,8.5768394,8.1081543,8.9484215,7.567627,9.2394371z M14.6037598,9.3527184h0.0097656H14.6037598z" class="color0f0f0f svgShape"></path></g></g></g><g fill="#0a0a0a" class="color000000 svgShape"><g fill="#0a0a0a" class="color000000 svgShape"><g fill="#0a0a0a" class="color000000 svgShape"><g fill="#0a0a0a" class="color000000 svgShape"><path fill="#cce5e5" d="M48.0230675,98.21521L7.2320938,57.4245605c-0.7706299-0.770874-2.0930891-0.2272377-2.0930891,0.8679008
						l-0.008194,40.7908897c0,0.6815567,0.5517483,1.233139,1.2332187,1.233139h40.7908936
						C48.2502251,100.3164902,48.8018112,98.994194,48.0230675,98.21521z M28.3901386,92.2849503h-14.254097
						c-0.5354414,0-0.9734488-0.4380875-0.9734488-0.9734497V77.0573273c0-0.8599548,1.046463-1.2981186,1.6630316-0.6815491
						l14.254097,14.2460632C29.6881771,91.2384109,29.2581215,92.2849503,28.3901386,92.2849503z" class="colordabcbc svgShape"></path></g></g></g><g fill="#0a0a0a" class="color000000 svgShape"><g fill="#0a0a0a" class="color000000 svgShape"><g fill="#0a0a0a" class="color000000 svgShape"><path fill="#848484" d="M48.0230675,98.21521l-4.697361-4.6971207
						c-3.4153862,1.7848053-7.3014717,2.7988968-11.4228306,2.7988968c-4.9892578,0-9.6296673-1.4766006-13.5157547-4.0320358
						h-4.2510796c-0.5354414,0-0.9734488-0.4380875-0.9734488-0.9734497v-3.6020584
						c-3.7157192-4.3240891-5.9629502-9.9381104-5.9629502-16.0875778c0-4.1213531,1.0140929-8.0074425,2.8070102-11.4228249
						l-2.774559-2.7744789c-0.7706299-0.770874-2.0930891-0.2272377-2.0930891,0.8679008l-0.008194,40.7908897
						c0,0.6815567,0.5517483,1.233139,1.2332187,1.233139h40.7908936
						C48.2502251,100.3164902,48.8018112,98.994194,48.0230675,98.21521z" class="colorbc9595 svgShape"></path></g></g></g><g fill="#0a0a0a" class="color000000 svgShape"><g fill="#0a0a0a" class="color000000 svgShape"><path fill="#0a0a0a" d="M47.1550293,101.0665894H6.3640137c-1.09375,0-1.9833984-0.8896484-1.9833984-1.9831543
					L4.388916,58.2921715c0-0.8146973,0.4672852-1.5144043,1.2197266-1.8259277
					c0.7421875-0.3081055,1.5874023-0.1391602,2.1538086,0.4279785l40.7910156,40.7907753
					c0.5786133,0.5783691,0.7436523,1.4057617,0.4316406,2.1594238
					C48.6774902,100.586853,47.9592285,101.0665894,47.1550293,101.0665894z M6.3752441,57.8129234
					c-0.0825195,0-0.1523438,0.0224609-0.1928711,0.0390625c-0.0878906,0.0366211-0.293457,0.152832-0.293457,0.4404297
					L5.8806152,99.0836792c0,0.2661133,0.2167969,0.4829102,0.4833984,0.4829102h40.7910156
					c0.2900391,0,0.4072266-0.2070313,0.4443359-0.2961426c0.0366211-0.0888672,0.1000977-0.3183594-0.1064453-0.5249023
					L6.7019043,57.9547691C6.5915527,57.8446617,6.473877,57.8129234,6.3752441,57.8129234z M28.3903809,93.0348511H14.1359863
					c-0.9501953,0-1.7236328-0.7731934-1.7236328-1.7233887V77.057312c0-0.6967773,0.4169922-1.3198242,1.0629883-1.5871582
					c0.6455078-0.2675781,1.3847656-0.1213379,1.8803711,0.3752441l14.2543945,14.2458496
					c0.4951172,0.5021973,0.6386719,1.2412109,0.3686523,1.8867188
					C29.7062988,92.6298218,29.0974121,93.0348511,28.3903809,93.0348511z M14.1408691,76.836853
					c-0.0341797,0-0.0654297,0.0083008-0.0917969,0.0192871c-0.0625,0.0258789-0.1367188,0.081543-0.1367188,0.2011719v14.2541504
					c0,0.1210938,0.1025391,0.2233887,0.2236328,0.2233887h14.2543945c0.1220703,0,0.1787109-0.0737305,0.2045898-0.1357422
					c0.0219727-0.0527344,0.0449219-0.1552734-0.0488281-0.2507324L14.295166,76.906189
					C14.2429199,76.8539429,14.189209,76.836853,14.1408691,76.836853z" class="color0f0f0f svgShape"></path></g></g><g fill="#0a0a0a" class="color000000 svgShape"><g fill="#0a0a0a" class="color000000 svgShape"><g fill="#0a0a0a" class="color000000 svgShape"><path fill="#0a0a0a" d="M11.8947754,101.0648804c-0.4140625,0-0.75-0.3356934-0.75-0.75v-3.1599121
						c0-0.4143066,0.3359375-0.75,0.75-0.75s0.75,0.3356934,0.75,0.75v3.1599121
						C12.6447754,100.729187,12.3088379,101.0648804,11.8947754,101.0648804z" class="color0f0f0f svgShape"></path></g></g><g fill="#0a0a0a" class="color000000 svgShape"><g fill="#0a0a0a" class="color000000 svgShape"><path fill="#0a0a0a" d="M18.1877441,101.0648804c-0.4140625,0-0.75-0.3356934-0.75-0.75v-1.8227539
						c0-0.4143066,0.3359375-0.75,0.75-0.75s0.75,0.3356934,0.75,0.75v1.8227539
						C18.9377441,100.729187,18.6018066,101.0648804,18.1877441,101.0648804z" class="color0f0f0f svgShape"></path></g></g><g fill="#0a0a0a" class="color000000 svgShape"><g fill="#0a0a0a" class="color000000 svgShape"><path fill="#0a0a0a" d="M24.4802246,101.0648804c-0.4140625,0-0.75-0.3356934-0.75-0.75v-3.1599121
						c0-0.4143066,0.3359375-0.75,0.75-0.75s0.75,0.3356934,0.75,0.75v3.1599121
						C25.2302246,100.729187,24.8942871,101.0648804,24.4802246,101.0648804z" class="color0f0f0f svgShape"></path></g></g><g fill="#0a0a0a" class="color000000 svgShape"><g fill="#0a0a0a" class="color000000 svgShape"><path fill="#0a0a0a" d="M30.7727051,101.0648804c-0.4140625,0-0.75-0.3356934-0.75-0.75v-1.8227539
						c0-0.4143066,0.3359375-0.75,0.75-0.75s0.75,0.3356934,0.75,0.75v1.8227539
						C31.5227051,100.729187,31.1867676,101.0648804,30.7727051,101.0648804z" class="color0f0f0f svgShape"></path></g></g><g fill="#0a0a0a" class="color000000 svgShape"><g fill="#0a0a0a" class="color000000 svgShape"><path fill="#0a0a0a" d="M37.0651855,101.0648804c-0.4140625,0-0.75-0.3356934-0.75-0.75v-3.1599121
						c0-0.4143066,0.3359375-0.75,0.75-0.75s0.75,0.3356934,0.75,0.75v3.1599121
						C37.8151855,100.729187,37.479248,101.0648804,37.0651855,101.0648804z" class="color0f0f0f svgShape"></path></g></g><g fill="#0a0a0a" class="color000000 svgShape"><g fill="#0a0a0a" class="color000000 svgShape"><path fill="#0a0a0a" d="M43.3581543,101.0648804c-0.4140625,0-0.75-0.3356934-0.75-0.75v-1.8227539
						c0-0.4143066,0.3359375-0.75,0.75-0.75s0.75,0.3356934,0.75,0.75v1.8227539
						C44.1081543,100.729187,43.7722168,101.0648804,43.3581543,101.0648804z" class="color0f0f0f svgShape"></path></g></g></g><g fill="#0a0a0a" class="color000000 svgShape"><g fill="#0a0a0a" class="color000000 svgShape"><g fill="#0a0a0a" class="color000000 svgShape"><path fill="#0a0a0a" d="M8.291748,62.8407555H5.1315918c-0.4140625,0-0.75-0.3356934-0.75-0.75s0.3359375-0.75,0.75-0.75H8.291748
						c0.4140625,0,0.75,0.3356934,0.75,0.75S8.7058105,62.8407555,8.291748,62.8407555z" class="color0f0f0f svgShape"></path></g></g><g fill="#0a0a0a" class="color000000 svgShape"><g fill="#0a0a0a" class="color000000 svgShape"><path fill="#0a0a0a" d="M6.9543457,69.1334839H5.1315918c-0.4140625,0-0.75-0.3356934-0.75-0.75s0.3359375-0.75,0.75-0.75
						h1.8227539c0.4140625,0,0.75,0.3356934,0.75,0.75S7.3684082,69.1334839,6.9543457,69.1334839z" class="color0f0f0f svgShape"></path></g></g><g fill="#0a0a0a" class="color000000 svgShape"><g fill="#0a0a0a" class="color000000 svgShape"><path fill="#0a0a0a" d="M8.291748,75.4262085H5.1315918c-0.4140625,0-0.75-0.3356934-0.75-0.75s0.3359375-0.75,0.75-0.75H8.291748
						c0.4140625,0,0.75,0.3356934,0.75,0.75S8.7058105,75.4262085,8.291748,75.4262085z" class="color0f0f0f svgShape"></path></g></g><g fill="#0a0a0a" class="color000000 svgShape"><g fill="#0a0a0a" class="color000000 svgShape"><path fill="#0a0a0a" d="M6.9543457,81.718689H5.1315918c-0.4140625,0-0.75-0.3356934-0.75-0.75s0.3359375-0.75,0.75-0.75
						h1.8227539c0.4140625,0,0.75,0.3356934,0.75,0.75S7.3684082,81.718689,6.9543457,81.718689z" class="color0f0f0f svgShape"></path></g></g><g fill="#0a0a0a" class="color000000 svgShape"><g fill="#0a0a0a" class="color000000 svgShape"><path fill="#0a0a0a" d="M8.291748,88.0114136H5.1315918c-0.4140625,0-0.75-0.3356934-0.75-0.75s0.3359375-0.75,0.75-0.75H8.291748
						c0.4140625,0,0.75,0.3356934,0.75,0.75S8.7058105,88.0114136,8.291748,88.0114136z" class="color0f0f0f svgShape"></path></g></g><g fill="#0a0a0a" class="color000000 svgShape"><g fill="#0a0a0a" class="color000000 svgShape"><path fill="#0a0a0a" d="M6.9543457,94.3041382H5.1315918c-0.4140625,0-0.75-0.3356934-0.75-0.75s0.3359375-0.75,0.75-0.75
						h1.8227539c0.4140625,0,0.75,0.3356934,0.75,0.75S7.3684082,94.3041382,6.9543457,94.3041382z" class="color0f0f0f svgShape"></path></g></g></g></g><g fill="#0a0a0a" class="color000000 svgShape"><g fill="#0a0a0a" class="color000000 svgShape"><path fill="#f9f3d8" d="M40.2367859,21.663393v28.6298809c0,1.3901367-1.1298828,2.5200195-2.5200195,2.5200195h-8.3198242
				c-1.3901367,0-2.5200195-1.1298828-2.5200195-2.5200195V21.663393c0-1.3901367,1.1298828-2.5200195,2.5200195-2.5200195
				h8.3198242C39.1069031,19.1433735,40.2367859,20.2732563,40.2367859,21.663393z" class="colore8fafc svgShape"></path></g></g><g fill="#0a0a0a" class="color000000 svgShape"><g fill="#0a0a0a" class="color000000 svgShape"><path fill="#abefef" d="M40.2367859,21.663393v28.6298809c0,1.3901367-1.1298828,2.5200195-2.5200195,2.5200195h-8.3198242
				c-1.3901367,0-2.5200195-1.1298828-2.5200195-2.5200195v-3.5898438c1.0498047,2.3100586,2.369873,3.6899414,3.8198242,3.6899414
				c3.4301758,0,6.2099609-7.8100586,6.2099609-17.4599609c0-5.6103497-0.9399414-10.6000957-2.3999023-13.7900372h3.2099609
				C39.1069031,19.1433735,40.2367859,20.2732563,40.2367859,21.663393z" class="colorabecef svgShape"></path></g></g><g fill="#0a0a0a" class="color000000 svgShape"><g fill="#0a0a0a" class="color000000 svgShape"><path fill="#0a0a0a" d="M37.7165527,53.5634117h-8.3198242c-1.8032227,0-3.2700195-1.467041-3.2700195-3.2700195V21.6635094
				c0-1.8029785,1.4667969-3.2700195,3.2700195-3.2700195h8.3198242c1.8032227,0,3.2700195,1.467041,3.2700195,3.2700195v28.6298828
				C40.9865723,52.0963707,39.5197754,53.5634117,37.7165527,53.5634117z M29.3967285,19.8934898
				c-0.9760742,0-1.7700195,0.7939453-1.7700195,1.7700195v28.6298828c0,0.9760742,0.7939453,1.7700195,1.7700195,1.7700195
				h8.3198242c0.9760742,0,1.7700195-0.7939453,1.7700195-1.7700195V21.6635094
				c0-0.9760742-0.7939453-1.7700195-1.7700195-1.7700195H29.3967285z" class="color0f0f0f svgShape"></path></g></g><g fill="#0a0a0a" class="color000000 svgShape"><g fill="#0a0a0a" class="color000000 svgShape"><g fill="#0a0a0a" class="color000000 svgShape"><rect width="6.704" height="6.301" x="30.205" y="29.677" fill="#cce5e5" class="colorffd9b0 svgShape"></rect></g></g><g fill="#0a0a0a" class="color000000 svgShape"><g fill="#0a0a0a" class="color000000 svgShape"><rect width="6.704" height="6.301" x="30.205" y="35.978" fill="#66b2b2" class="colorc3c9fb svgShape"></rect></g></g><g fill="#0a0a0a" class="color000000 svgShape"><g fill="#0a0a0a" class="color000000 svgShape"><path fill="#008080" d="M36.9067078,24.4631977v5.2099609h-6.6999512v-5.2099609
					c0-0.6000977,0.4799805-1.0898438,1.0800781-1.0898438h4.5400391
					C36.4267273,23.373354,36.9067078,23.8631001,36.9067078,24.4631977z" class="colorff84a0 svgShape"></path></g></g><g fill="#0a0a0a" class="color000000 svgShape"><g fill="#0a0a0a" class="color000000 svgShape"><path fill="#cce5e5" d="M30.2067566,42.28302h6.6999512v5.2104492c0,0.6000977-0.4799805,1.0898438-1.079834,1.0898438h-4.5400391
					c-0.6000977,0-1.0800781-0.4897461-1.0800781-1.0898438V42.28302z" class="colorabecef svgShape"></path></g></g></g><g fill="#0a0a0a" class="color000000 svgShape"><g fill="#0a0a0a" class="color000000 svgShape"><g fill="#0a0a0a" class="color000000 svgShape"><path fill="#0a0a0a" d="M36.9089355,36.7284508H30.204834c-0.4140625,0-0.75-0.3356934-0.75-0.75v-6.3012695
					c0-0.4143066,0.3359375-0.75,0.75-0.75h6.7041016c0.4140625,0,0.75,0.3356934,0.75,0.75v6.3012695
					C37.6589355,36.3927574,37.322998,36.7284508,36.9089355,36.7284508z M30.954834,35.2284508h5.2041016v-4.8012695H30.954834
					V35.2284508z" class="color0f0f0f svgShape"></path></g></g><g fill="#0a0a0a" class="color000000 svgShape"><g fill="#0a0a0a" class="color000000 svgShape"><path fill="#0a0a0a" d="M36.9089355,43.0297203H30.204834c-0.4140625,0-0.75-0.3356934-0.75-0.75v-6.3012695
					c0-0.4143066,0.3359375-0.75,0.75-0.75h6.7041016c0.4140625,0,0.75,0.3356934,0.75,0.75v6.3012695
					C37.6589355,42.6940269,37.322998,43.0297203,36.9089355,43.0297203z M30.954834,41.5297203h5.2041016v-4.8012695H30.954834
					V41.5297203z" class="color0f0f0f svgShape"></path></g></g><g fill="#0a0a0a" class="color000000 svgShape"><g fill="#0a0a0a" class="color000000 svgShape"><path fill="#0a0a0a" d="M36.9064941,30.423275h-6.699707c-0.4140625,0-0.75-0.3356934-0.75-0.75v-5.2099609
					c0-1.0144043,0.8208008-1.8398438,1.8300781-1.8398438h4.5400391c1.0087891,0,1.8295898,0.8254395,1.8295898,1.8398438
					v5.2099609C37.6564941,30.0875816,37.3205566,30.423275,36.9064941,30.423275z M30.9567871,28.923275h5.199707v-4.4599609
					c0-0.1875-0.1479492-0.3398438-0.3295898-0.3398438h-4.5400391c-0.1821289,0-0.3300781,0.1523438-0.3300781,0.3398438V28.923275
					z" class="color0f0f0f svgShape"></path></g></g><g fill="#0a0a0a" class="color000000 svgShape"><g fill="#0a0a0a" class="color000000 svgShape"><path fill="#0a0a0a" d="M35.8269043,49.3334312h-4.5400391c-1.0092773,0-1.8300781-0.8254395-1.8300781-1.8398438v-5.2104492
					c0-0.4143066,0.3359375-0.75,0.75-0.75h6.699707c0.4140625,0,0.75,0.3356934,0.75,0.75v5.2104492
					C37.6564941,48.5079918,36.8356934,49.3334312,35.8269043,49.3334312z M30.9567871,43.0331383v4.4604492
					c0,0.1875,0.1479492,0.3398438,0.3300781,0.3398438h4.5400391c0.1816406,0,0.3295898-0.1523438,0.3295898-0.3398438v-4.4604492
					H30.9567871z" class="color0f0f0f svgShape"></path></g></g></g><g fill="#0a0a0a" class="color000000 svgShape"><g fill="#0a0a0a" class="color000000 svgShape"><circle cx="65.536" cy="40.565" r="18.116" fill="#66b2b2" class="colorff84a0 svgShape"></circle></g></g><g fill="#0a0a0a" class="color000000 svgShape"><g fill="#0a0a0a" class="color000000 svgShape"><path fill="#dab600" d="M83.6561737,40.5657349c0,10-8.1101074,18.1201172-18.1201172,18.1201172
				c-6.0399132,0-11.3898888-2.9599609-14.6699181-7.5c2.2800293,1.050293,4.8100586,1.6298828,7.4899902,1.6298828
				c9.9999962,0,18.1099815-8.1098633,18.1099815-18.1196289c0-3.9702148-1.2799072-7.6401367-3.4499512-10.6303711
				C79.2960663,26.9060669,83.6561737,33.2258911,83.6561737,40.5657349z" class="colorf76189 svgShape"></path></g></g><g fill="#0a0a0a" class="color000000 svgShape"><g fill="#0a0a0a" class="color000000 svgShape"><path fill="#0a0a0a" d="M65.5358887,59.4313316c-10.402832,0-18.8662109-8.4633789-18.8662109-18.8664551
				c0-10.402832,8.4633789-18.8662109,18.8662109-18.8662109s18.8662109,8.4633789,18.8662109,18.8662109
				C84.4020996,50.9679527,75.9387207,59.4313316,65.5358887,59.4313316z M65.5358887,23.1986656
				c-9.5756836,0-17.3662109,7.7905273-17.3662109,17.3662109c0,9.5759277,7.7905273,17.3664551,17.3662109,17.3664551
				s17.3662109-7.7905273,17.3662109-17.3664551C82.9020996,30.989193,75.1115723,23.1986656,65.5358887,23.1986656z" class="color0f0f0f svgShape"></path></g></g><g fill="#0a0a0a" class="color000000 svgShape"><g fill="#0a0a0a" class="color000000 svgShape"><path fill="#0a0a0a" d="M65.5358887,53.8407555c-7.3203125,0-13.2758789-5.9555664-13.2758789-13.2758789
				s5.9555664-13.2756348,13.2758789-13.2756348s13.2758789,5.9553223,13.2758789,13.2756348
				S72.8562012,53.8407555,65.5358887,53.8407555z M65.5358887,28.7892418c-6.4931641,0-11.7758789,5.2824707-11.7758789,11.7756348
				s5.2827148,11.7758789,11.7758789,11.7758789s11.7758789-5.2827148,11.7758789-11.7758789
				S72.0290527,28.7892418,65.5358887,28.7892418z" class="color0f0f0f svgShape"></path></g></g><g fill="#0a0a0a" class="color000000 svgShape"><g fill="#0a0a0a" class="color000000 svgShape"><g fill="#0a0a0a" class="color000000 svgShape"><path fill="#848484" d="M49.4751472,22.4485722c0,1.2125664-0.9824066,2.1944599-2.1740494,2.1944599
					c-1.2125664,0-2.1949692-0.9818935-2.1949692-2.1944599c0-1.2125683,0.9824028-2.1944618,2.1740456-2.1944618h0.0209236
					C48.4927406,20.2541103,49.4751472,21.2360039,49.4751472,22.4485722z" class="color5b5476 svgShape"></path></g><g fill="#0a0a0a" class="color000000 svgShape"><path fill="#0a0a0a" d="M47.3010254,25.3930016c-1.6240234,0-2.9448242-1.3208008-2.9448242-2.9443359
					s1.3115234-2.9445801,2.9238281-2.9445801c1.6333008,0,2.9453125,1.3210449,2.9453125,2.9445801
					S48.9133301,25.3930016,47.3010254,25.3930016z M47.3010254,21.0040855c-0.8061523,0-1.4448242,0.6479492-1.4448242,1.4445801
					c0,0.7963867,0.6479492,1.4443359,1.4448242,1.4443359c0.7851563,0,1.4243164-0.6479492,1.4243164-1.4443359
					C48.7253418,21.6520348,48.0861816,21.0040855,47.3010254,21.0040855z" class="color0f0f0f svgShape"></path></g></g><g fill="#0a0a0a" class="color000000 svgShape"><g fill="#0a0a0a" class="color000000 svgShape"><path fill="#848484" d="M85.9657974,22.4485722c0,1.2125664-0.9824066,2.1944599-2.1740494,2.1944599
					c-1.2125626,0-2.1949692-0.9818935-2.1949692-2.1944599c0-1.2125683,0.9824066-2.1944618,2.1740494-2.1944618h0.0209198
					C84.9833908,20.2541103,85.9657974,21.2360039,85.9657974,22.4485722z" class="color5b5476 svgShape"></path></g><g fill="#0a0a0a" class="color000000 svgShape"><path fill="#0a0a0a" d="M83.791748,25.3930016c-1.6240234,0-2.9448242-1.3208008-2.9448242-2.9443359
					s1.3115234-2.9445801,2.9238281-2.9445801c1.6333008,0,2.9448242,1.3210449,2.9448242,2.9445801
					S85.4040527,25.3930016,83.791748,25.3930016z M83.791748,21.0040855c-0.8061523,0-1.4448242,0.6479492-1.4448242,1.4445801
					c0,0.7963867,0.6479492,1.4443359,1.4448242,1.4443359c0.7851563,0,1.4238281-0.6479492,1.4238281-1.4443359
					C85.2155762,21.6520348,84.5769043,21.0040855,83.791748,21.0040855z" class="color0f0f0f svgShape"></path></g></g><g fill="#0a0a0a" class="color000000 svgShape"><g fill="#0a0a0a" class="color000000 svgShape"><path fill="#0a0a0a" d="M81.5969238,23.1986656h-32.121582c-0.4140625,0-0.75-0.3356934-0.75-0.75s0.3359375-0.75,0.75-0.75
					h32.121582c0.4140625,0,0.75,0.3356934,0.75,0.75S82.0109863,23.1986656,81.5969238,23.1986656z" class="color0f0f0f svgShape"></path></g></g></g><g fill="#0a0a0a" class="color000000 svgShape"><g fill="#0a0a0a" class="color000000 svgShape"><g fill="#0a0a0a" class="color000000 svgShape"><path fill="#848484" d="M49.4751472,58.6813316c0,1.2125664-0.9824066,2.1944618-2.1740494,2.1944618
					c-1.2125664,0-2.1949692-0.9818954-2.1949692-2.1944618s0.9824028-2.1944618,2.1740456-2.1944618h0.0209236
					C48.4927406,56.4868698,49.4751472,57.4687653,49.4751472,58.6813316z" class="color5b5476 svgShape"></path></g><g fill="#0a0a0a" class="color000000 svgShape"><path fill="#0a0a0a" d="M47.3010254,61.6259117c-1.6240234,0-2.9448242-1.3210449-2.9448242-2.9445801
					s1.3115234-2.9445801,2.9238281-2.9445801c1.6333008,0,2.9453125,1.3210449,2.9453125,2.9445801
					S48.9133301,61.6259117,47.3010254,61.6259117z M47.3010254,57.2367516c-0.8061523,0-1.4448242,0.6479492-1.4448242,1.4445801
					s0.6479492,1.4445801,1.4448242,1.4445801c0.7851563,0,1.4243164-0.6479492,1.4243164-1.4445801
					S48.0861816,57.2367516,47.3010254,57.2367516z" class="color0f0f0f svgShape"></path></g></g><g fill="#0a0a0a" class="color000000 svgShape"><g fill="#0a0a0a" class="color000000 svgShape"><path fill="#848484" d="M85.9657974,58.6813316c0,1.2125664-0.9824066,2.1944618-2.1740494,2.1944618
					c-1.2125626,0-2.1949692-0.9818954-2.1949692-2.1944618s0.9824066-2.1944618,2.1740494-2.1944618h0.0209198
					C84.9833908,56.4868698,85.9657974,57.4687653,85.9657974,58.6813316z" class="color5b5476 svgShape"></path></g><g fill="#0a0a0a" class="color000000 svgShape"><path fill="#0a0a0a" d="M83.791748,61.6259117c-1.6240234,0-2.9448242-1.3210449-2.9448242-2.9445801
					s1.3115234-2.9445801,2.9238281-2.9445801c1.6333008,0,2.9448242,1.3210449,2.9448242,2.9445801
					S85.4040527,61.6259117,83.791748,61.6259117z M83.791748,57.2367516c-0.8061523,0-1.4448242,0.6479492-1.4448242,1.4445801
					s0.6479492,1.4445801,1.4448242,1.4445801c0.7851563,0,1.4238281-0.6479492,1.4238281-1.4445801
					S84.5769043,57.2367516,83.791748,57.2367516z" class="color0f0f0f svgShape"></path></g></g><g fill="#0a0a0a" class="color000000 svgShape"><g fill="#0a0a0a" class="color000000 svgShape"><path fill="#0a0a0a" d="M81.5969238,59.4313316h-32.121582c-0.4140625,0-0.75-0.3356934-0.75-0.75s0.3359375-0.75,0.75-0.75
					h32.121582c0.4140625,0,0.75,0.3356934,0.75,0.75S82.0109863,59.4313316,81.5969238,59.4313316z" class="color0f0f0f svgShape"></path></g></g></g><g fill="#0a0a0a" class="color000000 svgShape"><g fill="#0a0a0a" class="color000000 svgShape"><g fill="#0a0a0a" class="color000000 svgShape"><polygon fill="#0a0a0a" points="57.55 38.212 56.741 38.212 56.741 42.909 59.827 42.909 59.827 42.173 57.55 42.173" class="color0f0f0f svgShape"></polygon></g></g><g fill="#0a0a0a" class="color000000 svgShape"><g fill="#0a0a0a" class="color000000 svgShape"><path fill="#0a0a0a" d="M62.2682381,38.0896606c-0.7900391,0-1.3964844,0.2944336-1.8022461,0.875
					c-0.3125,0.4477539-0.4711914,0.9921875-0.4711914,1.6186523c0,0.6938477,0.1855469,1.2768555,0.5537109,1.7368164
					c0.4140625,0.4780273,0.9887695,0.7207031,1.7075195,0.7207031c0.7700195,0,1.3725586-0.2773438,1.7905235-0.8232422
					c0.3525391-0.4609375,0.5317383-1.0444336,0.5317383-1.7353516c0-0.6396484-0.1572266-1.1738281-0.4667969-1.5869141
					C63.7115974,38.3601685,63.0914803,38.0896606,62.2682381,38.0896606z M63.7535896,40.4915161
					c0,0.4790039-0.1157227,0.9077148-0.3442383,1.2739258c-0.222168,0.3564453-0.5756836,0.5302734-1.0800781,0.5302734
					c-0.5361328,0-0.9111328-0.1542969-1.1455078-0.472168c-0.237793-0.3227539-0.3583984-0.7270508-0.3583984-1.2006836
					c0-0.5932617,0.1391602-1.0458984,0.4145508-1.3447266c0.2763672-0.3007813,0.625-0.4467773,1.0649414-0.4467773
					c0.453125,0,0.7993164,0.1469727,1.0581055,0.4487305C63.622242,39.5823364,63.7535896,39.9900513,63.7535896,40.4915161z" class="color0f0f0f svgShape"></path></g></g><g fill="#0a0a0a" class="color000000 svgShape"><g fill="#0a0a0a" class="color000000 svgShape"><path fill="#0a0a0a" d="M67.0626678,41.0076294h1.4052734c-0.0205078,0.4433594-0.1455078,0.7685547-0.3720703,0.96875
					c-0.2456055,0.2177734-0.5625,0.328125-0.9418945,0.328125c-0.5009766,0-0.8496094-0.1503906-1.065918-0.4609375
					c-0.2216797-0.3164063-0.3339844-0.7363281-0.3339844-1.2480469c0-0.5898438,0.1347656-1.0371094,0.4003906-1.328125
					c0.2675781-0.293457,0.5874023-0.4360352,0.9780273-0.4360352c0.3295898,0,0.6044922,0.0698242,0.8178711,0.2089844
					c0.2094727,0.1362305,0.3447266,0.3505859,0.4130859,0.6557617l0.0175781,0.078125h0.8017578l-0.0200195-0.1171875
					c-0.1049805-0.6171875-0.3989258-1.0561523-0.8725586-1.3046875c-0.3212891-0.1704102-0.7055664-0.2568359-1.1425781-0.2568359
					c-0.6425781,0-1.1743164,0.2255859-1.5795898,0.6689453c-0.4238281,0.4619141-0.6386719,1.0893555-0.6386719,1.8647461
					c0,0.7788086,0.2207031,1.4013672,0.6606445,1.855957c0.4008789,0.3603516,0.8857422,0.5429688,1.4414063,0.5429688
					c0.4277344,0,0.7871094-0.0805664,1.0673828-0.2387695c0.1347656-0.074707,0.2851563-0.1948242,0.4477539-0.3588867
					l0.121582,0.4785156h0.5693359v-2.6064453h-2.1748047V41.0076294z" class="color0f0f0f svgShape"></path></g></g><g fill="#0a0a0a" class="color000000 svgShape"><g fill="#0a0a0a" class="color000000 svgShape"><path fill="#0a0a0a" d="M73.8644257,38.8953247c-0.3999023-0.5351563-1.0200195-0.8056641-1.8432617-0.8056641
					c-0.7905273,0-1.3969727,0.2944336-1.8027344,0.875c-0.3125,0.4482422-0.4711914,0.9931641-0.4711914,1.6186523
					c0,0.6933594,0.1855469,1.2768555,0.5541992,1.7368164c0.4140625,0.4780273,0.9887695,0.7207031,1.7075195,0.7207031
					c0.7700195,0,1.3725586-0.2773438,1.7905273-0.8232422c0.3525391-0.4609375,0.5317383-1.0444336,0.5317383-1.7353516
					C74.3312225,39.8425903,74.173996,39.3084106,73.8644257,38.8953247z M72.0821991,42.2957153
					c-0.5366211,0-0.9116211-0.1542969-1.1455078-0.472168c-0.237793-0.3227539-0.3583984-0.7270508-0.3583984-1.2006836
					c0-0.5932617,0.1391602-1.0458984,0.4145508-1.3447266c0.2763672-0.3007813,0.625-0.4467773,1.0649414-0.4467773
					c0.4526367,0,0.7988281,0.1469727,1.0581055,0.4487305c0.2592773,0.3022461,0.390625,0.7099609,0.390625,1.2114258
					c0,0.4790039-0.1157227,0.9077148-0.3447266,1.2739258C72.939621,42.1218872,72.5865936,42.2957153,72.0821991,42.2957153z" class="color0f0f0f svgShape"></path></g></g></g><g fill="#0a0a0a" class="color000000 svgShape"><g fill="#0a0a0a" class="color000000 svgShape"><path fill="#848484" d="M67.8282394,21.3197002v2.2577419c0,0.5848503-0.4807434,1.0655899-1.0658417,1.0655899h-2.2574921
				c-0.5853577,0-1.0660973-0.4807396-1.0660973-1.0655899v-2.2577419c0-0.5848503,0.4807396-1.0655899,1.0660973-1.0655899
				h2.2574921C67.347496,20.2541103,67.8282394,20.7348499,67.8282394,21.3197002z" class="color5b5476 svgShape"></path></g><g fill="#0a0a0a" class="color000000 svgShape"><path fill="#0a0a0a" d="M66.7624512,25.3930016H64.505127c-1.0014648,0-1.8164063-0.8144531-1.8164063-1.8156738v-2.2575684
				c0-1.0012207,0.8149414-1.8156738,1.8164063-1.8156738h2.2573242c1.0014648,0,1.815918,0.8144531,1.815918,1.8156738v2.2575684
				C68.5783691,24.5785484,67.763916,25.3930016,66.7624512,25.3930016z M64.505127,21.0040855
				c-0.1713867,0-0.3164063,0.1445313-0.3164063,0.3156738v2.2575684c0,0.1711426,0.1450195,0.3156738,0.3164063,0.3156738
				h2.2573242c0.1713867,0,0.315918-0.1445313,0.315918-0.3156738v-2.2575684c0-0.1711426-0.1445313-0.3156738-0.315918-0.3156738
				H64.505127z" class="color0f0f0f svgShape"></path></g></g><g fill="#0a0a0a" class="color000000 svgShape"><g fill="#0a0a0a" class="color000000 svgShape"><path fill="#547676" d="M67.8282394,57.5524597v2.2577438c0,0.5848503-0.4807434,1.0655899-1.0658417,1.0655899h-2.2574921
				c-0.5853577,0-1.0660973-0.4807396-1.0660973-1.0655899v-2.2577438c0-0.5848503,0.4807396-1.0655899,1.0660973-1.0655899
				h2.2574921C67.347496,56.4868698,67.8282394,56.9676094,67.8282394,57.5524597z" class="color5b5476 svgShape"></path></g><g fill="#0a0a0a" class="color000000 svgShape"><path fill="#0a0a0a" d="M66.7624512,61.6259117H64.505127c-1.0014648,0-1.8164063-0.8144531-1.8164063-1.8156738v-2.2578125
				c0-1.0012207,0.8149414-1.8156738,1.8164063-1.8156738h2.2573242c1.0014648,0,1.815918,0.8144531,1.815918,1.8156738v2.2578125
				C68.5783691,60.8114586,67.763916,61.6259117,66.7624512,61.6259117z M64.505127,57.2367516
				c-0.1713867,0-0.3164063,0.1445313-0.3164063,0.3156738v2.2578125c0,0.1711426,0.1450195,0.3156738,0.3164063,0.3156738
				h2.2573242c0.1713867,0,0.315918-0.1445313,0.315918-0.3156738v-2.2578125c0-0.1711426-0.1445313-0.3156738-0.315918-0.3156738
				H64.505127z" class="color0f0f0f svgShape"></path></g></g></g></svg>