<svg xmlns="http://www.w3.org/2000/svg" enable-background="new 0 0 68 68" viewBox="0 0 68 68" id="OnlineNews"><path fill="#008080" d="M65.9306564,60.2019157c0,0.922554-0.3773193,1.7509117-0.9750366,2.3483734
				c-0.5977173,0.6082115-1.4364395,0.9752884-2.348629,0.9752884H5.3824611c-1.8348746,0-3.3132954-1.4887886-3.3132954-3.3236618
				c0-0.9123192,0.3670774-1.7406769,0.9646659-2.3381348c0.608084-0.5979729,1.4259443-0.9752884,2.3486295-0.9752884h57.2245293
				C64.441864,56.8884926,65.9306564,58.3772774,65.9306564,60.2019157z" class="color304056 svgShape"></path><path d="M62.6069336,64.0258789H5.3823242c-2.1025391,0-3.8129883-1.7158203-3.8129883-3.8242188
				c0-1.0195313,0.3945313-1.9755859,1.1108398-2.6914063c0.737793-0.7246094,1.6962891-1.1220703,2.7021484-1.1220703h57.2246094
				c2.1083984,0,3.8237305,1.7109375,3.8237305,3.8134766c0,1.0195313-0.3984375,1.9785156-1.121582,2.7021484
				C64.6098633,63.6157227,63.6235352,64.0258789,62.6069336,64.0258789z M5.3823242,57.3881836
				c-0.7421875,0-1.4516602,0.2958984-1.9980469,0.8320313c-0.5244141,0.5244141-0.8149414,1.2294922-0.8149414,1.9814453
				c0,1.5576172,1.2617188,2.8242188,2.8129883,2.8242188h57.2246094c0.7504883,0,1.4760742-0.3007813,1.9921875-0.8261719
				c0.5371094-0.5371094,0.831543-1.2460938,0.831543-1.9980469c0-1.5517578-1.2666016-2.8134766-2.8237305-2.8134766H5.3823242z" fill="#0a0a0a" class="color000000 svgShape"></path><path fill="#66b2b2" d="M61.5605354,23.4444561v33.4399414H6.4306526V23.4444561
				c0-3.4602051,2.8100586-6.2702637,6.2600098-6.2702637h42.6101074
				C58.7607307,17.1741924,61.5605354,19.984251,61.5605354,23.4444561z" class="color488ff7 svgShape"></path><path d="M61.5605469,57.3842773H6.4306641c-0.2763672,0-0.5-0.2236328-0.5-0.5V23.4448242
				c0-3.7333984,3.0322266-6.7705078,6.7597656-6.7705078h42.6103516c3.7275391,0,6.7597656,3.0371094,6.7597656,6.7705078
				v33.4394531C62.0605469,57.1606445,61.8369141,57.3842773,61.5605469,57.3842773z M6.9306641,56.3842773h54.1298828V23.4448242
				c0-3.1816406-2.5839844-5.7705078-5.7597656-5.7705078H12.6904297c-3.1757813,0-5.7597656,2.5888672-5.7597656,5.7705078
				V56.3842773z" fill="#0a0a0a" class="color000000 svgShape"></path><g fill="#0a0a0a" class="color000000 svgShape"><path fill="#dab600" d="M57.1906624,23.5543194v26.9599628c0,1.1000977-0.9099121,1.9899902-2.0100098,1.9899902H12.8105354
				c-1.1098633,0-2-0.8898926-2-1.9899902V23.5543194c0-1.0998535,0.8901367-2,2-2h42.3701172
				C56.2807503,21.5543194,57.1906624,22.4544659,57.1906624,23.5543194z" class="colorffffff svgShape"></path><path d="M55.1806641,53.0043945H12.8105469c-1.378418,0-2.5-1.1171875-2.5-2.4902344V23.5541992
				c0-1.3789063,1.121582-2.5,2.5-2.5h42.3701172c1.3837891,0,2.5097656,1.1210938,2.5097656,2.5v26.9599609
				C57.6904297,51.887207,56.5644531,53.0043945,55.1806641,53.0043945z M12.8105469,22.0541992c-0.8271484,0-1.5,0.6728516-1.5,1.5
				v26.9599609c0,0.8212891,0.6728516,1.4902344,1.5,1.4902344h42.3701172c0.8325195,0,1.5097656-0.6689453,1.5097656-1.4902344
				V23.5541992c0-0.8271484-0.6772461-1.5-1.5097656-1.5H12.8105469z" fill="#0a0a0a" class="color000000 svgShape"></path></g><g fill="#0a0a0a" class="color000000 svgShape"><path fill="#e6e6e6" d="M51.9306526,7.234252v38.9001465c0,1.5100098-1.2299805,2.75-2.75,2.75H18.8207893
			c-1.5200195,0-2.75-1.2399902-2.75-2.75V7.234252c0-1.5200195,1.2299805-2.7597656,2.75-2.7597656h30.3598633
			C50.7006721,4.4744864,51.9306526,5.7142324,51.9306526,7.234252z" class="colordbdbdb svgShape"></path><path d="M49.1806641,49.3842773H18.8208008c-1.7919922,0-3.25-1.4580078-3.25-3.25V7.2338867
			c0-1.7978516,1.4580078-3.2597656,3.25-3.2597656h30.3598633c1.7919922,0,3.25,1.4619141,3.25,3.2597656v38.9003906
			C52.4306641,47.9262695,50.9726563,49.3842773,49.1806641,49.3842773z M18.8208008,4.9741211
			c-1.2407227,0-2.25,1.0136719-2.25,2.2597656v38.9003906c0,1.2402344,1.0092773,2.25,2.25,2.25h30.3598633
			c1.2407227,0,2.25-1.0097656,2.25-2.25V7.2338867c0-1.2460938-1.0092773-2.2597656-2.25-2.2597656H18.8208008z" fill="#0a0a0a" class="color000000 svgShape"></path></g><g fill="#0a0a0a" class="color000000 svgShape"><path fill="#66b2b2" d="M47.8207893,18.4744854c0,0.5698242-0.4501953,1.0200195-1.0102539,1.0200195h-25.619873
				c-0.5600586,0-1.0100098-0.4501953-1.0100098-1.0102539V9.4945059c0-0.5600586,0.4499512-1.0102539,1.0100098-1.0102539
				h25.6101074c0.5598145,0,1.0097656,0.4501953,1.0097656,1.0102539L47.8207893,18.4744854z" class="color488ff7 svgShape"></path><path d="M46.8105469 19.9946289H21.1904297c-.8325195 0-1.5097656-.6777344-1.5097656-1.5107422V9.4946289c0-.8330078.6772461-1.5107422 1.5097656-1.5107422h25.6103516c.8325195 0 1.5097656.6777344 1.5097656 1.5107422l.0102539 8.9785156c0 .0009766 0 .0009766 0 .0009766C48.3208008 19.3129883 47.6430664 19.9946289 46.8105469 19.9946289zM21.1904297 8.9838867c-.2856445 0-.5097656.2246094-.5097656.5107422v8.9892578c0 .2861328.2241211.5107422.5097656.5107422h25.6201172c.2861328 0 .5102539-.2285156.5102539-.5205078l-.0102539-8.9785156c0-.2871094-.2241211-.5117188-.5097656-.5117188H21.1904297zM47.8110352 23.6225586H20.1777344c-.2763672 0-.5-.2236328-.5-.5s.2236328-.5.5-.5h27.6333008c.2763672 0 .5.2236328.5.5S48.0874023 23.6225586 47.8110352 23.6225586zM47.8110352 27.2485352H34.7841797c-.2763672 0-.5-.2236328-.5-.5s.2236328-.5.5-.5h13.0268555c.2763672 0 .5.2236328.5.5S48.0874023 27.2485352 47.8110352 27.2485352zM47.8110352 30.8754883H34.7841797c-.2763672 0-.5-.2236328-.5-.5s.2236328-.5.5-.5h13.0268555c.2763672 0 .5.2236328.5.5S48.0874023 30.8754883 47.8110352 30.8754883zM47.8110352 34.5014648H34.7841797c-.2763672 0-.5-.2236328-.5-.5s.2236328-.5.5-.5h13.0268555c.2763672 0 .5.2236328.5.5S48.0874023 34.5014648 47.8110352 34.5014648zM47.8110352 38.1274414H34.7841797c-.2763672 0-.5-.2236328-.5-.5s.2236328-.5.5-.5h13.0268555c.2763672 0 .5.2236328.5.5S48.0874023 38.1274414 47.8110352 38.1274414zM47.8110352 41.7543945H20.1777344c-.2763672 0-.5-.2236328-.5-.5s.2236328-.5.5-.5h27.6333008c.2763672 0 .5.2236328.5.5S48.0874023 41.7543945 47.8110352 41.7543945zM33.5654297 45.3803711H20.1777344c-.2763672 0-.5-.2236328-.5-.5s.2236328-.5.5-.5h13.3876953c.2763672 0 .5.2236328.5.5S33.8417969 45.3803711 33.5654297 45.3803711z" fill="#0a0a0a" class="color000000 svgShape"></path><path fill="#008080" d="M31.7807503,28.3143291v7.7500019c0,0.8601074-0.7001953,1.5600586-1.5700684,1.5600586h-8.4699707
				c-0.8601074,0-1.5600586-0.6999512-1.5600586-1.5600586v-7.7500019c0-0.869873,0.6999512-1.5698242,1.5600586-1.5698242
				h8.4699707C31.080555,26.7445049,31.7807503,27.4444561,31.7807503,28.3143291z" class="color304056 svgShape"></path><path d="M30.2104492,38.1245117h-8.4697266c-1.1357422,0-2.0600586-0.9248047-2.0600586-2.0605469v-7.75
				c0-1.140625,0.9243164-2.0693359,2.0600586-2.0693359h8.4697266c1.1416016,0,2.0703125,0.9287109,2.0703125,2.0693359v7.75
				C32.2807617,37.199707,31.3520508,38.1245117,30.2104492,38.1245117z M21.7407227,27.2446289
				c-0.5844727,0-1.0600586,0.4794922-1.0600586,1.0693359v7.75c0,0.5849609,0.4755859,1.0605469,1.0600586,1.0605469h8.4697266
				c0.590332,0,1.0703125-0.4755859,1.0703125-1.0605469v-7.75c0-0.5898438-0.4799805-1.0693359-1.0703125-1.0693359H21.7407227z" fill="#0a0a0a" class="color000000 svgShape"></path><g fill="#0a0a0a" class="color000000 svgShape"><path fill="#dab600" d="M23.2633247 16.9470749c-.0757751-.0754204-.1134853-.1689835-.1134853-.279623v-5.2196188c0-.1572437.0551414-.2927856.1661377-.4066267C23.4266167 10.927721 23.5607357 10.8708 23.7179794 10.8708h.1138401c.1864147 0 .3465042.0875158.4806232.2621908l3.3661423 4.8613749v-4.7212076c0-.1106396.038065-.2056255.113842-.2842474.0754185-.0786219.1689816-.1181107.2796211-.1181107s.2056255.0394888.2842484.1181107c.0786209.0786219.1181087.1736078.1181087.2842474v5.2192621c0 .1576004-.0569191.2917194-.1707611.402359-.1134853.1106377-.2490273.1661358-.406271.1661358h-.1049461c-.093565 0-.1807232-.0220566-.2625465-.0654583-.0814686-.0437584-.1483498-.1006775-.2010021-.1707611l-3.3835735-4.8873453v4.7301016c0 .1106396-.0391331.2042027-.117754.279623-.0789776.0757751-.1736088.1138401-.2842464.1138401C23.4323082 17.060915 23.3391018 17.02285 23.2633247 16.9470749zM30.2183113 16.4970455c-.3991566-.4052029-.5987339-.9747648-.5987339-1.7093964 0-.4137421.0754204-.7954655.2273273-1.1451712.1511955-.3497066.3845692-.6325302.6994114-.8481169.3144855-.2155867.7022572-.3237362 1.1626034-.3237362.43153 0 .8043594.1006784 1.1192017.3016787.3148422.2013569.5535507.4692392.7168427.8043594.1632919.3354759.2447586.7011909.2447586 1.0975008 0 .1106396-.0362854.2038469-.1092148.2796221-.0729294.0757761-.1704063.1138411-.2927856.1138411h-2.9637852c.0466042.4080496.1977997.7253819.4546528.9527092.2561436.2273254.6147423.3411674 1.0750885.3411674.2451134 0 .4592781-.0231247.6428452-.0700836.1835709-.0466042.3628693-.1134853.5375443-.2010002.0466042-.0231247.0992546-.0348644.1576004-.0348644.0928497 0 .174675.0320187.2447586.0960541.0697289.0640354.1049461.1458588.1049461.2447586 0 .1284256-.0761299.2362194-.2273254.3233795-.2273254.1284275-.4518089.2244797-.6734428.288517-.2216339.0643902-.5069466.0964088-.8566551.0964088C31.1727982 17.1046734 30.617466 16.9022484 30.2183113 16.4970455zM33.0031509 14.4205112c-.0177879-.2856703-.0917854-.5247374-.2230568-.7168436-.1312752-.1924629-.2927856-.3336973-.4852486-.4240589s-.3877716-.1355419-.5859261-.1355419-.3934631.0451803-.5855713.1355419c-.1924629.0903616-.3529072.231596-.480978.4240589-.1284275.1921062-.2010021.4311733-.2184334.7168436H33.0031509zM35.8096924 16.9559689c-.0932083-.0700836-.1572418-.1572437-.1921082-.2621918l-1.241581-3.6372261c-.0174294-.0522957-.0263252-.1017456-.0263252-.1487045 0-.1106396.0377121-.2038469.113842-.279623.0754204-.0757751.1689835-.1138411.2796211-.1138411.0814705 0 .1558228.0220566.2230606.065815.0668793.0437574.1120605.1003218.13554.1704054l1.0227928 3.3661423 1.0142555-3.2875204c.029171-.0932074.0828896-.1689825.1618652-.2273264.0786209-.0579882.1672058-.0875158.2664604-.0875158.0988998 0 .1878395.0295277.2668152.0875158.0786209.0583439.1323395.134119.1615143.2273264l1.0142517 3.2875204 1.0231476-3.3661423c.0231247-.0700836.068306-.1266479.1351852-.1704054.0672379-.0437584.1415901-.065815.2230606-.065815.1106377 0 .203846.0380659.2799759.1138411.0754204.0757761.1134872.1689835.1134872.279623 0 .0469589-.0088959.0964088-.0263252.1487045l-1.2412262 3.6372261c-.0352211.104948-.0992546.1921082-.1924629.2621918s-.1981544.1049461-.3148422.1049461-.2216339-.0348625-.3148422-.1049461-.1600876-.1600895-.2010002-.2710857l-.9267387-2.8940563-.9267387 2.8940563c-.0409126.1109962-.1077919.2010021-.2010002.2710857s-.1981544.1049461-.3148422.1049461S35.9029007 17.0260525 35.8096924 16.9559689zM41.5714798 16.7112103c-.0992546-.0700836-.1487045-.1661377-.1487045-.288517 0-.0932083.0320168-.1750317.0960541-.2447586.0640335-.0700836.1458588-.104948.2447586-.104948.0526505 0 .1049461.0117397.1575966.0348644.1864166.0818233.3728333.1458588.5596008.1924629.1864166.0466042.3963127.0697269.6293297.0697269.6471176 0 .9704971-.2066917.9704971-.6207895 0-.1337633-.0743523-.2358646-.2230568-.3059483-.1483498-.0697279-.3920441-.1483498-.7300072-.2358646-.3440132-.0814676-.6279068-.1661367-.8523865-.2536526-.2244797-.0875149-.4169426-.2198553-.577034-.3977327-.1604424-.1778765-.24049-.4123182-.24049-.7040367 0-.4076939.1472816-.7399673.4414902-.9964657s.7154236-.3849258 1.2636375-.3849258c.4486084 0 .8712425.0732851 1.2675514.2187881.0814667.0234804.1444359.0668821.1878395.1312733.0437546.0640354.065815.1309175.065815.2010012 0 .0932074-.0337982.174675-.1006813.2447586-.0668793.0700836-.1501274.1049471-.2490273.1049471-.029171 0-.0672379-.0056915-.113842-.0174322-.3379631-.1049471-.6702385-.1575985-.9964638-.1575985-.3148422 0-.5613785.056921-.738903.1707621-.1778755.1134853-.2668152.260767-.2668152.4414902 0 .174675.0818253.3031025.2447586.3845701.1632919.0818233.4169464.1604443.7609596.2362204.3436584.0871592.6236343.1732521.839222.2575655.2155876.0846691.4005775.2173653.5549774.3980885.1543961.1807232.2319489.4226351.2319489.7257376 0 .3728294-.1472816.6816235-.4414902.9267387-.2945633.2447586-.7097282.3671379-1.2458496.3671379C42.5796852 17.1046734 42.0492592 16.9734001 41.5714798 16.7112103z" class="colorffffff svgShape"></path></g></g></svg>