<svg xmlns="http://www.w3.org/2000/svg" viewBox="0 0 99 99" id="OnlineForm"><path fill="#008080" d="M96.494 79.053v.12c.17 4.49-3.01 8.26-7.19 8.92h-.01c-.1.02-.21.03-.31.04-20.13-.39-56.51-.04-73.99-.48-4.2-.12-7.68-3.35-8.2-7.63l-.15-1.14c-.04-.33-.07-.67.08-.94.23-.44.79-.54 1.28-.59.43-.04.86-.07 1.29-.11.79-.07 1.58-.14 2.37-.2.18-.02.34-.03.51-.04v.01c.29.06.58.11.86.17.47.08.94.14 1.42.18.9.1 1.78.15 2.66.18 1.89.07 3.77 0 5.69-.03h.08l1.04.03c16.41.46 31.36.25 47.1.73 4.94.15 9.33.27 14.21.35.02.01.03.03.05.03 1.62-.05 4.09.18 6.39.34.51.03 1.01.07 1.49.09 1.32.06 2.49.08 3.33-.03z" class="color123bd9 svgShape"></path><path fill="#66b2b2" d="m88.324 77.793-68.37-.8c-.49-7.01-1.03-14.02-1.45-21.06-.22-3.51-.4-7.01-.51-10.53-.1-2.81-1.1-5.84 2.49-6.77 2.56-.65 44.92-1.16 58.01-1.51h.04c.46.04.93.09 1.39.12 3.23.29 7.33-.99 8.41 2.47.58 1.88-.09 5.37-.3 7.3-.55 4.91.01 25.7.29 30.78z" class="colorfd95fd svgShape"></path><path fill="#ffffff" d="M79.594 57.493c-.02 1.44.05 2.96-.06 4.43-.14 1.75-.55 3.42-1.71 4.8-2.59 3.07-6.75 2.95-10.45 2.82-14.15-.51-28.3-1.02-42.45-1.54-.62-.02-1.27-.05-1.8-.36-.54-.32-.87-1.11-.57-1.63-.29-11.96-.57-23.91-.86-35.87-.1-3.92-.19-7.85.14-11.75.1-1.33.26-2.66.48-3.98.16-.96.4-2 1.15-2.66.85-.75 2.11-.82 3.26-.84 4.69-.1 9.39-.12 14.09-.1s9.4.09 14.09.19c4.68.1 9.42.04 14.09.35.9.06 1.94-.03 3.02-.09 1.1-.06 2.24-.1 3.27.08 1.12.2 2.11.64 2.82 1.58.64.87.85 1.97 1.02 3.03.11.72.21 1.43.28 2.15l.03.26c.64 5.5.56 11.06.48 16.6-.1 7.51-.21 15.02-.32 22.53z" class="colorffffff svgShape"></path><path fill="#dab600" d="M79.434 18.363c-2.02.13-4.04.25-6.07.24-1.12-.01-2.24-.01-3.36-.02-14.53-.06-29.06-.13-43.59-.19.1-1.33.26-2.66.48-3.98.16-.96.4-2 1.15-2.66.85-.75 2.11-.82 3.26-.84 3.17-.07 6.34-.1 9.51-.1 6.22-.02 12.45.06 18.67.19 4.16.09 8.36.05 12.53.26l1.56.09c.52.04 1.1.02 1.71-.01 1.12.2 2.11.64 2.82 1.58.64.87.85 1.97 1.02 3.03.11.72.21 1.43.28 2.15l.03.26z" class="colorfd6229 svgShape"></path><path d="M96.365 78.062c-.585.075-1.392.077-2.178.057a982.008 982.008 0 0 0-.127-41.208c-.039-1.476-.084-3.149-.743-4.682-.305-.735-.77-1.405-1.306-1.884-1.436-1.294-3.85-1.218-5.977-1.153-.752.023-1.462.045-1.996-.004-1.023-.09-2.048-.171-3.073-.253-.01-3.555-.126-7.141-.537-10.68-.067-.56-.085-.939-.317-2.461-.19-1.184-.44-2.427-1.209-3.473-.79-1.048-1.917-1.69-3.446-1.963-1.146-.2-2.356-.156-3.498-.093l-.611.036c-.833.05-1.62.101-2.288.054-4.715-.312-9.443-.25-14.134-.351-9.203-.197-19.094-.284-28.22-.091-1.377.024-2.813.129-3.901 1.09-.964.846-1.28 2.06-1.477 3.246a45.408 45.408 0 0 0-.49 4.06c-.303 3.583-.253 7.225-.173 10.555-4.452.037-7.529.087-8.332.156-1.119.093-4.523.375-5.354 3.016-1.547 4.908-1.424 10.196-1.305 15.31.034 1.503.069 2.994.06 4.455-.04 5.38.197 10.859.426 16.157.115 2.67.23 5.34.312 7.997.001.058.01.117.012.175-.4.034-.8.065-1.2.1l-1.49.128c-.464.047-1.55.157-2.077 1.125-.291.563-.219 1.162-.177 1.505.028.267.058.482.152 1.156.582 4.795 4.432 8.373 9.158 8.509 18.516.464 57.502.047 76.92.54a9.07 9.07 0 0 0 1.366-.07c.094-.01.192-.02.286-.036.013-.002.026-.003.038-.006 4.766-.752 8.22-5.028 8.035-9.907v-.12a1 1 0 0 0-1.13-.992zM83.859 31.18c.654.06 1.423.037 2.237.011 1.665-.052 3.737-.115 4.58.644.32.286.602.697.798 1.173.514 1.192.551 2.597.587 3.953.344 14.437.36 28.49.128 41.063l-1.684-.12c-.393-.03-.79-.06-1.182-.088v-.077c-.288-5.222-.831-25.835-.295-30.617.04-.37.097-.797.16-1.26.282-2.103.633-4.72.1-6.446-1.036-3.323-4.278-3.227-6.877-3.15-.504.014-1.013.02-1.516.013.018-1.382.053-3.42.066-5.338.967.078 1.934.153 2.898.24zM15.336 76.565c-.472-6.74-1.01-13.758-1.425-20.694a367.217 367.217 0 0 1-.518-10.5c-.016-.49-.058-.987-.1-1.478-.215-2.52-.226-3.754 1.847-4.29.469-.12 2.616-.238 5.772-.353l.637 26.562c-.366 1.015.216 2.188 1.07 2.695.765.446 1.636.475 2.268.496 12.885.473 25.77.938 38.655 1.403 4.176.15 4.985.19 6.08.19 3.182 0 6.62-.446 8.967-3.23 1.499-1.781 1.826-3.914 1.942-5.367.076-1.024.07-2.056.063-3.055-.013-1.77-.013.267.273-20.67.536.01 1.073.006 1.603-.01.219-.006.41-.007.612-.01-.254.45-.477.918-.632 1.415a1 1 0 0 0 1.91.595 5.39 5.39 0 0 1 .8-1.586c.073-.1.118-.21.15-.322.916.148 1.508.487 1.865 1.174a.982.982 0 0 0-.372.271 13.458 13.458 0 0 0-1.776 2.842.999.999 0 1 0 1.815.84c.207-.448.446-.88.71-1.297a30.99 30.99 0 0 1-.253 2.704c-.015.015-.034.021-.048.037a47 47 0 0 0-3.486 4.64 1 1 0 1 0 1.67 1.099c.47-.714.969-1.416 1.483-2.105-.048.954-.08 2.115-.098 3.426a.984.984 0 0 0-1.165.457 20.534 20.534 0 0 1-1.964 2.944 1 1 0 0 0 1.562 1.25c.564-.705 1.07-1.459 1.548-2.23-.003.829-.001 1.692.003 2.58a.982.982 0 0 0-.752.436l-2.267 3.492a1 1 0 1 0 1.678 1.088L86.83 59.9c.032 2.686.086 5.461.15 8.044a.974.974 0 0 0-.343-.412 1.001 1.001 0 0 0-1.382.304 6.148 6.148 0 0 1-1.906 1.886 1 1 0 0 0 1.062 1.696 8.174 8.174 0 0 0 2.529-2.504c.032-.05.04-.106.061-.16.1 3.818.219 7.118.315 8.936a25.4 25.4 0 0 0-1.18-.038c-3.671-.057-10.088-.226-15.08-.385-.12-.003-42.728-.816-55.72-.702zm52.766-54.393c.49.265 1.094.085 1.358-.396.311-.566.7-1.084 1.155-1.539a.992.992 0 0 0 .289-.685c.91-.028 1.814-.067 2.714-.12a.983.983 0 0 0-.603.28 6.06 6.06 0 0 0-1.594 2.996 1 1 0 1 0 1.958.408 4.113 4.113 0 0 1 1.069-2.007c.583-.6.223-1.643-.668-1.687.51-.03 1.025-.06 1.526-.091.467-.03.932-.058 1.397-.086l-2.25 4.219a1 1 0 1 0 1.764.941l2.372-4.445a79.02 79.02 0 0 1 .252 3.665.986.986 0 0 0-.61.818 4.153 4.153 0 0 1-1.127 2.456 1 1 0 1 0 1.439 1.389c.152-.158.278-.335.412-.507.005.549.009 1.097.009 1.644a.997.997 0 0 0-.95.495l-1.177 2.06a1 1 0 1 0 1.736.991l.374-.655c-.045 4.072-.293 21.055-.353 25.163-.02 1.435.049 2.95-.058 4.365-.15 1.893-.606 3.2-1.477 4.235-2.297 2.723-6.203 2.588-9.649 2.466-16.198-.585-30.355-1.097-42.453-1.54-.47-.016-1.002-.034-1.323-.222-.108-.064-.2-.25-.214-.27a.997.997 0 0 0 .133-.524l-.86-35.871c-.085-3.328-.164-7.061.083-10.72l45.749.204a8.761 8.761 0 0 0-.818 1.211 1 1 0 0 0 .395 1.359zm-43.977-9.668c.581-.513 1.611-.574 2.62-.591 2.385-.051 5.135-.087 8.088-.1a1.2 1.2 0 0 1 .431.434 1 1 0 0 0 1.355.407.986.986 0 0 0 .509-.847h.496l1.64.003 1.348 1.297a1 1 0 0 0 1.414-.027.987.987 0 0 0 .08-1.258c.784.005 1.568.01 2.367.017a4.275 4.275 0 0 0 2.322 1.878c.526.169 1.09-.117 1.26-.642a.99.99 0 0 0-.535-1.201l1.99.03a8.62 8.62 0 0 0 1.959 2.246 1 1 0 0 0 1.249-1.562 6.486 6.486 0 0 1-.68-.64c3.853.071 3.24.075 7.104.117 3.221.035 6.552.071 9.786.286 2.793.189 6.774-.95 8.37 1.165.498.677.68 1.614.837 2.587.054.35.09.703.137 1.052-2.78.131-5.528.383-8.317.43-.766.037 1.363.026-47.02-.187l.03-.309c.091-.84.197-1.683.335-2.512.158-.948.359-1.663.825-2.073zM8.886 32.636c.288-.914 1.469-1.445 3.615-1.623.758-.065 3.82-.113 8.21-.149l.153 6.39c-3.438.13-5.643.265-6.221.412-3.804.984-3.537 4.113-3.342 6.397.039.456.078.917.093 1.374.113 3.298.283 6.752.521 10.556.406 6.784.902 13.264 1.415 20.558-1.421-.04-3.289-.178-4.701-.446l-.154-.03c-.028-.757-.03-1.535-.318-8.203-.228-5.274-.463-10.727-.424-16.058.01-1.481-.026-2.992-.06-4.513-.116-4.952-.235-10.072 1.213-14.665zM89.19 87.1a.886.886 0 0 0-.088.013c-.056.01-.117.016-.245.03a6.735 6.735 0 0 1-1.038.051c-19.26-.488-58.69-.082-76.916-.54-3.725-.106-6.764-2.945-7.228-6.76-.035-.25-.176-1.226-.175-1.454.068-.026.204-.061.475-.089 1.274-.105 2.412-.216 3.653-.31.01 0 .02.004.031.003.101-.012.198-.019.294-.026 1.333.265 3.045.486 5.535.54.1.001 35.764.358 35.867.358-.174.233-.35.463-.495.718a1 1 0 0 0 1.74.988 4.978 4.978 0 0 1 1.115-1.348.989.989 0 0 0 .253-.334c.6.005 1.206.01 1.803.017l-.668 1.302a1 1 0 0 0 1.78.914l.88-1.715-.851-.488c1.655.018 3.309.038 4.956.062a19.565 19.565 0 0 0-1.527 2.055 1 1 0 1 0 1.688 1.072 17.566 17.566 0 0 1 2.344-2.939c.042-.042.062-.095.095-.143.788.014 1.575.025 2.366.041a30.118 30.118 0 0 0-2.814 3.558 1 1 0 1 0 1.66 1.115 28.23 28.23 0 0 1 2.833-3.56.996.996 0 0 0 .19-1.067c5.03.118 3.808.105 9.11.25-.03.03-.068.046-.095.08l-3.197 4.004a1 1 0 0 0 1.563 1.248l3.197-4.004a.988.988 0 0 0-.061-1.29c1.399.036 2.784.07 4.183.1a59.791 59.791 0 0 1-3.71 4.628 1 1 0 1 0 1.49 1.332 61.817 61.817 0 0 0 4.5-5.672c.053-.075.076-.16.106-.241l1.247.022c.093.024.19.034.278.033a25.62 25.62 0 0 1 2.21.05.976.976 0 0 0-.428.31l-2.964 3.955a1 1 0 0 0 1.6 1.2l2.964-3.956a1 1 0 0 0-.2-1.4c-.037-.027-.08-.034-.118-.055.572.038 1.159.082 1.74.126l2.058.145c.202.013.397.023.594.034.115.007.235.016.349.02.765.035 1.597.061 2.357.044-.27 3.495-2.838 6.408-6.286 6.973z" fill="#0a0a0a" class="color000000 svgShape"></path><path d="M12.946 79.664a.997.997 0 0 0-.827.324 1 1 0 0 0-.367.21c-.446.404-1.375 1.242-1.31 2.43.075 1.357 1.495 2.317 2.83 2.028 1.19-.264 2.059-1.42 1.98-2.636-.08-1.217-1.092-2.25-2.306-2.356zm-.104 3.039a.44.44 0 0 1-.321-.089c-.065-.05-.081-.09-.082-.096-.01-.204.368-.574.575-.763.13.095.232.249.241.395.015.23-.19.503-.413.553zm7.705-2.285h-.005a.992.992 0 0 0-.903-.215c-.77.195-1.398.83-1.639 1.658s-.05 1.7.494 2.28c.57.604 1.452.808 2.246.625.84-.191 1.511-.78 1.751-1.537.234-.734.022-1.592-.541-2.182-.39-.41-.892-.63-1.403-.63zm-.252 2.398c-.144.033-.289.012-.346-.048-.057-.061-.07-.208-.028-.348a.777.777 0 0 1 .02-.06.968.968 0 0 0 .566.07c.046.052.087.148.078.193-.025.079-.147.16-.29.193zm7.936-2.08c-.129-.1-.28-.173-.445-.212-.583-.143-1.141.17-1.443.475-.262.263-.658.662-.84 1.23-.266.823.068 1.726.775 2.096.271.142.548.187.794.187.276 0 .513-.055.663-.09.362-.082.857-.196 1.303-.503.636-.437.972-1.166.858-1.856-.134-.813-.899-1.389-1.665-1.327zm43.007-65.43h1.132a1 1 0 1 0 0-2h-1.132a1 1 0 1 0 0 2zm-6.198-.231.56.203a1 1 0 0 0 .68-1.88l-.562-.204a1 1 0 1 0-.678 1.88zm-6.149.224c.28-.032.563.008.823.118a1.001 1.001 0 0 0 .772-1.846 3.66 3.66 0 0 0-1.82-.259 1 1 0 1 0 .225 1.987zm-23.73 20.62a23.945 23.945 0 0 0 5.17-.484c.217-.044.579-.118.907-.38.594-.47.66-1.195.69-1.505.255-2.8-.174-5.558-.589-8.224-.037-.237-.105-.677-.434-1.043-.443-.494-1.059-.545-1.358-.57-1.6-.126-3.2-.239-4.802-.334-1.158-.07-2.598-.157-3.964.293a1.595 1.595 0 0 0-.703.425c-.367.4-.38.892-.386 1.102l-.15 5.599c-.006.17-.02.363-.036.568-.08 1.07-.19 2.537.713 3.493 1.214 1.29 3.671 1.038 4.942 1.06zm-.536-10.544c1.585.095 3.169.206 4.75.332.392 2.523.792 5.132.56 7.66a3.616 3.616 0 0 1-.011.11 21.49 21.49 0 0 1-4.735.443c-.179-.002-.384 0-.606.003-.802.006-2.472.029-2.909-.436-.297-.314-.22-1.353-.173-1.972.018-.239.034-.464.04-.663l.144-5.361c.857-.219 1.809-.184 2.94-.116zm12.128 1.682c3.59.055 7.22.2 10.787.43l.065.002a1 1 0 0 0 .064-1.998c-3.6-.232-7.262-.379-10.885-.434-.56.038-1.007.433-1.016.986a1 1 0 0 0 .985 1.014zm-.784 5.503a1 1 0 0 0 .973 1.027c.112.003 24.882.645 24.78.645a1 1 0 0 0 .025-2l-24.753-.645a.984.984 0 0 0-1.025.973zM35.252 50.75c.269.006.577.037.904.068.47.046.981.095 1.495.095.936 0 1.884-.164 2.615-.816.523-.464.505-1.131.498-1.383a137.332 137.332 0 0 0-.32-6.325c-.025-.342-.064-.861-.386-1.333-.732-1.074-2.122-.912-2.645-.85l-3.623.428c-.16.02-.39.027-.651.037-1.47.056-2.642.157-3.238.892-.624.77-.554 1.863-.499 2.74.013.212.028.409.024.572-.03 1.339-.258 2.685-.422 4.055-.02.157-.065.52.138.894.3.552.867.66 1.052.695 1.859.357 3.479.197 5.058.232zm-3.827-5.83a9.33 9.33 0 0 0-.027-.743c-.022-.352-.067-1.06.033-1.31.34-.143 1.342-.18 1.784-.197.325-.013.612-.026.81-.05l3.623-.427c.209-.024.364-.032.478-.032.211 0 .279.027.273.01.028.061.043.268.051.367.15 2.048.257 4.128.314 6.183-.77.402-2.419.05-3.475.03-1.634-.025-2.84.08-4.233-.117.02-.15.341-2.466.37-3.714zm14.89 4.01c-.02.157-.065.52.137.894.3.552.867.66 1.052.695 1.344.258 2.562.248 3.74.233 1.448-.017 1.497-.003 2.223.066.47.046.98.095 1.494.095.937 0 1.885-.164 2.617-.817.522-.464.504-1.131.497-1.382a137.332 137.332 0 0 0-.32-6.325c-.026-.342-.065-.861-.386-1.333-.733-1.074-2.123-.912-2.645-.85l-3.624.428c-.16.02-.39.027-.65.037-1.47.056-2.643.157-3.239.892-.623.77-.554 1.863-.498 2.74.013.212.027.409.024.572-.031 1.339-.258 2.685-.423 4.055zm2.42-4.01a9.33 9.33 0 0 0-.026-.743c-.023-.352-.068-1.06.033-1.31.339-.143 1.341-.18 1.783-.197.326-.013.612-.026.811-.05l3.622-.427c.21-.024.365-.032.478-.032.212 0 .279.027.273.01.028.061.044.268.052.367.15 2.048.256 4.128.314 6.183-.773.402-2.417.05-3.476.03-1.663-.026-2.82.082-4.232-.117.162-1.239.34-2.466.369-3.714zm23.299-4.713-3.623.427c-.16.02-.39.027-.65.037-1.471.056-2.643.157-3.24.892-.801.99-.458 2.548-.474 3.312-.03 1.329-.252 2.65-.424 4.06-.018.156-.061.519.14.889.3.552.867.66 1.052.695 1.87.359 3.46.197 5.058.232.268.005.577.036.904.067.47.046.98.095 1.495.095.936 0 1.884-.164 2.615-.816.523-.464.505-1.131.499-1.383a138.088 138.088 0 0 0-.32-6.323c-.026-.342-.064-.859-.386-1.335-.734-1.075-2.124-.91-2.646-.85zm.985 1.964c.03.061.045.275.052.367.151 2.054.257 4.135.314 6.182-.77.404-2.416.05-3.475.03-1.628-.024-2.84.08-4.232-.116.159-1.226.34-2.456.368-3.713a8.955 8.955 0 0 0-.027-.745c-.023-.352-.067-1.06.033-1.308.34-.144 1.342-.182 1.784-.198.325-.013.612-.026.81-.05l3.622-.427c.21-.024.366-.032.479-.032.212 0 .279.025.272.01zM52.598 55.83c4.885-.059 9.935-.12 14.82.503a1 1 0 0 0 .253-1.984c-6.127-.78-12.367-.518-18.369-.486-5.458.023-11.119-.12-17.288-.456-.55-.057-1.023.393-1.053.943a1 1 0 0 0 .944 1.053c6.21.339 11.909.486 17.408.46 1.095-.006 2.19-.02 3.285-.032zm18.098 3.18c-12.237.42-24.667.61-36.95.573-.515-.019-1 .444-1.002.997a1 1 0 0 0 .997 1.003 994.35 994.35 0 0 0 37.024-.575 1 1 0 0 0 .965-1.033c-.02-.55-.452-1.01-1.034-.965zm14.528 7.518 1.03-1.178a1 1 0 0 0-1.505-1.316L83.72 65.21a1 1 0 1 0 1.504 1.318zm-14.81 13.016a14.546 14.546 0 0 0-3 3.792 1 1 0 1 0 1.753.963 12.533 12.533 0 0 1 2.588-3.271 1 1 0 0 0-1.341-1.484zm19.656 5.374a1 1 0 1 0 1.722 1.017 49.945 49.945 0 0 1 2.334-3.587 1 1 0 1 0-1.628-1.162 51.977 51.977 0 0 0-2.428 3.732z" fill="#0a0a0a" class="color000000 svgShape"></path></svg>