<svg xmlns="http://www.w3.org/2000/svg" enable-background="new 0 0 135 135" viewBox="0 0 135 135" id="PaintBrush"><path fill="#dab600" d="M56.9,44.3L46.4,55.1c-8.2-0.9-19.6-9.2-21.5-17.4c-0.7-3.1-0.7-6.3-0.8-9.5l0,0c0-0.7,0-1.3-0.1-2
			c-0.1-1.2-0.2-2.4-0.4-3.7c-0.4-2.2-1-4.3-2.1-6.1c0,0,0,0,0,0c-0.2-0.4-0.5-0.8-0.8-1.2c-1.8-2.3-4.3-3.9-6.9-5.2
			c-1.1-0.6-1.2-2.1-0.1-2.9c1.3-0.9,3-1.2,4.6-1.3c4.1-0.1,8.2,1.2,12.1,2.7c6.3,2.5,12.5,5.7,17.5,10.2c1,0.9,1.9,1.9,2.8,2.9
			C56.1,27.8,59.1,36.5,56.9,44.3z" class="colorf7941e svgShape"></path><path fill="#66b2b2" d="M121.5,129.9c-1.3,0.6-3.2,0.1-5.1-0.6c-23.6-8.9-41.8-32-54.1-48.6c-2.1-2.8-4-5.5-5.8-7.9
			c-2.6-3.5-5.1-7.1-7-10.7c-1.4-2.8-2.4-5.6-2.7-8.6c-0.1-1.3-0.1-2.7,0.3-3.9c1.7-4.5,7.8-5.9,11.9-4c8.9,4,16.6,14.2,25.2,23.3
			c3.8,4,8,8.4,12.2,13.1c8.5,9.6,17.2,21,23.9,35.3c0.8,1.7,1.6,3.6,2,5.4C123.3,126,123.4,128.9,121.5,129.9z" class="color00a79d svgShape"></path><path fill="#ecda7f" d="M45.6,19c0,0.4,0,0.8,0,1.3c-0.2,1.6-1.2,3.1-2.8,3.4c-1,0.2-2-0.1-3-0.1s-2.1,0.3-2.5,1.2
			c-0.1,0.3-0.1,0.7-0.1,1.1c0.1,1.4,0.6,2.8,0.9,4.2c0.3,1.4,0.3,2.9-0.4,4.2c-0.9,1.6-3.1,2.4-4.8,1.7c-2.4-0.9-4.9-3-6.9-4.6
			c-1.8-1.4-2.4-3-2.6-5.2c-0.3-3.7,0.6-6.6-2-9.7c0,0,0,0,0,0c-0.2-0.4-0.5-0.8-0.8-1.2c-1.8-2.3-4.3-3.9-6.9-5.2
			c-1.1-0.6-1.2-2.1-0.1-2.9c1.3-0.9,3-1.2,4.6-1.3c4.1-0.1,8.2,1.2,12.1,2.7c3.4,1.4,6.8,2.9,10,4.8C42.9,14.8,45.4,16,45.6,19z" class="colorefb16f svgShape"></path><path fill="#cce5e5" d="M96.5,82.1c-1.5,0.5-3.4,0.3-4.9-1.1c-8.8-7.8-17.8-15.6-27.1-22.9c-4-3.2-8.4-5.5-12.5-0.9
			c-1.3,1.4-2,3.1-2.4,4.9c-1.4-2.8-2.4-5.6-2.7-8.6c-0.1-1.3-0.1-2.7,0.3-3.9c1.7-4.5,7.8-5.9,11.9-4c8.9,4,16.6,14.2,25.2,23.3
			C88.1,73,92.3,77.3,96.5,82.1z" class="color0dccba svgShape"></path><path fill="#008080" d="M121.5,129.9c-1.3,0.6-3.2,0.1-5.1-0.6c-23.6-8.9-41.8-32-54.1-48.6c1.9-2.3,6.2-3.1,8.5,0.2
			c7.9,11.3,17.5,21.4,28.4,29.8c4.9,3.8,15,11.5,23.2,12.1C123.3,126,123.4,128.9,121.5,129.9z" class="color069385 svgShape"></path><path fill="#cce5e5" d="M43.8,45.1c0.3-2-1.4-4-3.3-4.5C38,40,36.8,42.9,37.4,45C38.4,48.1,43.2,48.8,43.8,45.1z" class="colorc2b59b svgShape"></path><path fill="#0a0a0a" d="M34.9,51.4c2.1,1.3,4.1,2.2,5.9,2.8c2.9,1,4.9,1.1,5.5,1c0.3,1.8,0.8,3.6,1.6,5.4c4.2,10.4,25,36.7,32.8,45
		c12.4,13.1,21.8,19.3,34.4,24.8c7,2.6,9.9-0.9,8.8-7c-0.3-1.9-0.9-3.6-1.6-5.3c-8.6-21.8-41.2-56.9-53-67c-4.3-3.7-7.1-5-8.6-5.6
		c-1.5-0.5-1.7-0.3-1.8,0c-0.1,0.3-0.1,0.6,1.1,1.4c1.1,0.9,3.5,2.5,7.4,6.3c3.1,3,27.5,30.2,31.5,35.1c6.5,7.9,19.3,26.4,21,35.7
		c0.7,3.5-0.2,3.8-3.5,2.6c-13.7-5.8-23-12.9-33.3-23.4C75.4,95.3,53.8,69,49.6,59.7c-1.2-2.6-1.9-5.3-2-7.6c-0.2-2.4,1-4.2,2.5-5.3
		c1.5-1.1,3.2-1.5,4.5-1.6c1.4-0.1,2.4,0,3.2,0.2c0.7,0.1,1.1,0.3,1.1,0.2c0-0.1-0.3-0.3-1-0.6c-0.2-0.1-0.5-0.2-0.8-0.3
		c0.2-0.1,0.4-0.2,0.6-0.7c0.2-0.4,0.5-1,0.7-1.9c0.2-0.9,0.4-2.2,0.5-3.8c0-1.7-0.1-3.7-0.7-6.2c-0.6-2.4-1.7-5.3-3.6-8.4
		c-1.9-3.1-4.8-6.2-8.7-9.1c-6.4-4.8-19.4-11-27.5-10.7c-1.1,0-2.2,0.2-3.3,0.5c-0.3,0.1-0.6,0.2-0.8,0.3l-0.4,0.2
		c-0.1,0.1-0.4,0.2-0.6,0.3c-0.9,0.4-1.6,1.1-1.9,1.9c-0.8,1.6-0.1,3.8,1.6,4.6c1.1,1.4,8.7,1.4,9.5,15.5c0.2,3.4,0.2,7,1,10.4
		C24.9,43.5,29.7,48.2,34.9,51.4z M16.1,9.1l-0.6-0.3l-0.3-0.2l0,0c-0.1,0-0.1-0.1,0-0.1c0,0,0,0,0.1,0c0,0,0,0,0.1,0l0.3-0.1
		c0.2-0.1,0.3-0.1,0.5-0.2c0.7-0.2,1.5-0.3,2.3-0.3c6.9-0.1,19,5.7,24.6,9.7c-0.3,0.7-0.5,1.6-0.5,2.7c0,2.8,0.1,1.7-2.2,1.2
		c-0.4-0.1-1.1-0.1-1.6,0c-0.6,0.1-1.1,0.4-1.6,0.7c-0.9,0.6-1.4,1.3-1.9,2.1c-0.7,1.2-1.2,2.7-1,4.4c0.2,2.2,1.7,5.2,0.8,6.2
		c-0.1,0.1-0.3,0.3-0.8,0.3c-2.7,0.1-5.1-4.5-8.6-4c0-1.3,0-2.6,0-4C25.4,16.7,22.2,12.7,16.1,9.1z M25.7,32.2
		c2.9,0.8,4,5.3,8.3,5.9c0.9,0.2,2.2,0,3.1-0.7c4.3-3-0.2-8,1.7-11.1c0.2-0.4,0.5-0.7,0.7-0.8c0.2-0.1,0-0.1,0.2-0.1
		c0.2,0,0.7,0.2,1.3,0.4l0.2,0.1c0.1,0,0.3,0.1,0.4,0.1c3.1,0.6,5.4-2,4.3-6.1c0-0.1,0-0.1,0-0.2c2.4,2,4.2,4,5.5,6
		c1.8,2.6,2.8,5.1,3.5,7.2c0.7,2.1,1,3.9,1.1,5.4c0.3,2.9,0.1,4.4,0.1,5.3c0,0.5,0.1,0.8,0.3,0.9c-0.5-0.1-1.2-0.2-1.9-0.2
		c-1.5,0-3.3,0.3-5.2,1.5c-0.9,0.6-1.8,1.4-2.4,2.5c-0.7,1.1-1,2.5-1,3.8c0,0.9,0.1,1.9,0.2,2.8c-0.6-0.3-2.4-0.6-5-1.9
		c-6.4-3-13.5-9.1-15.1-16.1C25.8,35.5,25.7,33.9,25.7,32.2z" class="color202020 svgShape"></path><path fill="#0a0a0a" d="M39.1,49.3c1.1,0.3,2.1,0.3,3,0.1c0.9-0.3,1.6-0.7,2-1.3c0.2-0.2,0.4-0.5,0.5-0.7c0.1-0.2,0.2-0.4,0.2-0.6
		c0.2-0.8-0.1-1.1-0.2-1.3c-0.2-0.2-0.5-0.3-0.7-0.3c-0.3,0-0.5-0.1-0.8,0c-0.3,0-0.5,0.2-0.8,0.4c-0.3,0.2-0.5,0.2-0.9,0.2
		c-0.2,0-0.5,0-0.8-0.2c-0.3-0.1-0.7-0.4-0.9-0.8c-0.1-0.2-0.2-0.4-0.3-0.8c0-0.3,0-0.8,0.1-1.1c0.1-0.4,0.2-0.5,0.4-0.6
		c0.1,0,0.2-0.1,0.4-0.1c0.2,0,0.4,0,0.7,0.1c1,0.3,1.8,1,2.2,1.6c0.4,0.6,0.6,1.2,0.9,1.2c0.2,0.1,0.7-0.5,0.6-1.7
		c-0.1-1.2-0.9-2.7-2.4-3.7c-0.4-0.3-0.8-0.5-1.4-0.6c-0.5-0.2-1.2-0.2-1.8-0.1c-0.6,0.2-1.3,0.5-1.7,0.9c-0.5,0.4-0.8,0.9-1.1,1.4
		c-0.5,1-0.7,2-0.7,3c0,1,0.4,2,0.8,2.6C36.9,48.2,38.1,48.9,39.1,49.3z" class="color202020 svgShape"></path></svg>