<svg xmlns="http://www.w3.org/2000/svg" enable-background="new 0 0 105 105" viewBox="0 0 105 105" id="ShoppingWebsite"><g fill="#0a0a0a" class="color000000 svgShape"><g fill="#0a0a0a" class="color000000 svgShape"><path fill="#008080" d="M90.4072418,14.7245464v65.6096649c0,5.4857559-4.4453659,9.9313583-9.9313583,9.9313583H14.8662205
			c-5.4859953,0-9.9408579-4.4456024-9.9408579-9.9313583V14.7245464c0-5.4862328,4.4548626-9.9313583,9.9408579-9.9313583
			h65.6096649C85.9618759,4.7931876,90.4072418,9.2383137,90.4072418,14.7245464z" class="colorc3c9fb svgShape"></path></g><g fill="#0a0a0a" class="color000000 svgShape"><path fill="#66b2b2" d="M90.4072418,73.544693v6.7895203c0,5.4857559-4.4453659,9.9313583-9.9313583,9.9313583H14.8662205
			c-5.4859953,0-9.9408579-4.4456024-9.9408579-9.9313583V14.7245464c0-5.4862328,4.4548626-9.9313583,9.9408579-9.9313583
			h9.7565746c-6.3131332,8.2680588-10.0871449,18.6957474-10.0871449,30.0372562
			c0,26.8564644,21.1662388,48.6261368,47.2639618,48.6261368C72.5483704,83.4565811,82.4697571,79.7699585,90.4072418,73.544693z" class="color8693e2 svgShape"></path></g><g fill="#0a0a0a" class="color000000 svgShape"><path fill="#f9f3d8" d="M14.4625072,85.4020081c-2.5704699,0-4.6735811-2.1031113-4.6735811-4.673584V25.9933853
			c0-2.575901,2.0881805-4.6640816,4.6640816-4.6640816h66.42659c2.5758972,0,4.6640778,2.0881805,4.6640778,4.6640816v54.7445374
			c0,2.5759048-2.0881805,4.6640854-4.6640778,4.6640854H14.4625072z" class="colorffffff svgShape"></path></g><g fill="#0a0a0a" class="color000000 svgShape"><path fill="#e6e6e6" d="M85.5436783,57.8644524v22.8782234c0,2.5680923-2.0912323,4.6593323-4.6593323,4.6593323h-66.42659
			c-2.5678568,0-4.6688309-2.1012115-4.6688309-4.6693115V54.0904388
			c6.7116232,12.8005753,21.652359,22.6640167,39.015377,22.6640167
			C64.4163895,76.7544556,78.0733109,68.7780228,85.5436783,57.8644524z" class="colordddddd svgShape"></path></g><g fill="#0a0a0a" class="color000000 svgShape"><path fill="#0a0a0a" d="M80.4758301,91.015625h-65.609375c-5.8950195,0-10.690918-4.791748-10.690918-10.6813965V14.7246094
			c0-5.8896484,4.7958984-10.6813965,10.690918-10.6813965h65.609375c5.8896484,0,10.6816406,4.791748,10.6816406,10.6813965
			v65.6096191C91.1574707,86.223877,86.3654785,91.015625,80.4758301,91.015625z M14.8664551,5.5432129
			c-5.0678711,0-9.190918,4.1186523-9.190918,9.1813965v65.6096191c0,5.0627441,4.1230469,9.1813965,9.190918,9.1813965h65.609375
			c5.0629883,0,9.1816406-4.1186523,9.1816406-9.1813965V14.7246094c0-5.0627441-4.1186523-9.1813965-9.1816406-9.1813965
			H14.8664551z" class="color0f0f0f svgShape"></path></g><g fill="#0a0a0a" class="color000000 svgShape"><path fill="#0a0a0a" d="M80.8796387,86.1520996H14.4626465c-2.9907227,0-5.4238281-2.4331055-5.4238281-5.423584V25.9934082
			c0-2.9853516,2.4287109-5.4140625,5.4140625-5.4140625h66.4267578c2.9853516,0,5.4140625,2.4287109,5.4140625,5.4140625
			v54.7446289C86.2937012,83.7233887,83.8649902,86.1520996,80.8796387,86.1520996z M14.4528809,22.0793457
			c-2.1582031,0-3.9140625,1.7558594-3.9140625,3.9140625v54.7351074c0,2.1635742,1.7602539,3.923584,3.9238281,3.923584h66.4169922
			c2.1582031,0,3.9140625-1.7558594,3.9140625-3.9140625V25.9934082c0-2.1582031-1.7558594-3.9140625-3.9140625-3.9140625
			H14.4528809z" class="color0f0f0f svgShape"></path></g><g fill="#0a0a0a" class="color000000 svgShape"><g fill="#0a0a0a" class="color000000 svgShape"><g fill="#0a0a0a" class="color000000 svgShape"><circle cx="16.386" cy="12.555" r="2.6" fill="#008080" class="colorffd9b0 svgShape"></circle></g><g fill="#0a0a0a" class="color000000 svgShape"><path fill="#0a0a0a" d="M16.3864746,15.9052734c-1.847168,0-3.3496094-1.5026855-3.3496094-3.3498535
					s1.5024414-3.3498535,3.3496094-3.3498535s3.3496094,1.5026855,3.3496094,3.3498535
					S18.2336426,15.9052734,16.3864746,15.9052734z M16.3864746,10.7055664c-1.0200195,0-1.8496094,0.829834-1.8496094,1.8498535
					s0.8295898,1.8498535,1.8496094,1.8498535s1.8496094-0.829834,1.8496094-1.8498535S17.4064941,10.7055664,16.3864746,10.7055664
					z" class="color0f0f0f svgShape"></path></g></g><g fill="#0a0a0a" class="color000000 svgShape"><circle cx="24.304" cy="12.555" r="2.6" fill="#66b2b2" class="colorff84a0 svgShape"></circle><path fill="#0a0a0a" d="M24.3039551,15.9052734c-1.847168,0-3.3496094-1.5026855-3.3496094-3.3498535
				s1.5024414-3.3498535,3.3496094-3.3498535s3.3500977,1.5026855,3.3500977,3.3498535S26.151123,15.9052734,24.3039551,15.9052734z
				 M24.3039551,10.7055664c-1.0200195,0-1.8496094,0.829834-1.8496094,1.8498535s0.8295898,1.8498535,1.8496094,1.8498535
				s1.8500977-0.829834,1.8500977-1.8498535S25.3239746,10.7055664,24.3039551,10.7055664z" class="color0f0f0f svgShape"></path></g><g fill="#0a0a0a" class="color000000 svgShape"><g fill="#0a0a0a" class="color000000 svgShape"><circle cx="32.222" cy="12.555" r="2.6" fill="#cce5e5" class="colorabecef svgShape"></circle></g><g fill="#0a0a0a" class="color000000 svgShape"><path fill="#0a0a0a" d="M32.2219238,15.9052734c-1.847168,0-3.3500977-1.5026855-3.3500977-3.3498535
					s1.5029297-3.3498535,3.3500977-3.3498535s3.3496094,1.5026855,3.3496094,3.3498535
					S34.0690918,15.9052734,32.2219238,15.9052734z M32.2219238,10.7055664c-1.0200195,0-1.8500977,0.829834-1.8500977,1.8498535
					s0.8300781,1.8498535,1.8500977,1.8498535s1.8496094-0.829834,1.8496094-1.8498535S33.2419434,10.7055664,32.2219238,10.7055664
					z" class="color0f0f0f svgShape"></path></g></g></g><g fill="#0a0a0a" class="color000000 svgShape"><path fill="#0a0a0a" d="M79.9309082,13.3054199H47.6662598c-0.4140625,0-0.75-0.3356934-0.75-0.75s0.3359375-0.75,0.75-0.75
			h32.2646484c0.4140625,0,0.75,0.3356934,0.75,0.75S80.3449707,13.3054199,79.9309082,13.3054199z" class="color0f0f0f svgShape"></path></g><g fill="#0a0a0a" class="color000000 svgShape"><path fill="#0a0a0a" d="M95.072998,41.5112305c-0.4140625,0-0.75-0.3356934-0.75-0.75v-15.276123
			c0-0.4143066,0.3359375-0.75,0.75-0.75s0.75,0.3356934,0.75,0.75v15.276123
			C95.822998,41.1755371,95.4870605,41.5112305,95.072998,41.5112305z" class="color0f0f0f svgShape"></path></g><g fill="#0a0a0a" class="color000000 svgShape"><path fill="#0a0a0a" d="M95.072998,21.3173828c-0.4140625,0-0.75-0.3356934-0.75-0.75v-0.9567871
			c0-0.4143066,0.3359375-0.75,0.75-0.75s0.75,0.3356934,0.75,0.75v0.9567871
			C95.822998,20.9816895,95.4870605,21.3173828,95.072998,21.3173828z" class="color0f0f0f svgShape"></path></g><g fill="#0a0a0a" class="color000000 svgShape"><path fill="#0a0a0a" d="M49.697998,95.8513184H34.4216309c-0.4140625,0-0.75-0.3356934-0.75-0.75s0.3359375-0.75,0.75-0.75H49.697998
			c0.4140625,0,0.75,0.3356934,0.75,0.75S50.1120605,95.8513184,49.697998,95.8513184z" class="color0f0f0f svgShape"></path></g><g fill="#0a0a0a" class="color000000 svgShape"><path fill="#0a0a0a" d="M29.5036621,95.8513184h-0.956543c-0.4140625,0-0.75-0.3356934-0.75-0.75s0.3359375-0.75,0.75-0.75h0.956543
			c0.4140625,0,0.75,0.3356934,0.75,0.75S29.9177246,95.8513184,29.5036621,95.8513184z" class="color0f0f0f svgShape"></path></g><g fill="#0a0a0a" class="color000000 svgShape"><g fill="#0a0a0a" class="color000000 svgShape"><path fill="#cce5e5" d="M11.431921,96.7835999c0,1.8924942-1.5307541,3.4232483-3.41675,3.4232483
				c-1.8923874,0-3.423142-1.5307541-3.423142-3.4232483c0-1.8858948,1.5307546-3.4166489,3.423142-3.4166489
				C9.9011669,93.366951,11.431921,94.8977051,11.431921,96.7835999z" class="colordabcbc svgShape"></path></g><g fill="#0a0a0a" class="color000000 svgShape"><path fill="#66b2b2" d="M11.4322252,96.782486c0,1.8898468-1.5344067,3.4243622-3.4162169,3.4243622
				c-1.4780159,0-2.7459664-0.9449768-3.2224627-2.2613297c0.5168805,0.3149567,1.1306639,0.5006409,1.7848315,0.5006409
				c1.8898511,0,3.4243846-1.5345078,3.4243846-3.4243546c0-0.3957291-0.064559-0.7833405-0.1938047-1.1387863
				C10.7780581,94.4807739,11.4322252,95.5548172,11.4322252,96.782486z" class="colorbc9595 svgShape"></path></g><g fill="#0a0a0a" class="color000000 svgShape"><path fill="#0a0a0a" d="M8.0153809,100.9567871c-2.3012695,0-4.1733398-1.8720703-4.1733398-4.1730957
				c0-2.2976074,1.8720703-4.166748,4.1733398-4.166748c2.2973633,0,4.1665039,1.8691406,4.1665039,4.166748
				C12.1818848,99.0847168,10.3127441,100.9567871,8.0153809,100.9567871z M8.0153809,94.1169434
				c-1.4741211,0-2.6733398,1.1962891-2.6733398,2.666748c0,1.473877,1.1992188,2.6730957,2.6733398,2.6730957
				c1.4702148,0,2.6665039-1.1992188,2.6665039-2.6730957C10.6818848,95.3132324,9.4855957,94.1169434,8.0153809,94.1169434z" class="color0f0f0f svgShape"></path></g></g><g fill="#0a0a0a" class="color000000 svgShape"><path fill="#f9f3d8" d="M100.3113174,9.424386c-2.1602173,0.4448862-3.8593674,2.1494322-4.3042526,4.3095779
			c-0.026825,0.1286411-0.1983185,0.1286411-0.2251434,0c-0.2197418-1.0827694-0.7557373-2.0476122-1.5115509-2.7980299
			c-0.7450943-0.7504168-1.7098618-1.2918015-2.7926331-1.511548c-0.1286392-0.0268211-0.1286392-0.1983185,0-0.2251396
			c1.0827713-0.2197466,2.0475388-0.7611313,2.798027-1.5115485c0.7504196-0.7504168,1.2864151-1.71526,1.5061569-2.7980294
			c0.026825-0.1286411,0.1983185-0.1286411,0.2251434,0c0.2198181,1.0827694,0.755806,2.0476127,1.5062256,2.7980294
			s1.7152557,1.2918019,2.798027,1.5115485C100.4399643,9.2260675,100.4399643,9.3975649,100.3113174,9.424386z" class="colorf76189 svgShape"></path></g><g fill="#0a0a0a" class="color000000 svgShape"><path fill="#ecda7f" d="M100.3134308,9.4215441c-2.1646652,0.4445944-3.862793,2.1501608-4.3074646,4.3147526
			c-0.0291519,0.1239033-0.1967087,0.1239033-0.2259369,0c-0.2113647-1.0349579-0.6996155-1.9605885-1.3993835-2.6894321
			c1.6763458-0.3061142,2.9518204-1.7346478,3.0247726-3.4837985c0.0290833,0.0437303,0.0728149,0.087461,0.1092529,0.1238303
			c0.7507858,0.7507086,1.7128601,1.2901258,2.7987595,1.5087786
			C100.4373398,9.2247562,100.4373398,9.3996782,100.3134308,9.4215441z" class="colorf76189 svgShape"></path></g><g fill="#0a0a0a" class="color000000 svgShape"><path fill="#0a0a0a" d="M95.8942871,14.5803223c-0.4130859,0-0.7612305-0.2849121-0.8466797-0.6931152
			c-0.1865234-0.9211426-0.6381836-1.7561035-1.3056641-2.4189453c-0.6679688-0.6723633-1.5009766-1.1237793-2.4135742-1.3088379
			c-0.4121094-0.0859375-0.6972656-0.434082-0.6972656-0.8476563s0.2851563-0.7617188,0.6938477-0.8466797
			c0.9145508-0.185791,1.7504883-0.6376953,2.4204102-1.3076172c0.6655273-0.6657715,1.1157227-1.501709,1.3017578-2.4169922
			c0.0859375-0.4123535,0.434082-0.6972656,0.847168-0.6972656c0.4135742,0,0.7617188,0.2849121,0.847168,0.6931152
			c0.1865234,0.9194336,0.6367188,1.7553711,1.3022461,2.4211426c0.6699219,0.6699219,1.5058594,1.1218262,2.4169922,1.3066406
			c0.4121094,0.0859375,0.6972656,0.434082,0.6972656,0.8476563s-0.2851563,0.7617188-0.6938477,0.8466797
			c-0.0004883,0.0002441-0.0009766,0.0002441-0.0014648,0.0004883c-1.8740234,0.3859863-3.3344727,1.8486328-3.7211914,3.7263184
			C96.6560059,14.2954102,96.3078613,14.5803223,95.8942871,14.5803223z M93.342041,9.3117676
			c0.5327148,0.2888184,1.0244141,0.6567383,1.4604492,1.0959473c0.4370117,0.4335938,0.8037109,0.9248047,1.0922852,1.4587402
			c0.5820313-1.0827637,1.4707031-1.9716797,2.5522461-2.5544434c-0.5327148-0.2883301-1.0258789-0.6557617-1.4638672-1.0939941
			c-0.4355469-0.4355469-0.8012695-0.927002-1.0883789-1.4594727c-0.2875977,0.5319824-0.652832,1.0236816-1.0888672,1.4594727
			C94.3679199,8.65625,93.8747559,9.0234375,93.342041,9.3117676z M100.3112793,9.4243164h0.0097656H100.3112793z
			 M100.1584473,8.6901855c-0.0004883,0-0.0004883,0-0.0009766,0C100.1574707,8.6901855,100.157959,8.6901855,100.1584473,8.6901855
			L100.1584473,8.6901855z" class="color0f0f0f svgShape"></path></g><g fill="#0a0a0a" class="color000000 svgShape"><g fill="#0a0a0a" class="color000000 svgShape"><g fill="#0a0a0a" class="color000000 svgShape"><path fill="#66b2b2" d="M22.7235832,48.0385323l9.9979973-15.651722c0.9025269-1.4128952,2.7748222-1.8255329,4.187851-0.922966
					c0.6989899,0.4464779,1.1555939,1.1401405,1.3287315,1.896122c0.1608734,0.7589951,0.0382881,1.580307-0.4129791,2.2867546
					l-9.9979935,15.651722c-0.9025288,1.412899-2.7746391,1.8256531-4.1803284,0.9277725
					c-0.7065163-0.4512825-1.1631184-1.1449471-1.3315163-1.9087486
					C22.1497307,49.5662918,22.2723198,48.7449799,22.7235832,48.0385323z" class="color5b5476 svgShape"></path></g><g fill="#0a0a0a" class="color000000 svgShape"><path fill="#008080" d="M22.597744,51.095005c-0.1223316-0.2410202-0.2244205-0.5065575-0.2817497-0.7763748
					c-0.1686401-0.7488174-0.0441017-1.5730858,0.4050026-2.276947l9.999855-15.6560593
					c0.9054337-1.4111099,2.7721329-1.8263588,4.1896744-0.9239655c0.6976624,0.4522324,1.1518478,1.1443405,1.3297081,1.8968468
					c0.122715,0.5749435,0.0816803,1.1835556-0.1417503,1.7486496c-0.2404213-0.437355-0.591156-0.8257408-1.0387726-1.1168633
					c-1.4175415-0.9023933-3.2871208-0.4936447-4.1897087,0.9238853L22.8673,50.5638161
					C22.7576523,50.736721,22.6701908,50.9074745,22.597744,51.095005z" class="color3f3b5b svgShape"></path></g><g fill="#0a0a0a" class="color000000 svgShape"><path fill="#0a0a0a" d="M25.2648926,53.4494629c-0.6938477,0-1.3955078-0.190918-2.0219727-0.5910645
					c-0.8520508-0.5446777-1.4418945-1.3896484-1.6601563-2.3793945c-0.2163086-0.9819336-0.0356445-1.9919434,0.5087891-2.8442383
					l9.9980469-15.6518555c1.1225586-1.7578125,3.4663086-2.2729492,5.2236328-1.151123
					c0.8427734,0.5383301,1.4306641,1.376709,1.6557617,2.3608398c0.2124023,0.9997559,0.0297852,2.010498-0.512207,2.8581543
					l-9.9975586,15.6513672C27.7380371,52.831543,26.5134277,53.4494629,25.2648926,53.4494629z M35.2805176,31.7375488
					c-0.753418,0-1.4921875,0.3723145-1.9272461,1.0529785l-9.9980469,15.6518555
					c-0.3286133,0.5144043-0.4379883,1.1230469-0.3076172,1.713623c0.1318359,0.5986328,0.4882813,1.109375,1.0029297,1.4382324
					c1.0551758,0.6743164,2.4667969,0.3608398,3.1450195-0.699707l9.9975586-15.6516113
					c0.328125-0.5136719,0.4384766-1.1269531,0.3110352-1.7272949c-0.1337891-0.5864258-0.4897461-1.0947266-0.9985352-1.4196777
					C36.1262207,31.8535156,35.7009277,31.7375488,35.2805176,31.7375488z M22.7233887,48.0385742h0.0097656H22.7233887z" class="color0f0f0f svgShape"></path></g></g><g fill="#0a0a0a" class="color000000 svgShape"><g fill="#0a0a0a" class="color000000 svgShape"><path fill="#66b2b2" d="M72.6181717,48.0385323l-9.9979897-15.651722c-0.9025307-1.4128952-2.774826-1.8255329-4.1878548-0.922966
					c-0.6989899,0.4464779-1.1555939,1.1401405-1.3287315,1.896122c-0.1608734,0.7589951-0.0382843,1.580307,0.4129791,2.2867546
					l9.9979973,15.651722c0.9025269,1.412899,2.7746353,1.8256531,4.1803284,0.9277725
					c0.7065125-0.4512825,1.1631165-1.1449471,1.3315125-1.9087486
					C73.1920242,49.5662918,73.0694427,48.7449799,72.6181717,48.0385323z" class="color5b5476 svgShape"></path></g><g fill="#0a0a0a" class="color000000 svgShape"><path fill="#008080" d="M72.7440109,51.095005c0.1223373-0.2410202,0.2244263-0.5065575,0.2817535-0.7763748
					c0.1686401-0.7488174,0.0441055-1.5730858-0.4049988-2.276947l-9.9998589-15.6560593
					c-0.9054337-1.4111099-2.7721329-1.8263588-4.1896744-0.9239655c-0.6976585,0.4522324-1.1518478,1.1443405-1.3297081,1.8968468
					c-0.122715,0.5749435-0.0816765,1.1835556,0.1417503,1.7486496c0.2404213-0.437355,0.591156-0.8257408,1.0387726-1.1168633
					c1.4175415-0.9023933,3.2871208-0.4936447,4.1897087,0.9238853l10.0027008,15.6496391
					C72.5841064,50.736721,72.6715698,50.9074745,72.7440109,51.095005z" class="color3f3b5b svgShape"></path></g><g fill="#0a0a0a" class="color000000 svgShape"><path fill="#0a0a0a" d="M70.0769043,53.4494629c-1.2485352,0-2.4726563-0.6176758-3.1943359-1.7473145l-9.9980469-15.6516113
					c-0.5415039-0.8476563-0.7241211-1.8586426-0.5146484-2.8464355c0.2280273-0.9956055,0.815918-1.8339844,1.6586914-2.3723145
					c1.7583008-1.1225586,4.1010742-0.6062012,5.2236328,1.151123l9.9980469,15.6518555
					c0.5444336,0.8522949,0.7250977,1.8623047,0.5087891,2.8439941c-0.2182617,0.9899902-0.8081055,1.8349609-1.6601563,2.3796387
					C71.4724121,53.2583008,70.770752,53.4492188,70.0769043,53.4494629z M60.0612793,31.7375488
					c-0.4204102,0-0.8452148,0.1157227-1.2250977,0.3583984c-0.5087891,0.3249512-0.8647461,0.833252-1.0014648,1.4311523
					c-0.1245117,0.5888672-0.0141602,1.2023926,0.3139648,1.7160645l9.9975586,15.6513672
					c0.6782227,1.0605469,2.0888672,1.3742676,3.1450195,0.699707c0.5146484-0.3288574,0.8710938-0.8395996,1.0029297-1.4384766
					c0.1303711-0.590332,0.0209961-1.1989746-0.3076172-1.7133789l-9.9980469-15.6518555
					C61.5534668,32.1098633,60.8146973,31.7375488,60.0612793,31.7375488z" class="color0f0f0f svgShape"></path></g></g><g fill="#0a0a0a" class="color000000 svgShape"><path fill="#cce5e5" d="M71.5472031,52.7750664l-1.8965302,19.4778862
				c-0.1930008,1.9821701-1.8591995,3.4940109-3.8507462,3.4940109H29.5418301
				c-1.9915409,0-3.6577415-1.5118408-3.8507404-3.4940109l-1.8965321-19.4778862H71.5472031z" class="coloraff2b6 svgShape"></path></g><g fill="#0a0a0a" class="color000000 svgShape"><path fill="#66b2b2" d="M69.8877869,69.8147354l-0.2381439,2.435791c-0.1905975,1.9827728-1.8580246,3.4953613-3.8469009,3.4953613
				H29.5426807c-1.9949112,0-3.6563053-1.5125885-3.8528671-3.4953613l-1.8936481-19.4729576h7.0090427
				c-2.1617393,2.0307465-3.394392,4.3769798-3.394392,6.8840103c0,7.5984383,11.3561478,13.7619209,25.3682747,13.7619209
				C59.371315,73.4235001,65.3798828,72.0597839,69.8877869,69.8147354z" class="color7fd685 svgShape"></path></g><g fill="#0a0a0a" class="color000000 svgShape"><path fill="#cce5e5" d="M74.2698364,47.1621323v3.551075c0,1.1229172-0.9083252,2.0376358-2.037323,2.0376358H23.1218758
				c-1.129076,0-2.0499535-0.9211884-2.0499535-2.0499535v-3.5387573c0-1.1226082,0.9146404-2.0373268,2.0373268-2.0373268
				h49.1232643C73.3615112,45.1248055,74.2698364,46.0395241,74.2698364,47.1621323z" class="coloraff2b6 svgShape"></path></g><g fill="#0a0a0a" class="color000000 svgShape"><path fill="#66b2b2" d="M74.2647705,47.5846825v3.150219c0,1.125576-0.9111328,2.0426674-2.0366364,2.0426674H23.1172867
				c-1.131464,0-2.0545177-0.9229088-2.0545177-2.0542984v-3.5375252c0-1.1194687,0.9170933-2.0365639,2.0366364-2.0365639h2.495182
				c-0.0596085,0.1488762-0.0894127,0.2977524-0.0894127,0.4466248c0,2.8763123,11.3442974,5.2048073,25.338541,5.2048073
				C61.4078751,50.8006134,70.4595184,49.4726601,74.2647705,47.5846825z" class="color7fd685 svgShape"></path></g><g fill="#0a0a0a" class="color000000 svgShape"><path fill="#0a0a0a" d="M65.8000488,76.4970703H29.541748c-2.3891602,0-4.3657227-1.793457-4.597168-4.1713867
				l-1.8964844-19.4777832c-0.0205078-0.2106934,0.0488281-0.420166,0.190918-0.5766602
				c0.1425781-0.1567383,0.3442383-0.2460938,0.5556641-0.2460938h47.7524414c0.2114258,0,0.4130859,0.0893555,0.5556641,0.2460938
				c0.1420898,0.1564941,0.2114258,0.3659668,0.190918,0.5766602l-1.8964844,19.4777832
				C70.1657715,74.7036133,68.189209,76.4970703,65.8000488,76.4970703z M24.6213379,53.5251465l1.8164063,18.6550293
				c0.15625,1.605957,1.4907227,2.8168945,3.1040039,2.8168945h36.2583008c1.6132813,0,2.9477539-1.2109375,3.1040039-2.8168945
				l1.8164063-18.6550293H24.6213379z" class="color0f0f0f svgShape"></path></g><g fill="#0a0a0a" class="color000000 svgShape"><path fill="#0a0a0a" d="M72.2253418,53.5251465H23.114502c-1.5439453,0-2.7998047-1.2561035-2.7998047-2.8000488v-3.5385742
				c0-1.5368652,1.2504883-2.7873535,2.7871094-2.7873535h49.1235352c1.5366211,0,2.7871094,1.2504883,2.7871094,2.7873535
				v3.5510254C75.0124512,52.2746582,73.7619629,53.5251465,72.2253418,53.5251465z M23.1018066,45.8991699
				c-0.7099609,0-1.2871094,0.5773926-1.2871094,1.2873535v3.5385742c0,0.7167969,0.5830078,1.3000488,1.2998047,1.3000488
				h49.1108398c0.7094727,0,1.2871094-0.5776367,1.2871094-1.2875977v-3.5510254
				c0-0.7099609-0.5776367-1.2873535-1.2871094-1.2873535H23.1018066z" class="color0f0f0f svgShape"></path></g><g fill="#0a0a0a" class="color000000 svgShape"><path fill="#0a0a0a" d="M47.6696777,76.4960938c-0.4140625,0-0.75-0.3356934-0.75-0.75l-0.0004883-22.9685059
				c0-0.4143066,0.3359375-0.75,0.75-0.75s0.75,0.3356934,0.75,0.75l0.0004883,22.9685059
				C48.4196777,76.1604004,48.0837402,76.4960938,47.6696777,76.4960938z" class="color0f0f0f svgShape"></path></g><g fill="#0a0a0a" class="color000000 svgShape"><path fill="#0a0a0a" d="M40.6560059,76.4960938c-0.3969727,0-0.7280273-0.3112793-0.7485352-0.7121582L38.744873,52.8154297
				c-0.0209961-0.4135742,0.2973633-0.7658691,0.7109375-0.7868652c0.4272461-0.0195313,0.7661133,0.2976074,0.7871094,0.7111816
				l1.1625977,22.9685059c0.0209961,0.4135742-0.2973633,0.7658691-0.7109375,0.7868652
				C40.6813965,76.4958496,40.6687012,76.4960938,40.6560059,76.4960938z" class="color0f0f0f svgShape"></path></g><g fill="#0a0a0a" class="color000000 svgShape"><path fill="#0a0a0a" d="M33.6364746,76.4960938c-0.3803711,0-0.7060547-0.2880859-0.7451172-0.6743164l-2.3261719-22.9685059
				c-0.0419922-0.4121094,0.2583008-0.7800293,0.6704102-0.8217773c0.4135742-0.0412598,0.7802734,0.2585449,0.8217773,0.6704102
				l2.3261719,22.9685059c0.0419922,0.4121094-0.2583008,0.7800293-0.6704102,0.8217773
				C33.6872559,76.494873,33.6618652,76.4960938,33.6364746,76.4960938z" class="color0f0f0f svgShape"></path></g><g fill="#0a0a0a" class="color000000 svgShape"><path fill="#0a0a0a" d="M61.7087402,76.4960938c-0.0253906,0-0.0507813-0.0012207-0.0766602-0.0039063
				c-0.4121094-0.041748-0.7124023-0.409668-0.6704102-0.8217773l2.3261719-22.9685059
				c0.0415039-0.4118652,0.4082031-0.7131348,0.8217773-0.6704102c0.4121094,0.041748,0.7124023,0.409668,0.6704102,0.8217773
				l-2.3261719,22.9685059C62.4147949,76.2080078,62.0891113,76.4960938,61.7087402,76.4960938z" class="color0f0f0f svgShape"></path></g><g fill="#0a0a0a" class="color000000 svgShape"><path fill="#0a0a0a" d="M54.689209,76.4960938c-0.0126953,0-0.0253906-0.0002441-0.0385742-0.0009766
				c-0.4135742-0.0209961-0.7319336-0.373291-0.7109375-0.7868652l1.1630859-22.9685059
				c0.0209961-0.4135742,0.3613281-0.7319336,0.7871094-0.7111816c0.4135742,0.0209961,0.7319336,0.373291,0.7109375,0.7868652
				l-1.1630859,22.9685059C55.4172363,76.1848145,55.0861816,76.4960938,54.689209,76.4960938z" class="color0f0f0f svgShape"></path></g><g fill="#0a0a0a" class="color000000 svgShape"><path fill="#0a0a0a" d="M70.6428223,59.074707H24.6989746c-0.4140625,0-0.75-0.3356934-0.75-0.75s0.3359375-0.75,0.75-0.75
				h45.9438477c0.4140625,0,0.75,0.3356934,0.75,0.75S71.0568848,59.074707,70.6428223,59.074707z" class="color0f0f0f svgShape"></path></g><g fill="#0a0a0a" class="color000000 svgShape"><path fill="#0a0a0a" d="M70.0456543,65.184082H25.2902832c-0.4140625,0-0.75-0.3356934-0.75-0.75s0.3359375-0.75,0.75-0.75
				h44.7553711c0.4140625,0,0.75,0.3356934,0.75,0.75S70.4597168,65.184082,70.0456543,65.184082z" class="color0f0f0f svgShape"></path></g><g fill="#0a0a0a" class="color000000 svgShape"><path fill="#0a0a0a" d="M69.4489746,71.293457H25.8869629c-0.4140625,0-0.75-0.3356934-0.75-0.75s0.3359375-0.75,0.75-0.75
				h43.5620117c0.4140625,0,0.75,0.3356934,0.75,0.75S69.8630371,71.293457,69.4489746,71.293457z" class="color0f0f0f svgShape"></path></g></g><g fill="#0a0a0a" class="color000000 svgShape"><g fill="#0a0a0a" class="color000000 svgShape"><path fill="#cce5e5" d="M25.5028038,75.4092636l-0.1360283-2.2695541l-6.2992115,4.2257538
				c-0.4649963,0.3119354-1.1021442,0.186554-1.4141865-0.2786026l-2.4704218-3.682579
				c-0.3120432-0.4651566-0.1863966-1.1022491,0.2785988-1.4141846l6.2992105-4.2257614l-2.0483799-0.9866791
				c-0.9378223-0.4481201-0.6721573-1.8536301,0.3740482-1.9278717l11.406086-0.7752914
				c0.7851753-0.0583191,1.3312759,0.7557449,0.9795151,1.4601288l-5.0435905,10.2596817
				C26.9629936,76.7342529,25.5617409,76.4469757,25.5028038,75.4092636z" class="colorffd9b0 svgShape"></path></g><g fill="#0a0a0a" class="color000000 svgShape"><path fill="#dab600" d="M18.0482178,77.4185104c-0.1510105-0.0666122-0.2984524-0.1753159-0.4002399-0.3375168l-2.4692211-3.6794357
				c-0.3066254-0.458107-0.1781588-1.0977631,0.2799768-1.4047318l6.2953691-4.2352829l-2.0471783-0.9860077
				c-0.9278049-0.4441986-0.6629009-1.849968,0.3854237-1.9193039l11.4022274-0.7839813
				c0.7798729-0.059494,1.3299675,0.753624,0.9716835,1.4622116l-1.4741173,3.0005417
				c-0.8924656-0.3571091-1.8637257-0.5788345-2.8743401-0.6480331c-5.1914806-0.3554535-9.6903114,3.5800018-10.0458012,8.7719955
				C18.0547009,76.9116211,18.0511169,77.1650467,18.0482178,77.4185104z" class="coloredb57e svgShape"></path></g><g fill="#0a0a0a" class="color000000 svgShape"><path fill="#0a0a0a" d="M18.5056152,78.2875977c-0.1152344,0-0.2314453-0.0112305-0.347168-0.0341797
				c-0.4648438-0.0915527-0.8652344-0.3574219-1.1279297-0.7487793l-2.4707031-3.682373
				c-0.262207-0.3913574-0.3564453-0.862793-0.2651367-1.3276367c0.0917969-0.4645996,0.3579102-0.8649902,0.7495117-1.1276855
				l5.2109375-3.4953613l-0.8686523-0.4182129c-0.7294922-0.348877-1.1196289-1.1196289-0.9682617-1.9172363
				c0.1518555-0.800293,0.8007813-1.376709,1.6152344-1.4343262l11.4082031-0.7756348
				c0.6337891-0.048584,1.2333984,0.2424316,1.5898438,0.7749023c0.3574219,0.5324707,0.3989258,1.1936035,0.1113281,1.7687988
				L28.1013184,76.125c-0.362793,0.7333984-1.1425781,1.1147461-1.9399414,0.9528809
				c-0.7949219-0.1623535-1.3603516-0.8146973-1.4072266-1.6240234l-0.0576172-0.9614258l-5.2109375,3.4958496
				C19.1921387,78.1853027,18.8532715,78.2875977,18.5056152,78.2875977z M31.5710449,64.8215332
				c-0.0073242,0-0.0151367,0.0002441-0.0229492,0.0009766l-11.4106445,0.7756348
				c-0.1708984,0.012207-0.2280273,0.125-0.2456055,0.2175293c-0.0170898,0.0905762-0.0063477,0.213623,0.1435547,0.2851563
				l2.0512695,0.987793c0.2421875,0.1166992,0.4033203,0.354248,0.4223633,0.6225586s-0.1069336,0.526123-0.3300781,0.6760254
				l-6.2993164,4.2255859c-0.0795898,0.0532227-0.1049805,0.1306152-0.112793,0.171875
				c-0.0083008,0.0415039-0.0141602,0.1228027,0.0390625,0.2019043l2.4707031,3.682373
				c0.0527344,0.0791016,0.1303711,0.1047363,0.1713867,0.112793c0.0410156,0.0075684,0.1220703,0.0136719,0.2016602-0.0390625
				l6.2993164-4.2258301c0.2236328-0.1501465,0.5092773-0.168457,0.7509766-0.0493164
				c0.2412109,0.1196289,0.3994141,0.3588867,0.4155273,0.6274414l0.1357422,2.2695313c0,0.0007324,0,0.0012207,0.0004883,0.0019531
				c0.0092773,0.1662598,0.1191406,0.2231445,0.2094727,0.2416992c0.0922852,0.0187988,0.21875,0.0085449,0.2949219-0.1467285
				l5.0429688-10.2575684c0.0620117-0.1242676,0.0180664-0.2207031-0.0131836-0.267334
				C31.7561035,64.892334,31.6901855,64.8215332,31.5710449,64.8215332z" class="color0f0f0f svgShape"></path></g></g><g fill="#0a0a0a" class="color000000 svgShape"><path fill="#66b2b2" d="M83.6558609,99.6379318c-0.6350403,0.3235092-1.4017029,0.3235092-2.0247421,0
			C64.4381104,90.8796692,64.6418457,76.8375549,65.3246994,71.865509c0.1319275-1.0185089,0.9465561-1.8088684,1.9770584-1.904808
			c5.3075562-0.5031128,9.8964081-2.6237946,13.8261032-6.2181244c0.8507614-0.7909431,2.1685028-0.7909431,3.0312576,0
			c3.9177017,3.5820465,8.5065536,5.7150116,13.8260956,6.2181244c1.0185165,0.0959396,1.8451385,0.8862991,1.9770584,1.904808
			C100.645134,76.8375549,100.8368759,90.8919525,83.6558609,99.6379318z" class="colorff84a0 svgShape"></path></g><g fill="#0a0a0a" class="color000000 svgShape"><path fill="#ecda7f" d="M94.2673798,91.479744c-2.444046,2.9233246-5.8707733,5.7389984-10.615242,8.1592102
			c-0.6350403,0.3229294-1.4018478,0.3229294-2.0247421,0c-17.1930084-8.7582626-16.9892731-22.8003769-16.3064194-27.7724228
			c0.1319199-1.0185089,0.9465561-1.8094482,1.9769135-1.904808c0.0598221-0.0122833,0.1317749-0.0122833,0.1917419-0.0239868
			c1.3059006,12.2683487,11.2741165,21.8052673,23.3631592,21.8052673
			C92.0149231,91.7430038,93.1530685,91.6593475,94.2673798,91.479744z" class="colorf76189 svgShape"></path></g><g fill="#0a0a0a" class="color000000 svgShape"><path fill="#0a0a0a" d="M82.638916,100.6323242c-0.4663086,0-0.9316406-0.1096191-1.3535156-0.3288574
			c-17.3955078-8.8615723-17.4765625-22.9108887-16.7041016-28.5400391
			c0.1782227-1.3701172,1.2685547-2.4208984,2.6513672-2.5495605c5.034668-0.4772949,9.5400391-2.5043945,13.3886719-6.0246582
			c1.1240234-1.0444336,2.902832-1.0466309,4.0444336,0.0007324c3.8510742,3.5209961,8.3564453,5.5478516,13.3901367,6.0241699
			c1.3603516,0.1281738,2.4750977,1.2026367,2.6499023,2.5551758c0.7729492,5.6247559,0.6933594,19.6777344-16.7094727,28.5371094
			C83.5695801,100.5234375,83.1032715,100.6323242,82.638916,100.6323242z M82.6384277,63.8964844
			c-0.3588867,0-0.7163086,0.1318359-1,0.3955078c-4.0991211,3.7492676-8.8974609,5.9064941-14.265625,6.4152832
			c-0.6806641,0.0634766-1.2167969,0.5793457-1.3046875,1.2548828c-0.7299805,5.3166504-0.6396484,18.5800781,15.9033203,27.0075684
			c0.4125977,0.2141113,0.9257813,0.2133789,1.3442383-0.0002441l0,0
			c16.5449219-8.4223633,16.6333008-21.6889648,15.9033203-27.0019531
			c-0.0864258-0.6694336-0.6347656-1.1970215-1.3041992-1.2602539c-5.3657227-0.5073242-10.1640625-2.6645508-14.2617188-6.4111328
			C83.3620605,64.0297852,82.9997559,63.8964844,82.6384277,63.8964844z" class="color0f0f0f svgShape"></path></g><g fill="#0a0a0a" class="color000000 svgShape"><path fill="#cce5e5" d="M82.6448822,94.0450363c-10.79953-6.0009689-12.2348938-14.4346924-12.0506363-19.2019882
			c4.4256134-0.7519913,8.4627762-2.560585,12.04953-5.3967209c3.5906143,2.838356,7.6277847,4.6466675,12.0467529,5.3969955
			C94.8731308,79.6429901,93.4278107,88.0689697,82.6448822,94.0450363z" class="colorffffff svgShape"></path></g><g fill="#0a0a0a" class="color000000 svgShape"><path fill="#848484" d="M91.1643143,86.7112885c-1.8211517,2.5758209-4.5288925,5.1159592-8.5186996,7.3325806
			c-10.7949905-6.0028381-12.232666-14.4375916-12.0529175-19.2060471c1.3418808-0.2275696,2.6599197-0.5510864,3.9298401-0.9705429
			c-0.1197815,0.6347427-0.1797485,1.3063431-0.1797485,1.9767685c0,6.445694,5.5112839,11.6698837,12.3166122,11.6698837
			C88.2528381,87.5139313,89.7744598,87.2261047,91.1643143,86.7112885z" class="colordddddd svgShape"></path></g><g fill="#0a0a0a" class="color000000 svgShape"><path fill="#0a0a0a" d="M82.6447754,94.7949219c-0.1254883,0-0.2509766-0.0314941-0.3642578-0.0944824
			C71.0324707,88.4506836,69.661377,79.5583496,69.8449707,74.8139648c0.0136719-0.3544922,0.2739258-0.6508789,0.6240234-0.7104492
			c4.2895508-0.7287598,8.2294922-2.4936523,11.7094727-5.2456055c0.2724609-0.215332,0.6572266-0.215332,0.9306641,0
			c3.4829102,2.753418,7.421875,4.5183105,11.7070313,5.2458496c0.3500977,0.0595703,0.6103516,0.3562012,0.6240234,0.7109375
			c0.1806641,4.7536621-1.1938477,13.657959-12.4316406,19.8862305
			C82.8952637,94.7636719,82.7697754,94.7949219,82.6447754,94.7949219z M71.3308105,75.4716797
			c-0.0263672,4.4641113,1.5537109,12.125,11.3144531,17.7124023c9.7495117-5.5681152,11.3325195-13.239502,11.309082-17.7121582
			c-4.1113281-0.7932129-7.9106445-2.4987793-11.3105469-5.0771484
			C79.2463379,72.9719238,75.4460449,74.6772461,71.3308105,75.4716797z" class="color0f0f0f svgShape"></path></g><g fill="#0a0a0a" class="color000000 svgShape"><path fill="#e6e6e6" d="M85.4338531,80.164093c0,0.9588394-0.4792709,1.8094482-1.2220993,2.3002777v2.0849915
			c0,0.8623123-0.7068405,1.5695953-1.5695953,1.5695953c-0.8745956,0-1.5694504-0.707283-1.5694504-1.5695953v-2.0849915
			c-0.7428207-0.4908295-1.2220917-1.3414383-1.2220917-2.3002777c0-1.5456085,1.2460785-2.7916946,2.7915421-2.7916946
			C84.1877747,77.3723984,85.4338531,78.6184845,85.4338531,80.164093z" class="color5b5476 svgShape"></path><path fill="#0a0a0a" d="M82.642334,86.8688965c-1.2792969,0-2.3198242-1.0405273-2.3198242-2.3195801v-1.7124023
			c-0.7714844-0.6574707-1.2216797-1.6289063-1.2216797-2.6728516c0-1.9528809,1.5888672-3.541748,3.5415039-3.541748
			s3.5415039,1.5888672,3.5415039,3.541748c0,1.0437012-0.4501953,2.0151367-1.222168,2.6728516v1.7124023
			C84.9616699,85.8283691,83.9211426,86.8688965,82.642334,86.8688965z M82.642334,78.1223145
			c-1.1254883,0-2.0415039,0.9160156-2.0415039,2.041748c0,0.682373,0.3310547,1.3083496,0.8852539,1.6745605
			c0.2099609,0.138916,0.3364258,0.3737793,0.3364258,0.6257324v2.0849609c0,0.4519043,0.3676758,0.8195801,0.8198242,0.8195801
			c0.4516602,0,0.8193359-0.3676758,0.8193359-0.8195801v-2.0849609c0-0.2519531,0.1264648-0.4868164,0.3364258-0.6257324
			c0.5546875-0.3664551,0.8857422-0.9924316,0.8857422-1.6745605C84.6838379,79.0383301,83.7678223,78.1223145,82.642334,78.1223145
			z" class="color0f0f0f svgShape"></path></g></g></svg>