<svg xmlns="http://www.w3.org/2000/svg" enable-background="new 0 0 512 512" viewBox="0 0 512 512" id="ResponsiveDesign"><path fill="#66b2b2" d="M431.1,163.54v82.49h-25.54v-63.35H277.28v177.08h112.87v13.72v17.75c0,2.21,1.79,4.01,4.01,4.01h-118.7
				h-17.31c-3.54,0-6.41-2.87-6.41-6.4v-24.56v-1.11v-32v-41.94V163.54c0-3.54,2.87-6.4,6.41-6.4h91.79h74.76
				C428.24,157.14,431.1,160,431.1,163.54z" class="color69a3d8 svgShape"></path><path fill="#dab600" d="M471,373.48v17.75c0,2.21-1.8,4.01-4.01,4.01H424.7h-30.54c-2.22,0-4.01-1.8-4.01-4.01v-17.75H471z" class="color2974a4 svgShape"></path><polygon fill="#cce5e5" points="471 267.79 471 373.48 390.15 373.48 390.15 359.76 390.15 267.79" class="colore5f2fc svgShape"></polygon><path fill="#dab600" d="M471,250.04v17.75h-80.85v-17.75c0-2.21,1.79-4.01,4.01-4.01h11.4h25.54h35.89
				C469.2,246.03,471,247.83,471,250.04z" class="color2974a4 svgShape"></path><path fill="#cce5e5" d="M405.56,182.68v63.35h-11.4c-2.22,0-4.01,1.8-4.01,4.01v17.75v91.97H277.28V182.68H405.56z" class="colore5f2fc svgShape"></path><path fill="#cce5e5" d="M349.94,130.95v26.19h-91.79c-3.54,0-6.41,2.86-6.41,6.4v125.69H41V130.95c0-7.83,6.35-14.19,14.19-14.19
				h280.57C343.59,116.76,349.94,123.12,349.94,130.95z M113.04,189.81v-32.67H75.98v32.67H113.04z" class="colore5f2fc svgShape"></path><path fill="#dab600" d="M258.15 395.24H115.49c0-8.86 3.58-16.87 9.39-22.68 5.81-5.81 13.82-9.39 22.68-9.39h25.14 45.54 33.5v1.11 24.56C251.74 392.37 254.61 395.24 258.15 395.24zM251.74 289.23v41.94h-33.5H172.7 55.19c-7.84 0-14.19-6.35-14.19-14.18v-27.76H251.74z" class="color2974a4 svgShape"></path><polygon fill="#008080" points="218.24 363.16 218.24 363.17 172.7 363.17 172.7 363.16 172.7 331.17 218.24 331.17" class="color015394 svgShape"></polygon><rect width="37.06" height="32.67" x="75.98" y="157.14" fill="#66b2b2" class="color80c7eb svgShape"></rect><g fill="#0a0a0a" class="color000000 svgShape"><path d="M251.74,336.17H55.19c-10.58,0-19.19-8.6-19.19-19.18V130.95c0-10.58,8.61-19.19,19.19-19.19h280.57
					c10.58,0,19.18,8.61,19.18,19.19v26.19c0,2.76-2.24,5-5,5s-5-2.24-5-5v-26.19c0-5.07-4.12-9.19-9.18-9.19H55.19
					c-5.07,0-9.19,4.12-9.19,9.19v186.04c0,5.06,4.12,9.18,9.19,9.18h196.55c2.76,0,5,2.24,5,5
					C256.74,333.93,254.5,336.17,251.74,336.17z" fill="#0a0a0a" class="color000000 svgShape"></path><path d="M251.74 294.23H41c-2.76 0-5-2.24-5-5s2.24-5 5-5h210.74c2.76 0 5 2.24 5 5S254.5 294.23 251.74 294.23zM172.7 368.16c-2.76 0-5-2.24-5-5v-31.99c0-2.76 2.24-5 5-5 2.76 0 5 2.24 5 5v31.99C177.7 365.92 175.46 368.16 172.7 368.16zM218.24 368.16c-2.76 0-5-2.24-5-5v-31.99c0-2.76 2.24-5 5-5 2.76 0 5 2.24 5 5v31.99C223.24 365.92 221 368.16 218.24 368.16z" fill="#0a0a0a" class="color000000 svgShape"></path><path d="M258.15,400.24H115.49c-2.76,0-5-2.24-5-5c0-9.91,3.85-19.22,10.85-26.22c7-7,16.31-10.85,26.22-10.85h104.18
					c2.76,0,5,2.24,5,5c0,2.76-2.24,5-5,5H147.56c-7.23,0-14.03,2.81-19.15,7.93c-3.91,3.91-6.48,8.81-7.47,14.14h137.2
					c2.76,0,5,2.24,5,5C263.15,398,260.91,400.24,258.15,400.24z" fill="#0a0a0a" class="color000000 svgShape"></path><path d="M275.46 400.24h-17.31c-2.76 0-5-2.24-5-5 0-2.76 2.24-5 5-5h17.31c2.76 0 5 2.24 5 5C280.46 398 278.22 400.24 275.46 400.24zM466.99 400.24h-72.83c-4.97 0-9.01-4.04-9.01-9.01V250.04c0-4.97 4.04-9.01 9.01-9.01h72.83c4.97 0 9.01 4.04 9.01 9.01v141.19C476 396.2 471.96 400.24 466.99 400.24zM395.15 390.24H466V251.03h-70.85V390.24z" fill="#0a0a0a" class="color000000 svgShape"></path><path d="M471 272.79h-80.85c-2.76 0-5-2.24-5-5 0-2.76 2.24-5 5-5H471c2.76 0 5 2.24 5 5C476 270.55 473.76 272.79 471 272.79zM471 378.48h-80.85c-2.76 0-5-2.24-5-5 0-2.76 2.24-5 5-5H471c2.76 0 5 2.24 5 5C476 376.24 473.76 378.48 471 378.48z" fill="#0a0a0a" class="color000000 svgShape"></path><path d="M394.16,400.24H258.15c-6.29,0-11.41-5.11-11.41-11.4v-225.3c0-6.29,5.12-11.4,11.41-11.4H424.7
				c6.29,0,11.4,5.11,11.4,11.4v82.49c0,2.76-2.24,5-5,5c-2.76,0-5-2.24-5-5v-82.49c0-0.79-0.61-1.4-1.4-1.4H258.15
				c-0.78,0-1.41,0.63-1.41,1.4v225.3c0,0.77,0.63,1.4,1.41,1.4h136.01c2.76,0,5,2.24,5,5C399.16,398,396.92,400.24,394.16,400.24z" fill="#0a0a0a" class="color000000 svgShape"></path><path d="M424.7 400.24h-30.54c-2.76 0-5-2.24-5-5 0-2.76 2.24-5 5-5h30.54c2.76 0 5 2.24 5 5C429.7 398 427.46 400.24 424.7 400.24zM390.15 364.76H277.28c-2.76 0-5-2.24-5-5V182.68c0-2.76 2.24-5 5-5h128.28c2.76 0 5 2.24 5 5v63.35c0 2.76-2.24 5-5 5s-5-2.24-5-5v-58.35H282.28v167.08h107.87c2.76 0 5 2.24 5 5C395.15 362.52 392.91 364.76 390.15 364.76z" fill="#0a0a0a" class="color000000 svgShape"></path><path d="M381.5 215.84h-80.16c-2.76 0-5-2.24-5-5 0-2.76 2.24-5 5-5h80.16c2.76 0 5 2.24 5 5C386.5 213.6 384.26 215.84 381.5 215.84zM359.03 239.99h-57.69c-2.76 0-5-2.24-5-5s2.24-5 5-5h57.69c2.76 0 5 2.24 5 5S361.79 239.99 359.03 239.99zM359.03 264.14h-57.69c-2.76 0-5-2.24-5-5 0-2.76 2.24-5 5-5h57.69c2.76 0 5 2.24 5 5C364.03 261.91 361.79 264.14 359.03 264.14zM359.03 288.3h-57.69c-2.76 0-5-2.24-5-5s2.24-5 5-5h57.69c2.76 0 5 2.24 5 5S361.79 288.3 359.03 288.3zM359.03 312.45h-57.69c-2.76 0-5-2.24-5-5 0-2.76 2.24-5 5-5h57.69c2.76 0 5 2.24 5 5C364.03 310.21 361.79 312.45 359.03 312.45zM359.03 336.6h-57.69c-2.76 0-5-2.24-5-5 0-2.76 2.24-5 5-5h57.69c2.76 0 5 2.24 5 5C364.03 334.36 361.79 336.6 359.03 336.6z" fill="#0a0a0a" class="color000000 svgShape"></path><g fill="#0a0a0a" class="color000000 svgShape"><path d="M347.78,377.5c0,3.51-2.84,6.35-6.35,6.35s-6.35-2.84-6.35-6.35c0-3.51,2.84-6.35,6.35-6.35S347.78,373.99,347.78,377.5z
				" fill="#0a0a0a" class="color000000 svgShape"></path></g><g fill="#0a0a0a" class="color000000 svgShape"><path d="M224.23,162.14H150.1c-2.76,0-5-2.24-5-5c0-2.76,2.24-5,5-5h74.12c2.76,0,5,2.24,5,5
				C229.23,159.9,226.99,162.14,224.23,162.14z" fill="#0a0a0a" class="color000000 svgShape"></path></g><g fill="#0a0a0a" class="color000000 svgShape"><path d="M224.23,194.81H150.1c-2.76,0-5-2.24-5-5s2.24-5,5-5h74.12c2.76,0,5,2.24,5,5S226.99,194.81,224.23,194.81z" fill="#0a0a0a" class="color000000 svgShape"></path></g><g fill="#0a0a0a" class="color000000 svgShape"><path d="M224.23,227.49H75.98c-2.76,0-5-2.24-5-5s2.24-5,5-5h148.25c2.76,0,5,2.24,5,5S226.99,227.49,224.23,227.49z" fill="#0a0a0a" class="color000000 svgShape"></path></g><g fill="#0a0a0a" class="color000000 svgShape"><path d="M224.23,260.16H75.98c-2.76,0-5-2.24-5-5c0-2.76,2.24-5,5-5h148.25c2.76,0,5,2.24,5,5
				C229.23,257.92,226.99,260.16,224.23,260.16z" fill="#0a0a0a" class="color000000 svgShape"></path></g><g fill="#0a0a0a" class="color000000 svgShape"><path d="M451.53 303.52h-41.91c-2.76 0-5-2.24-5-5s2.24-5 5-5h41.91c2.76 0 5 2.24 5 5S454.29 303.52 451.53 303.52zM451.53 325.63h-41.91c-2.76 0-5-2.24-5-5 0-2.76 2.24-5 5-5h41.91c2.76 0 5 2.24 5 5C456.53 323.4 454.29 325.63 451.53 325.63zM451.53 347.75h-41.91c-2.76 0-5-2.24-5-5 0-2.76 2.24-5 5-5h41.91c2.76 0 5 2.24 5 5C456.53 345.51 454.29 347.75 451.53 347.75z" fill="#0a0a0a" class="color000000 svgShape"></path></g><g fill="#0a0a0a" class="color000000 svgShape"><path d="M113.04,194.81H75.98c-2.76,0-5-2.24-5-5v-32.67c0-2.76,2.24-5,5-5h37.06c2.76,0,5,2.24,5,5v32.67
				C118.04,192.57,115.8,194.81,113.04,194.81z M80.98,184.81h27.06v-22.67H80.98V184.81z" fill="#0a0a0a" class="color000000 svgShape"></path></g></g></svg>