<svg xmlns="http://www.w3.org/2000/svg" enable-background="new 0 0 67 67" viewBox="0 0 67 67" id="WebDesign"><rect width="25.4" height="7.3" x="6.6" y="15.8" fill="#008080" class="color0fcaad svgShape"></rect><rect width="6.4" height="6.6" x="6.6" y="39.1" fill="#dab600" class="colorff9889 svgShape"></rect><rect width="6.4" height="6.6" x="16.1" y="39.1" fill="#66b2b2" class="color1fa6f8 svgShape"></rect><rect width="6.4" height="6.6" x="25.5" y="39.1" fill="#ecda7f" class="colorbcd6ef svgShape"></rect><rect width="25.4" height="8.3" x="6.6" y="26.9" fill="#f9f3d8" class="colorbcd6ef svgShape"></rect><path fill="#cce5e5" d="M1.6,48.1l0,3.8c0,1.5,1.2,2.8,2.8,2.8l53.3,0c1.5,0,2.8-1.2,2.8-2.8l0-3.8L1.6,48.1z" class="colorbcd6ef svgShape"></path><circle cx="30.9" cy="51.4" r="1.5" fill="#f9f3d8" class="colorffffff svgShape"></circle><path fill="#ffffff" d="M65.4,54.6l0-5.2l-3,0c-0.2-0.8-0.5-1.6-0.9-2.4l2.1-2.1l-3.7-3.7l-1.7,1.7l-0.2,0.2
			c-0.8-0.5-1.6-0.8-2.5-1.1l0-2.7l-5.2,0l0,2.7c-0.9,0.2-1.7,0.6-2.5,1.1l-2-2l-3.7,3.7l2.1,2.1c-0.4,0.7-0.7,1.5-0.9,2.4l-3,0
			l0,5.2l3.3,0c0.2,0.7,0.6,1.4,0.9,2.1l-1.1,1.1L42.1,59l3.7,3.7l2.5-2.5c0.6,0.3,1.3,0.6,1.9,0.8l0,3.5l5.2,0l0-3.5
			c0.7-0.2,1.3-0.4,2-0.8l2.5,2.5l3.7-3.7l-2.4-2.4c0.4-0.6,0.7-1.3,0.9-2.1L65.4,54.6z" class="colorffffff svgShape"></path><path fill="#dab600" d="M62.3,53.2c-0.2,0.7-0.5,1.4-0.9,2l2.4,2.4L60,61.3l-2.5-2.5c-0.6,0.3-1.3,0.6-2,0.8l0,3.5l-5.2,0l0-3.5
					c-0.7-0.2-1.3-0.4-1.9-0.8L46,61.3l-3.7-3.7l1.2-1.2l1.1-1.1c-0.4-0.6-0.7-1.3-0.9-2l-3.3,0l0-5.2l3,0c0.2-0.8,0.5-1.6,0.9-2.4
					l-2.1-2.1l3.7-3.7l2,2c0.7-0.5,1.6-0.8,2.5-1.1l0-2.7l5.2,0l0,2.7c0.9,0.2,1.7,0.6,2.5,1.1l0.2-0.2l1.7-1.7l3.7,3.7l-2.1,2.1
					c0.4,0.7,0.7,1.5,0.9,2.4l3,0l0,5.2L62.3,53.2z" class="colorff9889 svgShape"></path><path fill="#f9f3d8" d="M59.3,51.9c0,0.9-0.2,1.8-0.5,2.5c-1,2.3-3.2,3.9-5.9,3.9c-3.6,0-6.4-2.9-6.4-6.4c0-0.7,0.1-1.4,0.3-2
			c0.8-2.6,3.2-4.4,6.1-4.4c0.7,0,1.4,0.1,2,0.3c1.8,0.6,3.2,1.9,3.9,3.6C59.1,50.2,59.3,51,59.3,51.9z" class="colorffffff svgShape"></path><polyline fill="#cce5e5" points="46.7 24.8 45.4 30.8 50.5 27.3" class="colorffffff svgShape"></polyline><path fill="#66b2b2" d="M65.4,5.2L50.6,27.3l-3.8-2.5L61.5,2.6c0.4-0.5,1.1-0.7,1.6-0.3L65,3.6C65.6,3.9,65.7,4.6,65.4,5.2z" class="colorbcd6ef svgShape"></path><path fill="#cce5e5" d="M64.5,6.5l0.9-1.3c0.4-0.5,0.2-1.3-0.3-1.6l-1.9-1.2c-0.5-0.4-1.3-0.2-1.6,0.3L60.6,4L64.5,6.5z" class="colorffffff svgShape"></path><g fill="#0a0a0a" class="color000000 svgShape"><path fill="#0a0a0a" d="M31.4 13.7l-26.4 0 0 8.3 26.4 0L31.4 13.7zM30.4 21L6.1 21l0-6.3 24.4 0L30.4 21zM5.1 44.6l7.4 0 0-7.6-7.4 0L5.1 44.6zM6.1 38l5.4 0 0 5.6-5.4 0L6.1 38zM14.5 44.6l7.4 0 0-7.6-7.4 0L14.5 44.6zM15.5 38l5.4 0 0 5.6-5.4 0L15.5 38zM24 44.6l7.4 0 0-7.6L24 37 24 44.6zM25 38l5.4 0 0 5.6-5.4 0L25 38zM5.1 34.1l26.4 0 0-9.3-26.4 0L5.1 34.1zM6.1 25.9l24.4 0 0 7.3-24.4 0L6.1 25.9zM30.9 49.4c-1.1 0-2 .9-2 2 0 1.1.9 2 2 2 1.1 0 2-.9 2-2C33 50.3 32.1 49.4 30.9 49.4zM30.9 52.4c-.6 0-1-.5-1-1 0-.6.5-1 1-1 .6 0 1 .5 1 1C32 52 31.5 52.4 30.9 52.4z" class="color222f59 svgShape"></path><path fill="#0a0a0a" d="M62.1,47.1l2.2-2.2l-3.5-3.5l0-28.5c0-0.1,0-0.2,0-0.3c0.1-0.2,5-7.5,4.9-7.3c0.5-0.7,0.3-1.7-0.4-2.2
			L63.4,2c-0.7-0.5-1.7-0.3-2.2,0.4c-0.3,0.4-5.2,7.7-4.9,7.3l-52,0c-1.8,0-3.3,1.5-3.3,3.2c0,0.1,0,9.2,0,39c0,1.8,1.5,3.3,3.3,3.3
			l20.9,0l0,4.4c-2.7,0.2-4.8,2.5-4.8,5.2l0,0.5l21.1,0l0-0.5c0-2.8-2.1-5-4.8-5.2l0-4.4l6.5,0c0,0,0,0,0,0c0.2,0.4,0.4,0.9,0.6,1.3
			L41.4,59l4.4,4.4l2.6-2.6c0.4,0.2,0.9,0.4,1.3,0.5l0,3.7l6.2,0l0-3.7c0.5-0.1,0.9-0.3,1.3-0.5l2.6,2.6l4.4-4.4l-2.4-2.5
			c0.3-0.5,0.5-1,0.7-1.5l3.4,0l0-6.2l-3.2,0C62.6,48.2,62.4,47.6,62.1,47.1z M63,2.6l1.8,1.2C65.2,4.1,65.3,4.6,65,5l-0.7,1
			l-3.2-2.1l0.7-1C62.1,2.5,62.6,2.4,63,2.6z M60.7,4.7l1.2,0.8c-0.1,0.1-3.3,5-4.5,6.7c-0.1,0.2-0.1,0.4,0.1,0.6
			c0.1,0.1,0.4,0.1,0.5-0.1c0.1-0.1,4.5-6.8,4.4-6.7l1.3,0.9c-3.3,4.9-12,17.9-13.3,19.9l-3.1-2.1C49,22.1,41.9,32.7,60.7,4.7z
			 M47,25.4l2.8,1.9c-0.1,0.1-4,2.7-3.8,2.6C46.1,29.8,47,25.3,47,25.4z M2.1,12.9c0-1.2,1-2.2,2.3-2.2l51.4,0l-2,3l-12.6,0l0,1
			l11.9,0l-3.9,5.8l-8,0l0,1l7.4,0l-2,3c0,0,0,0.1,0,0.1h0l-0.6,2.6l-4.7,0l0,1l4.5,0l-0.7,3.3l5-3.3l6.5,0l0-1l-5.3,0l3.9-5.8
			l1.4,0l0-1l-0.7,0l4.2-6.3l0,26.4l-2,2c-0.6-0.3-1.2-0.6-1.9-0.8l0-2.8l-6.2,0l0,2.8c-0.7,0.2-1.3,0.5-1.9,0.8l-2-2l-4.4,4.4
			l2.2,2.2c-0.1,0.2-0.2,0.4-0.2,0.6l-41.3,0L2.1,12.9z M40.6,64.3l-19.1,0c0.3-2.1,2.1-3.7,4.2-3.7l10.6,0
			C38.5,60.5,40.3,62.2,40.6,64.3z M35.7,59.5l-9.5,0l0-4.3l9.5,0L35.7,59.5z M25.2,54.2L25.2,54.2l-20.9,0c-1.2,0-2.3-1-2.3-2.3
			l0-3.3l40.9,0c0,0.1,0,0.1-0.1,0.2l-3.1,0l0,5.4l-3.1,0v0L25.2,54.2z M64.9,54.1l-3.1,0l-0.1,0.3c-0.2,0.7-0.5,1.3-0.9,2l-0.2,0.3
			l2.3,2.3l-3,3l-2.4-2.4l-0.3,0.2c-0.6,0.3-1.2,0.6-1.8,0.7L55,60.6l0,3.4l-4.2,0l0-3.4l-0.4-0.1c-0.7-0.2-1.3-0.4-1.8-0.7
			l-0.3-0.2L45.8,62l-3-3l2.3-2.3l-0.2-0.3c-0.4-0.6-0.7-1.3-0.9-2l-0.1-0.3l-3.1,0l0-4.2l2.9,0l0.1-0.4c0.2-0.8,0.5-1.6,0.8-2.2
			l0.2-0.3l-2-2l3-3l1.9,1.9l0.3-0.2c0.7-0.4,1.5-0.8,2.3-1l0.4-0.1l0-2.6l4.2,0l0,2.6l0.4,0.1c0.8,0.2,1.6,0.6,2.4,1l0.3,0.2
			l1.9-1.9l3,3l-2,2l0.2,0.3c0.4,0.7,0.6,1.4,0.8,2.2l0.1,0.4l2.9,0L64.9,54.1z" class="color222f59 svgShape"></path><path fill="#0a0a0a" d="M55.1,45.4c-0.7-0.2-1.4-0.4-2.2-0.4c-3,0-5.7,1.9-6.6,4.7c-0.2,0.7-0.3,1.4-0.3,2.2
			c0,3.8,3.1,6.9,6.9,6.9c2.8,0,5.3-1.7,6.4-4.2c0.4-0.9,0.6-1.8,0.6-2.7c0-0.9-0.2-1.8-0.6-2.7C58.5,47.4,56.9,46,55.1,45.4z
			 M58.3,54.3c-0.9,2.2-3.1,3.6-5.4,3.6c-3.3,0-5.9-2.7-5.9-5.9c0-0.7,0.1-1.3,0.3-1.8c0.8-2.4,3.1-4.1,5.6-4.1
			c0.6,0,1.3,0.1,1.9,0.3c1.6,0.5,2.9,1.7,3.6,3.3c0.3,0.8,0.5,1.5,0.5,2.3C58.8,52.7,58.6,53.5,58.3,54.3z" class="color222f59 svgShape"></path><rect width="1" height="29.9" x="35.4" y="14.2" fill="#0a0a0a" class="color222f59 svgShape"></rect><rect width="15.2" height="1" x="41.1" y="34.1" fill="#0a0a0a" class="color222f59 svgShape"></rect></g></svg>