<svg xmlns="http://www.w3.org/2000/svg" viewBox="0 0 66 66" id="Computer"><path fill="#008080" d="M48.1 7H3.7c-1.1 0-1.9.9-1.9 2v32.7c0 1.1.9 1.9 1.9 1.9h39v-6.3H5.9V11.1H46v3.6h4.1V9c0-1.1-.9-2-2-2z" class="colord3d6de svgShape"></path><circle cx="25.9" cy="40.3" r="1.7" fill="#66b2b2" class="colora0adbe svgShape"></circle><path fill="#fee97d" d="M46.6 19h13.8v4.5H46.6zM46.6 26.9h13.8v4.5H46.6z" class="colorfeda7d svgShape"></path><circle cx="53.5" cy="51" r="4.5" fill="#dab600" class="colorf26869 svgShape"></circle><circle cx="53.5" cy="39.7" r="2.7" fill="#8ef2f2" class="color8ecff2 svgShape"></circle><path fill="#0a0a0a" d="M60.7 14h-9.9V9c0-1.5-1.2-2.7-2.7-2.7H3.7C2.2 6.3 1 7.5 1 9v32.7c0 1.5 1.2 2.7 2.7 2.7h15.5L17 51.7h-4.6c-.4 0-.8.3-.8.8 0 .4.3.8.8.8h27.4c.4 0 .7-.3.7-.8 0-.4-.3-.8-.7-.8h-4.6L33 44.4h9.1v11.1c0 2.4 1.9 4.3 4.3 4.3h14.5c2.4 0 4.3-1.9 4.3-4.3V18.2c-.2-2.3-2.1-4.2-4.5-4.2zM33.5 51.6h-15l2.2-7.3h10.6l2.2 7.3zM3.7 42.8c-.7 0-1.2-.5-1.2-1.2V9c0-.7.5-1.2 1.2-1.2h44.5c.6 0 1.2.5 1.2 1.2v5h-2.6v-2.8c0-.4-.3-.8-.8-.8H5.9c-.4 0-.8.3-.8.8v26.1c0 .4.3.8.8.8H42v4.8c.1-.1-28.8-.1-38.3-.1zm38.2-24.6v18.2H6.6V11.9h38.6v2.2c-1.9.5-3.3 2.1-3.3 4.1zm21.6 37.2c0 1.5-1.2 2.8-2.8 2.8H46.2c-1.5 0-2.8-1.2-2.8-2.8V18.2c0-1.5 1.2-2.8 2.7-2.8h14.5c1.5 0 2.8 1.2 2.8 2.8v37.2z" class="color010101 svgShape"></path><path fill="#0a0a0a" d="M60.3 18.2H46.6c-.4 0-.8.3-.8.8v4.5c0 .4.3.8.8.8h13.8c.4 0 .8-.3.8-.8V19c-.1-.4-.4-.8-.9-.8zm-.7 4.5H47.3v-3h12.3v3zM60.3 26.2H46.6c-.4 0-.8.3-.8.8v4.5c0 .4.3.8.8.8h13.8c.4 0 .8-.3.8-.8V27c-.1-.5-.4-.8-.9-.8zm-.7 4.4H47.3v-3h12.3v3zM53.5 45.8c-2.9 0-5.2 2.3-5.2 5.2 0 2.9 2.3 5.2 5.2 5.2 2.9 0 5.2-2.3 5.2-5.2 0-2.9-2.4-5.2-5.2-5.2zm0 8.9c-2 0-3.7-1.7-3.7-3.7s1.7-3.7 3.7-3.7 3.7 1.7 3.7 3.7c0 2.1-1.7 3.7-3.7 3.7zM56.9 39.7c0-1.9-1.5-3.4-3.4-3.4s-3.4 1.5-3.4 3.4 1.5 3.4 3.4 3.4 3.4-1.5 3.4-3.4zm-5.4 0c0-1.1.9-1.9 1.9-1.9 1.1 0 1.9.9 1.9 1.9 0 1.1-.9 1.9-1.9 1.9-1 0-1.9-.9-1.9-1.9z" class="color010101 svgShape"></path></svg>