<svg xmlns="http://www.w3.org/2000/svg" enable-background="new 0 0 512 512" viewBox="0 0 512 512" id="crown"><polygon fill="#dab600" points="470.236 230.913 425.616 367.572 86.39 367.572 41.77 230.913 161.331 286.658 256.003 142.192 350.75 286.602" class="colorfacb00 svgShape"></polygon><polygon points="470.237 230.893 425.614 367.555 375.963 367.555 411.644 258.193" opacity=".18" fill="#0a0a0a" class="color000000 svgShape"></polygon><path fill="#66b2b2" d="M425.592,367.562l11.686,22.984c5.4,10.621-2.316,23.201-14.231,23.201H88.959
			c-11.915,0-19.631-12.58-14.231-23.201l11.686-22.984H425.592z" class="colore6e8e7 svgShape"></path><path d="M423.059,413.774h-42.467c11.974,0,19.637-12.612,14.289-23.229l-11.735-22.99h42.467l11.655,22.99
			C442.697,401.161,434.953,413.774,423.059,413.774z" opacity=".18" fill="#0a0a0a" class="color000000 svgShape"></path><polygon fill="#66b2b2" points="283.312 283.774 256.003 332.637 228.694 283.774 256.003 234.91" class="colore6e8e7 svgShape"></polygon><path fill="#66b2b2" d="M278.014 120.182c0 12.193-9.897 22.011-22.011 22.011-12.114 0-22.011-9.818-22.011-22.011 0-12.114 9.897-21.932 22.011-21.932C268.117 98.25 278.014 108.068 278.014 120.182zM52.565 212.9c0 12.193-9.897 22.011-22.011 22.011-12.114 0-22.011-9.818-22.011-22.011 0-12.114 9.897-21.932 22.011-21.932C42.668 190.968 52.565 200.786 52.565 212.9zM503.463 212.9c0 12.193-9.897 22.011-22.011 22.011-12.114 0-22.011-9.818-22.011-22.011 0-12.114 9.897-21.932 22.011-21.932C493.566 190.968 503.463 200.786 503.463 212.9z" class="colore6e8e7 svgShape"></path><path d="M250.777,335.561c1.052,1.894,3.056,3.064,5.223,3.064s4.171-1.169,5.223-3.064l27.315-48.862
			c1.021-1.816,1.021-4.03,0-5.847l-27.315-48.862c-2.105-3.789-8.341-3.789-10.446,0l-27.308,48.862
			c-1.021,1.816-1.021,4.03,0,5.847L250.777,335.561z M256,247.183l20.455,36.592L256,320.367l-20.448-36.592L256,247.183z" fill="#0a0a0a" class="color000000 svgShape"></path><path d="M30.555,240.9c2.717,0,5.292-0.511,7.778-1.237l41.602,127.431l-10.543,20.734c-7.426,14.62,3.198,31.907,19.567,31.907
			h334.091c16.385,0,26.984-17.304,19.567-31.907l-10.548-20.744l41.606-127.421c2.486,0.725,5.061,1.236,7.778,1.236
			c15.435,0,27.994-12.559,27.994-28.001c0-15.396-12.559-27.916-27.994-27.916c-15.443,0-28.001,12.52-28.001,27.916
			c0,6.248,2.126,11.964,5.597,16.626l-106.135,49.464L265.852,146.3c10.576-4.003,18.149-14.157,18.149-26.121
			c0-15.396-12.559-27.916-28.001-27.916c-15.435,0-27.994,12.52-27.994,27.916c0,11.964,7.574,22.118,18.147,26.121
			l-86.989,132.743L52.955,229.521c3.468-4.662,5.593-10.377,5.593-16.622c0-15.396-12.559-27.916-27.994-27.916
			c-15.443,0-28.001,12.52-28.001,27.916C2.554,228.342,15.112,240.9,30.555,240.9z M423.049,407.762H88.959
			c-7.39,0-12.31-7.794-8.887-14.507l10.013-19.699h331.838l10.013,19.699C435.357,399.965,430.444,407.762,423.049,407.762z
			 M481.453,196.957c8.832,0,16.02,7.148,16.02,15.942c0,8.84-7.187,16.027-16.02,16.027c-8.387,0-16.027-7.002-16.027-16.027
			C465.425,204.106,472.613,196.957,481.453,196.957z M239.98,120.179c0-8.793,7.187-15.942,16.02-15.942
			c8.84,0,16.027,7.148,16.027,15.942c0,8.84-7.187,16.027-16.027,16.027C247.168,136.207,239.98,129.02,239.98,120.179z
			 M166.336,289.941L256,153.115l89.741,136.772c1.629,2.487,4.841,3.414,7.53,2.144l106.993-49.86l-38.991,119.403H90.726
			L51.743,242.171l107.055,49.914C161.488,293.333,164.699,292.444,166.336,289.941z M30.555,196.957
			c8.832,0,16.02,7.148,16.02,15.942c0,8.546-7.17,16.027-16.02,16.027c-8.84,0-16.027-7.187-16.027-16.027
			C14.527,204.106,21.715,196.957,30.555,196.957z" fill="#0a0a0a" class="color000000 svgShape"></path></svg>