<svg xmlns="http://www.w3.org/2000/svg" enable-background="new 0 0 512 512" viewBox="0 0 512 512" id="Computer"><path fill="#008080" d="M457,305H85c-16.6,0-30-13.4-30-30V35C55,18.4,68.4,5,85,5h372c16.6,0,30,13.4,30,30v240
			C487,291.6,473.6,305,457,305z" class="color504c43 svgShape"></path><path fill="#dab600" d="M457,305H85c-16.6,0-30-13.4-30-30v-20h432v20C487,291.6,473.6,305,457,305z" class="colord8d6c1 svgShape"></path><rect width="70" height="50" x="236" y="305" fill="#dab600" class="colord8d6c1 svgShape"></rect><rect width="300" height="20" x="121" y="487" fill="#f9f3d8" class="colorebebdf svgShape"></rect><polygon fill="#dab600" points="161 407 121 487 421 487 381 407" class="colord8d6c1 svgShape"></polygon><path fill="#cce5e5" d="M457,235H55V25h402c5.5,0,10,4.5,10,10v190C467,230.5,462.5,235,457,235z" class="color9cd3fc svgShape"></path><circle cx="256" cy="280" r="10" fill="#f9f3d8" class="colorc5c2a1 svgShape"></circle><g fill="#0a0a0a" class="color000000 svgShape"><path fill="#0a0a0a" d="M457 310H55c-19.3 0-35-15.7-35-35V35C20 15.7 35.7 0 55 0h402c19.3 0 35 15.7 35 35v240C492 294.3 476.3 310 457 310zM55 10c-13.8 0-25 11.2-25 25v240c0 13.8 11.2 25 25 25h402c13.8 0 25-11.2 25-25V35c0-13.8-11.2-25-25-25H55zM421 512H91c-2.8 0-5-2.2-5-5v-20c0-.8.2-1.5.5-2.2l40-80c.8-1.7 2.6-2.8 4.5-2.8h250c1.9 0 3.6 1.1 4.5 2.8l40 80c.3.7.5 1.5.5 2.2v20C426 509.8 423.8 512 421 512zM96 502h320v-13.8L377.9 412H134.1l-35 70H401v10H96V502z" class="color272526 svgShape"></path><path fill="#0a0a0a" d="M306,360H206c-2.8,0-5-2.2-5-5v-50c0-2.8,2.2-5,5-5h100c2.8,0,5,2.2,5,5v50
				C311,357.8,308.8,360,306,360z M211,350h90v-40h-90V350z" class="color272526 svgShape"></path><rect width="200" height="10" x="156" y="350" fill="#0a0a0a" class="color272526 svgShape"></rect><rect width="442" height="10" x="45" y="250" fill="#0a0a0a" class="color272526 svgShape"></rect><path fill="#0a0a0a" d="M457 240H55c-8.3 0-15-6.7-15-15V35c0-8.3 6.7-15 15-15h402c8.3 0 15 6.7 15 15v190C472 233.3 465.3 240 457 240zM55 30c-2.8 0-5 2.2-5 5v190c0 2.8 2.2 5 5 5h402c2.8 0 5-2.2 5-5V35c0-2.8-2.2-5-5-5H55zM256 295c-8.3 0-15-6.7-15-15s6.7-15 15-15 15 6.7 15 15S264.3 295 256 295zM256 275c-2.8 0-5 2.2-5 5s2.2 5 5 5 5-2.2 5-5S258.8 275 256 275z" class="color272526 svgShape"></path><rect width="10" height="84.9" x="147.4" y="404.5" fill="#0a0a0a" transform="rotate(19.653 152.442 447.06)" class="color272526 svgShape"></rect><rect width="10" height="81.8" x="188.9" y="406.1" fill="#0a0a0a" transform="rotate(12.095 193.805 446.93)" class="color272526 svgShape"></rect><rect width="10" height="60.2" x="231" y="406.9" fill="#0a0a0a" transform="rotate(4.088 236.01 437.017) scale(1.00004)" class="color272526 svgShape"></rect><rect width="60.2" height="10" x="245.9" y="432" fill="#0a0a0a" transform="rotate(85.915 276 437.002) scale(1.00004)" class="color272526 svgShape"></rect><rect width="81.8" height="10" x="277.2" y="442" fill="#0a0a0a" transform="rotate(77.907 318.147 446.987)" class="color272526 svgShape"></rect><rect width="84.9" height="10" x="317.1" y="442" fill="#0a0a0a" transform="rotate(70.347 359.59 447.014)" class="color272526 svgShape"></rect><rect width="270" height="10" x="121" y="422" fill="#0a0a0a" class="color272526 svgShape"></rect><rect width="290" height="10" x="111" y="442" fill="#0a0a0a" class="color272526 svgShape"></rect><rect width="310" height="10" x="101" y="462" fill="#0a0a0a" class="color272526 svgShape"></rect></g></svg>