<svg xmlns="http://www.w3.org/2000/svg" viewBox="0 0 128 128" id="Computer"><path fill="#008080" d="M15.7 94.8c-.3 0-.7-.2-.9-.5-.4-.7-.6-1.4-.6-2.2v-60c0-2.3 1.9-4.2 4.2-4.2h91c2.3 0 4.2 1.9 4.2 4.2v60c0 .8-.2 1.5-.6 2.1-.3.5-.9.6-1.4.4-.5-.3-.6-.9-.4-1.4.2-.3.3-.7.3-1.1v-60c0-1.2-1-2.2-2.2-2.2h-91c-1.2 0-2.2 1-2.2 2.2v60c0 .4.1.8.3 1.1.3.5.1 1.1-.3 1.4 0 .1-.2.2-.4.2z" class="color2a3236 svgShape"></path><path fill="#008080" d="M107.3 89.5H20.5c-.3 0-.5-.2-.5-.5V34c0-.3.2-.5.5-.5h86.8c.3 0 .5.2.5.5v55c0 .2-.2.5-.5.5zm-86.3-1h85.8v-54H21v54z" class="color2a3236 svgShape"></path><g fill="#008080" class="color2a3236 svgShape"><path d="M117.5 100.1H10.2c-5 0-6.8-2.1-7-2.3-.1-.2-.2-.4-.2-.6v-3.1c0-.6.4-1 1-1s1 .4 1 1v2.7c.5.4 2.1 1.4 5.2 1.4h107.3c3.1 0 4.8-.9 5.5-1.4v-2.1c0-.6.4-1 1-1s1 .4 1 1v2.6c0 .3-.1.5-.3.7-.1 0-2.2 2.1-7.2 2.1z" fill="#0a0a0a" class="color000000 svgShape"></path><path d="M4 97.2c-.6 0-1-.4-1-1V94c0-.6.5-1.1 1.1-1.1h119.7c.6 0 1.1.5 1.1 1.1v1.8c0 .6-.4 1-1 1s-1-.4-1-1v-.9H5v1.3c0 .5-.4 1-1 1z" fill="#0a0a0a" class="color000000 svgShape"></path><path d="M70.3 96.2H57.2c-1.1 0-2.6-.5-2.8-1.7v-.2c0-.3.2-.5.5-.5s.5.2.5.5c0 .5 1 .9 1.8.9h13.1c.5 0 1.4-.4 1.4-.9 0-.3.3-.5.5-.5.3 0 .5.3.5.5-.1 1.3-1.6 1.9-2.4 1.9z" fill="#0a0a0a" class="color000000 svgShape"></path></g></svg>