<svg xmlns="http://www.w3.org/2000/svg" viewBox="0 0 68 68" id="Crown"><path d="M64.745 17.57c-1.78-.737-3.995-.409-5.326 1.387a5.31 5.31 0 0 0-1.241 7.003c-1.579 2.902-3.315 5.873-5.24 8.626-1.484.593-3.247-.495-4.414-1.82-2.183-2.48-3.343-5.551-3.754-9.9 1.348-.414 2.375-1.531 2.742-2.658.412-1.271-.017-2.756-1.045-3.61-1.024-.853-2.56-1.011-3.737-.383-2.145 1.144-2.58 4.998-.38 6.383-.127.627-.833 1.312-1.222 1.859-2.82 3.97-3.011 4.336-3.61 4.767-.195-.482-.38-.969-.557-1.46 1.55-.64 2.721-2.166 2.853-3.872.153-1.975-1.083-3.963-2.939-4.728-4.062-1.676-8.114 2.578-6.675 6.4.346.92 1.235 1.874 2.223 2.268-.685 1.78-1.399 3.574-2.228 5.306-3.753-2.523-6.032-6.596-8.017-10.279 1.54-.885 2.244-2.677 1.877-4.182-.412-1.69-2.118-2.979-3.79-2.909-1.775.062-3.339 1.534-3.485 3.281-.16 1.927 1.238 3.925 3.248 4.228-.694 1.12-.864 3.945-4.022 9.196-.534.883-1.108 1.731-2.042 2.153-2.118-2.79-4.255-5.89-6.029-9.235.576-1.168.962-2.825.572-4.129-.438-1.463-1.631-2.643-3.038-3.005-2.062-.528-4.44.671-5.04 3.061-.915 2.182.464 5.11 3.05 5.807a48.81 48.81 0 0 1 1.336 17.808c-.028-.028-.052-.064-.08-.092-.715.62-.712 1.792.021 2.39-1.086 1.645-.714 4.086.534 5.612s3.104 2.41 4.949 3.104c9.64 3.628 20.267 3.272 30.549 2.647 6.977-.424 14.143-1 20.434-4.049.775-.375 1.56-.81 2.062-1.51.969-1.353.339-3.076-1.435-2.996.02-.077.059-.144.07-.227.088-.621-.212-1.294-.746-1.673a1.67 1.67 0 0 0-.257-.15l.127-.802a2.407 2.407 0 0 0-.374-4.155c.148-5.891 1.122-11.36 2.827-15.881 2.124-.358 3.962-2.076 4.295-4.096.371-2.252-.939-4.61-3.046-5.485zM51.743 36.218c-.158.209-.306.432-.467.637-1.7 2.171-3.806 4.173-6.56 3.86-1.766-1.435-4.687-6.097-6.15-9.144.24-.142.029.04 2.42-3.307a178.53 178.53 0 0 0 2.491-3.547c.575 3.808 1.817 6.65 3.92 9.04 1.166 1.324 2.595 2.32 4.346 2.46zM44.298 17.33c1.383 0 2.141 1.321 1.787 2.413-.218.672-.862 1.345-1.566 1.637-1.208.503-2.11-.327-2.123-1.673-.011-1.214.627-2.377 1.902-2.377zm-14.79 17.163c-1.163 2.19-2.906 4.922-5.028 6.189-1.264.754-2.665 1.002-3.85.678-2.03-.557-3.612-2.824-5.337-5.014.785-.279 1.525-.787 2.136-1.485 1.77-2.026 3.37-7.437 4.109-10.037 1.945 3.533 4.262 7.24 7.97 9.669zm-11.233-15.32c.082-.98 1.036-1.872 2.042-1.907 1.062-.024 2.044.792 2.281 1.766.441 1.811-1.773 3.834-3.5 2.185-.568-.542-.883-1.325-.823-2.044zM60.319 49.37c.379.318-.3.879-.704 1.162-3.997 2.8-9.482 3.848-14.813 4.565-11.528 1.548-22.052 1.347-29.633-.567-2.76-.698-6.37-2.036-8.227-3.703-.275-.247-.653-.624-.759-1.037a.507.507 0 0 1 .26-.565c.44-.214.426-.624.437-.958 7.575 4.278 17.658 5.557 26.314 5.072 9.336-.527 16.268-1.161 26.116-4.795l-.002.01a.75.75 0 0 0 1.01.816zm5.991-26.56c-.245 1.49-1.771 2.791-3.402 2.9a.75.75 0 0 0-.648.475C60.336 31.09 59.264 37.1 59.158 43.56a.75.75 0 0 0 .638.754.954.954 0 0 1 .766.772.953.953 0 0 1-.52.955c-.482.223-.424.7-.467.83-.035.008-.07.004-.105.017-10.022 3.79-16.944 4.422-26.36 4.953-10.171.579-19.698-1.36-26.225-5.307a.744.744 0 0 0-.337-.602c-.197-.125-.096-.619.115-.886a.75.75 0 0 0 .156-.37A45 45 0 0 0 5.316 26.2a.743.743 0 0 0-.33-.419.736.736 0 0 0-.548-.411c-2.334-.345-3.415-3-2.052-4.724 1.32-1.671 4.001-1.232 4.684 1.046.282.941-.107 2.441-.646 3.348a.74.74 0 0 0 .111.892c.008.019.007.038.017.056 2.63 4.987 6.038 9.43 9.025 13.12 1.688 2.086 3.426 3.89 6.118 3.89 6.464 0 10.138-9.435 12.45-15.465a.75.75 0 0 0-.765-1.016c-.562.047-1.492-.728-1.777-1.483-.979-2.602 1.859-5.656 4.701-4.484 1.251.515 2.117 1.902 2.015 3.225-.103 1.333-1.197 2.553-2.491 2.778-.56.097-.864.801-.384 1.268a.744.744 0 0 0 .04.278 42.556 42.556 0 0 0 6.784 12.198c1.107 1.393 2.353 2.605 4.136 2.605 2.306 0 3.798-1.69 5.172-3.5 3.1-4.077 6.312-8.506 8.801-13.258a.73.73 0 0 0 .07-.414.736.736 0 0 0 .13-.278l.04-.063-.024-.025a.729.729 0 0 0-.045-.383c-1.933-4.452.866-7.171 3.621-6.026 1.458.604 2.398 2.298 2.141 3.855z" fill="#dab600" class="color000000 svgShape"></path><path d="M9.473 38.33c-1.28.451-2.27 2.632-2.32 3.64-.055 1.113.402 2.33 1.286 3.427 1.977 2.452 4.85 1.839 4.96-1.48.036-1.113-.084-2.048-.369-2.86-.536-1.53-2.003-3.275-3.557-2.728zm1.98 6.924c-.207.145-.556.155-.87.024-.807-.34-1.997-1.924-1.932-3.233.032-.643.826-2.127 1.32-2.301.543-.181 1.417 1.16 1.644 1.808.3.857.537 3.214-.163 3.702zm26.18-3.797a4.276 4.276 0 0 0-4.23-.586c-3.492 1.4-3.733 6.125-.696 8.106 4.42 2.88 9.024-4.38 4.926-7.52zm-1.112 5.9c-.929.87-1.942 1.05-2.995.364-1.01-.659-1.586-1.951-1.402-3.143a2.96 2.96 0 0 1 1.837-2.315 2.758 2.758 0 0 1 2.76.384c1.31 1.005 1.401 3.21-.2 4.71zm20.052-8.977c-1.575.249-2.802 2.478-3.047 3.656-.953 4.606 4.961 5.663 5.629.294.341-2.73-1.226-4.163-2.582-3.95zm1.093 3.765c-.404 3.238-3.215 2.83-2.671.195.197-.948 1.147-2.373 1.813-2.478.198-.037.424.152.65.549.235.41.303.978.208 1.734zm-42.81-30.729a.75.75 0 0 0-.115 1.055l1.408 1.756a.75.75 0 0 0 1.171-.939l-1.409-1.756a.75.75 0 0 0-1.054-.116zm3.783-2.405a.75.75 0 0 0-.817.676 8.926 8.926 0 0 0 .272 3.183.75.75 0 0 0 1.448-.392 7.446 7.446 0 0 1-.227-2.65.75.75 0 0 0-.676-.817zm3.393 1.075-1.417 2.083a.75.75 0 0 0 1.24.844l1.417-2.083a.75.75 0 0 0-1.24-.844z" fill="#ecda7f" class="color000000 svgShape"></path></svg>