<svg xmlns="http://www.w3.org/2000/svg" viewBox="0 0 64 64" id="Crown"><circle cx="32.13" cy="48" r="2.31" fill="#66b2b2" class="colorffffff svgShape"></circle><circle cx="32.13" cy="37.06" r="2.31" fill="#66b2b2" class="colorffffff svgShape"></circle><circle cx="44.68" cy="37.06" r="2.31" fill="#66b2b2" class="colorffffff svgShape"></circle><path fill="#66b2b2" d="M56.81,39.38a2.31,2.31,0,0,1,0-4.62C58.09,34.75,58.09,39.38,56.81,39.38Z" class="colorffffff svgShape"></path><circle cx="19.73" cy="37.06" r="2.31" fill="#66b2b2" class="colorffffff svgShape"></circle><path fill="#66b2b2" d="M9.57,37.06a2.31,2.31,0,0,1-2.31,2.31c-1.28,0-1.28-4.62,0-4.62A2.31,2.31,0,0,1,9.57,37.06Z" class="colorffffff svgShape"></path><path fill="#008080" d="M6.77 54V48.18H29.65l.22.7a2.36 2.36 0 0 0 4.52 0l.22-.7H57.5V54zM34.61 48.18l-.22-.7a2.36 2.36 0 0 0-4.52 0l-.22.7H6.77V42.33H57.5v5.84z" class="colorf09052 svgShape"></path><path fill="#dab600" d="M6.77,25.3H6.58a2.94,2.94,0,1,1,.38,0H6.77Z" class="colorfcc00f svgShape"></path><circle cx="18.62" cy="19.95" r="2.93" fill="#dab600" class="colorfcc00f svgShape"></circle><circle cx="32.13" cy="12.91" r="2.93" fill="#dab600" class="colorfcc00f svgShape"></circle><circle cx="45.94" cy="19.95" r="2.93" fill="#dab600" class="colorfcc00f svgShape"></circle><path fill="#dab600" d="M6.77,42.33V39.74l.78-.17a2.38,2.38,0,0,0,0-4.64l-.78-.17V25.29l7.08,9.79,4.75-12,6.64,12,6.9-19.24L39,35.09l6.64-12,4.75,12,7.08-9.79v9.46l-.78.17a2.38,2.38,0,0,0,0,4.64l.78.17v2.59Zm37.92-7.47a2.38,2.38,0,1,0,2.38,2.38A2.39,2.39,0,0,0,44.68,34.86Zm-12.55,0a2.38,2.38,0,1,0,2.38,2.38A2.39,2.39,0,0,0,32.13,34.86Zm-12.55,0A2.38,2.38,0,1,0,22,37.25,2.39,2.39,0,0,0,19.58,34.86Z" class="colorfcc00f svgShape"></path><path fill="#dab600" d="M57.23,25.32a3,3,0,1,1,.43,0H57.5Z" class="colorfcc00f svgShape"></path><path fill="#0a0a0a" d="M19.58 33.86A3.38 3.38 0 1 0 23 37.25 3.39 3.39 0 0 0 19.58 33.86zm0 4.77A1.38 1.38 0 1 1 21 37.25 1.38 1.38 0 0 1 19.58 38.63zM32.13 33.86a3.38 3.38 0 1 0 3.38 3.38A3.39 3.39 0 0 0 32.13 33.86zm0 4.77a1.38 1.38 0 1 1 1.38-1.38A1.38 1.38 0 0 1 32.13 38.63z" class="color3a302b svgShape"></path><path fill="#0a0a0a" d="M57.23,18.46A3.93,3.93,0,0,0,55.74,26l-5.05,7L47,23.72a3.92,3.92,0,1,0-2.7-.2l-5.07,9.15L33.47,16.6a3.93,3.93,0,1,0-2.66,0L25,32.67l-5-9.05a3.94,3.94,0,1,0-2.73,0L13.58,33,8.46,25.93a3.93,3.93,0,1,0-2.69.25V54a1,1,0,0,0,1,1H57.5a1,1,0,0,0,1-1V26.1a3.92,3.92,0,0,0-1.27-7.64ZM44,20a1.93,1.93,0,1,1,1.93,1.93A1.94,1.94,0,0,1,44,20Zm-13.8-7a1.93,1.93,0,1,1,1.93,1.93A1.94,1.94,0,0,1,30.2,12.91ZM16.68,20a1.93,1.93,0,1,1,1.93,1.93A1.94,1.94,0,0,1,16.68,20Zm-10,4.36a1.94,1.94,0,1,1,.25,0A1,1,0,0,0,6.64,24.31ZM7.77,36.08a1.37,1.37,0,0,1,0,2.34ZM56.5,53H7.77V49.18H28.92a3.36,3.36,0,0,0,6.43,0H56.5ZM30.75,48.18a1.38,1.38,0,1,1,1.38,1.38A1.38,1.38,0,0,1,30.75,48.18Zm25.75-1H35.35a3.36,3.36,0,0,0-6.43,0H7.77V43.33H56.5Zm0-8.76a1.37,1.37,0,0,1,0-2.34Zm0-4.47a3.38,3.38,0,0,0,0,6.6v.79H7.77v-.79a3.38,3.38,0,0,0,0-6.6V28.38L13,35.67a1,1,0,0,0,1.74-.22l4-10,5.62,10.14a1,1,0,0,0,1.82-.15l6-16.62,6,16.62a1,1,0,0,0,1.82.15l5.62-10.14,4,10a1,1,0,0,0,1.74.22l5.26-7.29Zm1-9.65h-.11l-.17,0a2,2,0,1,1,.28,0Z" class="color3a302b svgShape"></path><path fill="#0a0a0a" d="M44.68,33.86a3.38,3.38,0,1,0,3.38,3.38A3.39,3.39,0,0,0,44.68,33.86Zm0,4.77a1.38,1.38,0,1,1,1.38-1.38A1.38,1.38,0,0,1,44.68,38.63Z" class="color3a302b svgShape"></path></svg>